<?xml version="1.0" encoding="utf-8"?>
<!-- Generator: Adobe Illustrator 26.5.0, SVG Export Plug-In . SVG Version: 6.00 Build 0)  -->
<svg version="1.1" id="katman_1" xmlns="http://www.w3.org/2000/svg" xmlns:xlink="http://www.w3.org/1999/xlink" x="0px" y="0px"
	 viewBox="0 0 725.7 725.7" style="enable-background:new 0 0 725.7 725.7;" xml:space="preserve">
<style type="text/css">
	.st0{fill:#504F4F;}
</style>
<g>
	<path class="st0" d="M98.3,210.5c-13.7-13.7-35.1-14.7-48.9-2.3c-7.2,6.5-11.3,15.3-11.5,25c-0.3,9.5,3.5,18.8,10.2,25.5l67.6,67.6
		l80.9,97c-13.1,13.7-20.4,31.6-20.4,50.6c0,19.5,7.6,37.9,21.4,51.7c14.3,14.3,33,21.4,51.7,21.4c18.2,0,36.5-6.8,50.6-20.3
		l96.4,80.4l75.5,75.5c6.6,6.6,15.4,10.2,24.6,10.2c1,0,2,0,3-0.1c10.3-0.9,19.6-6.3,25.6-14.8c9.5-13.5,7.4-33.1-5-45.5l-20-20
		c-26.5-26.5-26.5-69.7,0-96.2l127.5-127.5c78.6-78.6,80.5-205.1,6-286.2l22.5-22.5c3.5-3.5,3.5-9.2,0-12.7c-3.5-3.5-9.2-3.5-12.7,0
		l-22.5,22.5c-81.2-74.4-207.6-72.6-286.2,6L207.2,223.2c-26.5,26.5-69.7,26.5-96.2,0L98.3,210.5z M210.4,512.9
		c-10.4-10.4-16.2-24.3-16.2-39.1c0-13.7,5-26.5,14-36.7l11.7,14.1c15.7,18.8,33.2,36.3,52,52l14,11.6
		C264.3,534.2,231.1,533.6,210.4,512.9z M219.9,235.9l127.5-127.5c71.6-71.6,186.7-73.5,260.8-6L564.6,146c-3.5,3.5-3.5,9.2,0,12.7
		c1.8,1.8,4.1,2.6,6.3,2.6c2.3,0,4.6-0.9,6.3-2.6l43.6-43.6c67.4,74.1,65.6,189.2-6,260.8L487.4,503.4c-33.5,33.5-33.5,88,0,121.6
		l20,20v0c6.3,6.3,7.6,15.9,3,22.4c-3,4.2-7.4,6.8-12.4,7.2c-4.9,0.4-9.8-1.3-13.4-4.9l-76.1-76l-125-104.3
		c-18-15-34.7-31.7-49.8-49.8L128.9,314.1L60.8,246c-3.3-3.3-5-7.7-4.9-12.3c0.1-4.7,2.1-9,5.6-12.1c3-2.7,6.8-4,10.7-4
		c4.8,0,9.7,1.9,13.4,5.6l12.7,12.7C131.8,269.4,186.4,269.4,219.9,235.9z"/>
</g>
</svg>
