<?xml version="1.0" encoding="utf-8"?>
<!-- Generator: Adobe Illustrator 26.5.0, SVG Export Plug-In . SVG Version: 6.00 Build 0)  -->
<svg version="1.1" id="katman_1" xmlns="http://www.w3.org/2000/svg" xmlns:xlink="http://www.w3.org/1999/xlink" x="0px" y="0px"
	 viewBox="0 0 725.7 725.7" style="enable-background:new 0 0 725.7 725.7;" xml:space="preserve">
<style type="text/css">
	.st0{fill:#504F4F;}
</style>
<g>
	<path class="st0" d="M539.6,365.7L687.3,218c9.6-9.6,9.6-25.2,0-34.8L546.5,42.5c-9.6-9.6-25.2-9.6-34.8,0L366.3,187.9L223.7,45.2
		c-9.3-9.3-24.2-9.6-33.9-0.8L43.7,176.5c-11.1,10-11.7,27.2-1.3,38l141.2,145.9c1.5,1.6,1.5,4.1,0,5.7L51,498.7
		c-9.6,9.6-9.6,25.2,0,34.8l140.8,140.8c9.6,9.6,25.2,9.6,34.8,0L347.8,553c9.6-9.6,25.2-9.6,34.8,0l132.5,132.5
		c9.6,9.6,25.2,9.6,34.8,0l137.4-137.4c9.6-9.6,9.6-25.2,0-34.8L539.6,365.7z M676.2,533.6L535.3,674.5c-1.6,1.6-4.1,1.6-5.7,0
		L382.5,527.4c-9.6-9.6-25.2-9.6-34.8,0L212,663.2c-1.6,1.6-4.1,1.6-5.7,0L61.9,517.4l145.4-144.8c5.3-5.4,5.3-14,0-19.4L53.9,202.1
		c-1.6-1.6-1.5-4.2,0.1-5.8L203.8,56.5c1.6-1.5,4.1-1.4,5.6,0.1l139.5,139.5c9.6,9.6,25.2,9.6,34.8,0L529.1,50.7l150,150
		L531.4,348.3c-9.6,9.6-9.6,25.2,0,34.8l144.8,144.8C677.8,529.5,677.8,532,676.2,533.6z"/>
</g>
</svg>
