<?xml version="1.0" encoding="utf-8"?>
<!-- Generator: Adobe Illustrator 26.5.0, SVG Export Plug-In . SVG Version: 6.00 Build 0)  -->
<svg version="1.1" id="katman_1" xmlns="http://www.w3.org/2000/svg" xmlns:xlink="http://www.w3.org/1999/xlink" x="0px" y="0px"
	 viewBox="0 0 725.7 725.7" style="enable-background:new 0 0 725.7 725.7;" xml:space="preserve">
<style type="text/css">
	.st0{fill:#504F4F;}
</style>
<g>
	<path class="st0" d="M722.7,489.6c-3.9-3.8-10-3.8-13.8,0.1l-166,171.4L195,318.2L457.3,57.7c3.9-3.8,3.9-10.1,0.1-14
		c-3.8-3.9-10-4-13.8-0.1L174.2,311.2c0,0,0,0.1-0.1,0.1c0,0-0.1,0-0.1,0.1c-0.4,0.5-0.7,1-1,1.6c-0.4,0.5-0.8,1-1,1.6
		c-0.3,0.8-0.4,1.7-0.5,2.5c-0.1,0.4-0.2,0.8-0.2,1.2v346.9H9.8c-5.4,0-9.8,4.4-9.8,9.9c0,5.5,4.4,9.9,9.8,9.9H181h362
		c1.3,0,2.6-0.3,3.8-0.8c1.2-0.5,2.3-1.2,3.2-2.2l0,0l0,0l0,0l172.8-178.4C726.7,499.7,726.6,493.4,722.7,489.6z M274.8,665.1
		l-84-86.7V341.7l328.2,323.4H274.8z M190.8,606.8l56.6,58.4h-56.6V606.8z"/>
	<path class="st0" d="M352.1,421.1c1.9,1.9,4.4,2.9,6.9,2.9c2.5,0,5-1,6.9-2.9L722.8,57.6c3.8-3.9,3.8-10.2,0-14
		c-3.8-3.9-10-3.8-13.8,0L352.1,407.1C348.3,410.9,348.3,417.2,352.1,421.1z"/>
	<path class="st0" d="M708.9,225.3L530.5,407.1c-3.8,3.9-3.8,10.2,0,14c1.9,1.9,4.4,2.9,6.9,2.9c2.5,0,5-1,6.9-2.9l178.4-181.7
		c3.8-3.9,3.8-10.2,0-14C719,221.4,712.8,221.5,708.9,225.3z"/>
</g>
</svg>
