<?xml version="1.0" encoding="utf-8"?>
<!-- Generator: Adobe Illustrator 26.5.0, SVG Export Plug-In . SVG Version: 6.00 Build 0)  -->
<svg version="1.1" id="katman_1" xmlns="http://www.w3.org/2000/svg" xmlns:xlink="http://www.w3.org/1999/xlink" x="0px" y="0px"
	 viewBox="0 0 725.7 725.7" style="enable-background:new 0 0 725.7 725.7;" xml:space="preserve">
<style type="text/css">
	.st0{fill:#504F4F;}
</style>
<g>
	<path class="st0" d="M608.8,693.5H115.2c-5.1,0-9.2-4.1-9.2-9.2V287.6c0-5.1,4.1-9.2,9.2-9.2h493.7c5.1,0,9.2,4.1,9.2,9.2v396.7
		C618,689.4,613.9,693.5,608.8,693.5z M124.3,675.1h475.3V296.8H124.3V675.1z"/>
	<path class="st0" d="M525.5,296.8c-5.1,0-9.2-4.1-9.2-9.2v-82.8c0-83.4-70.1-151.2-156.3-151.2s-156.3,67.8-156.3,151.2v82.8
		c0,5.1-4.1,9.2-9.2,9.2c-5.1,0-9.2-4.1-9.2-9.2v-82.8c0-93.5,78.3-169.6,174.6-169.6c96.3,0,174.6,76.1,174.6,169.6v82.8
		C534.7,292.7,530.6,296.8,525.5,296.8z"/>
	<path class="st0" d="M362,555.5c-5.1,0-9.2-4.1-9.2-9.2V425.6c0-5.1,4.1-9.2,9.2-9.2c5.1,0,9.2,4.1,9.2,9.2v120.7
		C371.2,551.4,367.1,555.5,362,555.5z"/>
</g>
</svg>
