<?xml version="1.0" encoding="utf-8"?>
<!-- Generator: Adobe Illustrator 26.5.0, SVG Export Plug-In . SVG Version: 6.00 Build 0)  -->
<svg version="1.1" id="katman_1" xmlns="http://www.w3.org/2000/svg" xmlns:xlink="http://www.w3.org/1999/xlink" x="0px" y="0px"
	 viewBox="0 0 725.7 725.7" style="enable-background:new 0 0 725.7 725.7;" xml:space="preserve">
<style type="text/css">
	.st0{fill:#504F4F;}
</style>
<g>
	<path class="st0" d="M331.5,534.9c-137.7,0-249.8-112.1-249.8-249.8c0-137.7,112.1-249.8,249.8-249.8
		c137.7,0,249.8,112.1,249.8,249.8C581.3,422.8,469.2,534.9,331.5,534.9z M331.5,53.1c-127.9,0-231.9,104-231.9,231.9
		S203.6,517,331.5,517c127.9,0,231.9-104,231.9-231.9S459.4,53.1,331.5,53.1z"/>
	<path class="st0" d="M646.1,693.5c-2.5,0-5-1.1-6.8-3.1L465.5,486.2c-3.2-3.8-2.7-9.4,1-12.6c3.8-3.2,9.4-2.7,12.6,1l173.7,204.2
		c3.2,3.8,2.7,9.4-1,12.6C650.2,692.8,648.1,693.5,646.1,693.5z"/>
</g>
</svg>
