<?xml version="1.0" encoding="utf-8"?>
<!-- Generator: Adobe Illustrator 26.5.0, SVG Export Plug-In . SVG Version: 6.00 Build 0)  -->
<svg version="1.1" id="katman_1" xmlns="http://www.w3.org/2000/svg" xmlns:xlink="http://www.w3.org/1999/xlink" x="0px" y="0px"
	 viewBox="0 0 725.7 725.7" style="enable-background:new 0 0 725.7 725.7;" xml:space="preserve">
<style type="text/css">
	.st0{fill:#504F4F;}
</style>
<g>
	<path class="st0" d="M173.6,316.9l108.7,108.7L662.7,45.2c11-11,29.7-3.2,29.7,12.3v213.7c0,4.6-1.8,9-5.1,12.3l-397,397
		c-6.9,6.9-18.1,6.8-24.8-0.2L38.1,444.9c-6.8-7-6.5-18.2,0.6-24.8l110.6-103.6C156.2,310.1,166.9,310.3,173.6,316.9z M46.2,436.1
		l231.6,231.6L674.5,271V58.8L294.6,438.7c-6.8,6.8-17.8,6.8-24.6,0L160.8,329.5C111.1,373,59.5,420.4,46.2,436.1z"/>
</g>
</svg>
