<?xml version="1.0" encoding="utf-8"?>
<!-- Generator: Adobe Illustrator 26.5.0, SVG Export Plug-In . SVG Version: 6.00 Build 0)  -->
<svg version="1.1" id="katman_1" xmlns="http://www.w3.org/2000/svg" xmlns:xlink="http://www.w3.org/1999/xlink" x="0px" y="0px"
	 viewBox="0 0 725.7 725.7" style="enable-background:new 0 0 725.7 725.7;" xml:space="preserve">
<style type="text/css">
	.st0{fill:#504F4F;}
</style>
<g>
	<path class="st0" d="M472,170.6c-2.9,0-5.8-1.6-7.3-4.3l-54.3-98.1c-1.3-2.3-1.4-5.1-0.3-7.6c1.1-2.4,3.3-4.2,6-4.7l110-22
		c4.6-0.9,8.9,2,9.8,6.6c0.9,4.5-2,8.9-6.6,9.8l-98.7,19.7l48.8,88.1c2.2,4,0.8,9.1-3.3,11.4C474.8,170.3,473.4,170.6,472,170.6z"/>
	<path class="st0" d="M205.6,692c-3.9,0-7.4-2.8-8.2-6.7c-0.9-4.5,2-8.9,6.6-9.8l98.7-19.7l-48.8-88.1c-2.2-4-0.8-9.1,3.3-11.4
		c4-2.2,9.1-0.8,11.4,3.3l54.3,98.1c1.3,2.3,1.4,5.2,0.3,7.6c-1.1,2.4-3.3,4.2-6,4.7l-110,22C206.7,691.9,206.1,692,205.6,692z"/>
	<path class="st0" d="M311.7,666.4c-0.5,0-1,0-1.5-0.1c-60.3-10.8-115.5-39-159.6-81.7C28.3,466.5,24.9,271,142.9,148.7
		c45.3-46.9,103.2-77.8,167.3-89.3c4.6-0.8,8.9,2.2,9.7,6.8c0.8,4.5-2.2,8.9-6.8,9.7c-60.7,10.8-115.4,40-158.2,84.4
		C43.3,275.9,46.6,460.9,162.2,572.5c41.8,40.3,94,67,151,77.2c4.6,0.8,7.6,5.2,6.8,9.7C319.2,663.5,315.7,666.4,311.7,666.4z"/>
	<path class="st0" d="M417.7,666.3c-4,0-7.5-2.8-8.2-6.9c-0.8-4.6,2.2-8.9,6.8-9.7c60.7-10.8,115.4-40,158.2-84.4
		c54.1-56,83.1-129.8,81.8-207.6c-1.4-77.9-33-150.5-89-204.6c-41.8-40.3-94-67-151-77.2c-4.6-0.8-7.6-5.2-6.8-9.7
		c0.8-4.6,5.1-7.6,9.7-6.8c60.3,10.8,115.5,39,159.6,81.7c59.2,57.2,92.7,134,94.1,216.4c1.5,82.3-29.3,160.3-86.4,219.5
		c-45.3,46.9-103.2,77.8-167.3,89.3C418.7,666.2,418.2,666.3,417.7,666.3z"/>
</g>
</svg>
