<svg enable-background="new 0 0 1893.3 1890.7" viewBox="0 0 1893.3 1890.7" xmlns="http://www.w3.org/2000/svg" xmlns:xlink="http://www.w3.org/1999/xlink"><linearGradient id="a" gradientUnits="userSpaceOnUse" x1="1895.2534" x2="3.2535" y1="944.8511" y2="944.8511"><stop offset="0" stop-color="#bd3d17"/><stop offset="0" stop-color="#00c13e"/><stop offset="0" stop-color="#bd3d17"/><stop offset=".3983" stop-color="#ba3c18"/><stop offset=".7214" stop-color="#b03919"/><stop offset="1" stop-color="#a0351c"/></linearGradient><path d="m1611.3 1890.9h-1324.1c-156.8 0-283.9-127.1-283.9-283.9v-1324.2c0-156.8 127.1-283.9 283.9-283.9h1324.1c156.8 0 283.9 127.1 283.9 283.9v1324.1c.1 156.8-127.1 284-283.9 284z" fill="url(#a)"/><path d="m837.6 1464.7h-247.5v-259.9l247.5-247.6z" fill="#191919"/><path d="m998.5 1204.8h-408.4l247.5-247.5h160.9c78.5 0 142.3-63.8 142.3-142.3s-63.8-142.4-142.3-142.4h-408.4v-247.6h408.4c215 0 389.9 174.9 389.9 389.9s-174.9 389.9-389.9 389.9z" fill="#232323"/></svg>