<svg xmlns="http://www.w3.org/2000/svg" xmlns:xlink="http://www.w3.org/1999/xlink" width="50" zoomAndPan="magnify" viewBox="0 0 37.5 37.499999" height="50" preserveAspectRatio="xMidYMid meet" version="1.0"><defs><clipPath id="72d68bfce2"><path d="M 5.550781 5.398438 L 33.304688 5.398438 L 33.304688 33.304688 L 5.550781 33.304688 Z M 5.550781 5.398438 " clip-rule="nonzero"/></clipPath><clipPath id="24a292c86b"><path d="M 7.03125 5.398438 L 31.824219 5.398438 C 32.21875 5.398438 32.59375 5.550781 32.871094 5.832031 C 33.148438 6.109375 33.304688 6.484375 33.304688 6.875 L 33.304688 31.824219 C 33.304688 32.21875 33.148438 32.59375 32.871094 32.871094 C 32.59375 33.148438 32.21875 33.304688 31.824219 33.304688 L 7.03125 33.304688 C 6.636719 33.304688 6.261719 33.148438 5.984375 32.871094 C 5.707031 32.59375 5.550781 32.21875 5.550781 31.824219 L 5.550781 6.875 C 5.550781 6.484375 5.707031 6.109375 5.984375 5.832031 C 6.261719 5.550781 6.636719 5.398438 7.03125 5.398438 Z M 7.03125 5.398438 " clip-rule="nonzero"/></clipPath></defs><g clip-path="url(#72d68bfce2)"><g clip-path="url(#24a292c86b)"><path fill="#ffffff" d="M 5.550781 5.398438 L 33.304688 5.398438 L 33.304688 33.304688 L 5.550781 33.304688 Z M 5.550781 5.398438 " fill-opacity="1" fill-rule="nonzero"/></g></g><path fill="#bd3d17" d="M 22.496094 13.808594 C 21.894531 13.28125 21 13.015625 19.808594 13.015625 L 16.65625 13.015625 L 16.65625 18.910156 L 19.808594 18.910156 C 21 18.910156 21.894531 18.660156 22.496094 18.144531 C 23.09375 17.632812 23.390625 16.910156 23.390625 15.964844 C 23.390625 15.050781 23.089844 14.335938 22.496094 13.808594 Z M 22.496094 13.808594 " fill-opacity="1" fill-rule="nonzero"/><path fill="#bd3d17" d="M 30.0625 0.0703125 L 6.9375 0.0703125 C 3.144531 0.0703125 0.0351562 3.179688 0.0351562 6.964844 L 0.0351562 30.046875 C 0.0351562 32.503906 1.34375 34.65625 3.289062 35.886719 C 4.351562 36.542969 5.601562 36.925781 6.9375 36.925781 L 30.0625 36.925781 C 33.855469 36.925781 36.964844 33.835938 36.964844 30.039062 L 36.964844 6.964844 C 36.964844 3.179688 33.855469 0.0703125 30.0625 0.0703125 Z M 28.058594 19.964844 C 27.335938 21.074219 26.304688 21.933594 24.953125 22.539062 C 23.601562 23.144531 22.003906 23.449219 20.15625 23.449219 L 16.65625 23.449219 L 16.65625 27.996094 C 16.65625 28.40625 16.324219 28.738281 15.914062 28.738281 L 11.679688 28.738281 C 11.265625 28.738281 10.933594 28.40625 10.933594 27.996094 L 10.933594 9.25 C 10.933594 8.839844 11.265625 8.503906 11.679688 8.503906 L 20.15625 8.503906 C 22.003906 8.503906 23.601562 8.800781 24.953125 9.402344 C 26.304688 10 27.335938 10.863281 28.058594 11.988281 C 28.78125 13.117188 29.144531 14.4375 29.144531 15.964844 C 29.144531 17.523438 28.78125 18.855469 28.058594 19.964844 Z M 28.058594 19.964844 " fill-opacity="1" fill-rule="nonzero"/></svg>