<?xml version="1.0" encoding="UTF-8"?><svg id="Layer_1" xmlns="http://www.w3.org/2000/svg" viewBox="0 0 512.1 512.1"><rect x="62" y="58.47" width="401" height="394" style="fill:#fff;"/><path d="M416.3,0H95.7C43,0,0,43.1,0,95.7V416.4c0,34.1,18.1,64.1,45.1,81.1,14.7,9.2,32,14.6,50.6,14.6H416.4c52.6,0,95.7-43,95.7-95.7V95.7c-.1-52.6-43.1-95.7-95.8-95.7Zm-46.4,282.4l-43.5,41.5c-14.5,14.5-31.5,21-51.5,21h-54v42.3h-.2c0,24.5-18,44.5-42.5,44.5s-44-20-44-44.5V154.4c0-40.5,33.5-74.1,74.1-74.1h66.6c20,0,37,7,51.5,20.5l48,48c31.5,30,26,104.1-4.5,133.6Z" style="fill:#bd3d17;"/><polygon points="221.7 257.6 304.8 257.6 304.8 168 221.7 167 221.7 257.6" style="fill:#bd3d17;"/></svg>