<?xml version="1.0" encoding="utf-8"?>
<!-- Generator: Adobe Illustrator 26.5.0, SVG Export Plug-In . SVG Version: 6.00 Build 0)  -->
<svg version="1.1" id="katman_1" xmlns="http://www.w3.org/2000/svg" xmlns:xlink="http://www.w3.org/1999/xlink" x="0px" y="0px"
	 viewBox="0 0 725.7 725.7" style="enable-background:new 0 0 725.7 725.7;" xml:space="preserve">
<style type="text/css">
	.st0{fill:#504F4F;stroke:#504F4F;stroke-width:2;stroke-miterlimit:10;}
</style>
<g>
	<path class="st0" d="M397.6,688.8h-69.5c-13.5,0-24.4-11-24.4-24.4v-29.6c0-14.1-9.1-26.8-22.6-31.4c-10.6-3.6-21-8-31-13
		c-12.4-6.2-27.2-3.8-36.9,5.9l-21.6,21.6c-9.2,9.2-25.3,9.2-34.5,0l-49.2-49.2c-9.5-9.5-9.5-25,0-34.5l21.9-21.9
		c9.6-9.6,12-24.4,5.9-36.8c-5-10-9.3-20.5-12.8-31c-4.5-13.4-17-22.4-31-22.4H61.3c-13.5,0-24.4-11-24.4-24.4v-69.5
		c0-13.5,11-24.4,24.4-24.4h31c13.9,0,26.4-9,31-22.3c3.6-10.4,7.9-20.6,12.8-30.5c6.2-12.4,3.8-27.3-5.9-36.9l-22.5-22.5
		c-4.6-4.6-7.2-10.7-7.2-17.3s2.5-12.7,7.2-17.3l49.2-49.2c9.2-9.2,25.3-9.2,34.5,0l22.7,22.8c9.6,9.6,24.4,12,36.8,5.9
		c9.9-4.9,20.2-9.1,30.5-12.7c13.2-4.5,22.1-16.8,22.1-30.6V61.3c0-13.5,11-24.4,24.4-24.4h69.5c13.5,0,24.4,11,24.4,24.4v31.9
		c0,13.8,8.9,26.1,22.1,30.6c10.4,3.5,20.7,7.8,30.5,12.7c12.4,6.1,27.2,3.7,36.8-5.9l22.7-22.8c9.5-9.5,25-9.5,34.5,0l49.2,49.2
		c4.6,4.6,7.2,10.7,7.2,17.3s-2.5,12.7-7.2,17.3l-22.5,22.5c-9.7,9.7-12,24.5-5.8,36.9c4.9,9.9,9.2,20.1,12.8,30.5
		c4.6,13.3,17,22.3,31,22.3h31c13.5,0,24.4,11,24.4,24.4v69.5c0,13.5-11,24.4-24.4,24.4h-30.5c-14,0-26.5,9-31,22.4
		c-3.6,10.6-7.9,21-12.8,31c-6.1,12.4-3.7,27.1,5.9,36.8l21.9,21.9c9.5,9.5,9.5,25,0,34.5l-49.2,49.2c-9.5,9.5-25,9.5-34.5,0
		l-21.6-21.7c-9.7-9.7-24.5-12-36.9-5.9c-10,5-20.5,9.4-31,13c-13.5,4.6-22.6,17.2-22.6,31.4v29.6
		C422,677.9,411.1,688.8,397.6,688.8z M235.5,568.8c7.7,0,15.4,1.7,22.6,5.3c9.3,4.6,19,8.7,28.8,12c20.9,7.1,34.9,26.7,34.9,48.6
		v29.6c0,3.4,2.8,6.2,6.2,6.2h69.5c3.4,0,6.2-2.8,6.2-6.2v-29.6c0-21.9,14-41.5,34.9-48.6c9.8-3.3,19.5-7.4,28.8-12
		c19.4-9.7,42.7-6,57.9,9.3l21.6,21.6c2.4,2.4,6.4,2.4,8.8,0l49.2-49.2c1.2-1.2,1.8-2.7,1.8-4.4c0-1.7-0.6-3.2-1.8-4.4l-21.9-21.9
		c-15.2-15.2-18.9-38.4-9.4-57.7c4.6-9.3,8.6-19,11.9-28.8c7-20.8,26.4-34.8,48.3-34.8h30.5c3.4,0,6.2-2.8,6.2-6.2v-69.5
		c0-3.4-2.8-6.2-6.2-6.2h-31c-21.7,0-41.1-13.9-48.2-34.6c-3.3-9.6-7.3-19.2-11.9-28.3c-9.7-19.4-6-42.7,9.3-57.9l22.5-22.5
		c1.2-1.2,1.8-2.7,1.8-4.4s-0.6-3.2-1.8-4.4l-49.2-49.2c-2.4-2.4-6.4-2.4-8.8,0l-22.7,22.8c-15.2,15.2-38.4,18.9-57.8,9.4
		c-9.2-4.5-18.7-8.5-28.3-11.7c-20.6-7-34.5-26.2-34.5-47.8V61.3c0-3.4-2.8-6.2-6.2-6.2h-69.5c-3.4,0-6.2,2.8-6.2,6.2v31.9
		c0,21.6-13.8,40.9-34.5,47.8c-9.6,3.3-19.2,7.2-28.3,11.7c-19.3,9.6-42.6,5.8-57.7-9.4l-22.7-22.8c-2.4-2.3-6.4-2.3-8.8,0
		l-49.2,49.2c-1.2,1.2-1.8,2.7-1.8,4.4s0.6,3.2,1.8,4.4l22.5,22.5c15.2,15.2,18.9,38.5,9.3,57.9c-4.6,9.2-8.6,18.7-11.9,28.3
		c-7.1,20.7-26.5,34.6-48.2,34.6h-31c-3.4,0-6.2,2.8-6.2,6.2v69.5c0,3.4,2.8,6.2,6.2,6.2h30.5c21.8,0,41.2,14,48.3,34.8
		c3.3,9.8,7.3,19.5,11.9,28.8c9.6,19.3,5.8,42.6-9.4,57.7l-21.9,21.9c-1.2,1.2-1.8,2.7-1.8,4.4c0,1.7,0.6,3.2,1.8,4.4l49.2,49.2
		c2.3,2.3,6.4,2.4,8.8,0l21.6-21.6C209.8,573.8,222.6,568.8,235.5,568.8z"/>
	<path class="st0" d="M362.8,544.8c-100.3,0-182-81.6-182-182c0-100.3,81.6-182,182-182s182,81.6,182,182
		C544.8,463.2,463.2,544.8,362.8,544.8z M362.8,199.1c-90.3,0-163.7,73.5-163.7,163.7s73.5,163.7,163.7,163.7
		s163.7-73.5,163.7-163.7S453.1,199.1,362.8,199.1z"/>
</g>
</svg>
