<?xml version="1.0" encoding="utf-8"?>
<!-- Generator: Adobe Illustrator 26.5.0, SVG Export Plug-In . SVG Version: 6.00 Build 0)  -->
<svg version="1.1" id="katman_1" xmlns="http://www.w3.org/2000/svg" xmlns:xlink="http://www.w3.org/1999/xlink" x="0px" y="0px"
	 viewBox="0 0 725.7 725.7" style="enable-background:new 0 0 725.7 725.7;" xml:space="preserve">
<g>
	<g>
		<path d="M612.1,300.8H113.5v-34.7h498.6V300.8z M125.5,288.8h474.6v-10.7H125.5V288.8z"/>
	</g>
	<g>
		<path d="M497.7,636h-77.4v-24.7c0-4.4-3.1-8.2-7.5-9.1l-4.7-1V580c0-5.1-4.2-9.3-9.3-9.3h-7.3V372.6h7.3c5.1,0,9.3-4.2,9.3-9.3
			v-21.2l4.7-1c4.4-0.9,7.5-4.7,7.5-9.1v-24.7h83.4V332c0,4.4,3.1,8.2,7.5,9.1l4.7,1v21.1c0,5.1,4.2,9.3,9.3,9.3h7.3v198.2h-7.3
			c-5.1,0-9.3,4.2-9.3,9.3v21.2l-4.7,1c-4.4,0.9-7.5,4.7-7.5,9.1v18.7h-6V636z M432.3,624h59.4v-12.6c0-8.4,4.8-15.8,12.2-19.3v-12
			c0-10.1,7.1-18.6,16.6-20.8V384.1c-9.5-2.1-16.6-10.6-16.6-20.8v-12.1c-7.3-3.5-12.2-11-12.2-19.2v-12.7h-59.4V332
			c0,8.4-4.8,15.8-12.2,19.3v12c0,10.1-7.1,18.6-16.6,20.8v175.1c9.5,2.1,16.6,10.6,16.6,20.8v12.1c7.3,3.5,12.2,11,12.2,19.2V624z"
			/>
	</g>
	<g>
		<path d="M413.8,334.8H311.9v-27.5h101.9V334.8z M323.9,322.8h77.9v-3.5h-77.9V322.8z"/>
	</g>
	<g>
		<path d="M401.6,603.2H324v-25.9h13.3c1.9,0,3.3-1.4,3.3-3.3V369.4c0-1.9-1.4-3.3-3.3-3.3H324v-24.8h77.6v24.8h-13.3
			c-1.8,0-3.3,1.5-3.3,3.3V574c0,1.9,1.4,3.3,3.3,3.3h13.3V603.2z M336,591.2h53.6v-1.9h-1.3c-8.4,0-15.3-6.9-15.3-15.3V369.4
			c0-8.4,6.9-15.3,15.3-15.3h1.3v-0.8H336v0.8h1.3c8.4,0,15.3,6.9,15.3,15.3V574c0,8.4-6.9,15.3-15.3,15.3H336V591.2z"/>
	</g>
	<g>
		<path d="M299.3,636H222v-24.7c0-4.4-3.1-8.2-7.5-9.1l-4.7-1V580c0-5.1-4.2-9.3-9.3-9.3h-7.3V372.6h7.3c5.1,0,9.3-4.2,9.3-9.3
			v-21.2l4.7-1c4.4-0.9,7.5-4.7,7.5-9.1v-24.7h83.3V332c0,4.4,3.1,8.2,7.5,9.1l4.7,1v21.1c0,5.1,4.2,9.3,9.3,9.3h7.3v198.2h-7.3
			c-5.1,0-9.3,4.2-9.3,9.3v21.2l-4.7,1c-4.4,0.9-7.5,4.7-7.5,9.1v18.7h-6V636z M234,624h59.3v-12.6c0-8.4,4.8-15.8,12.2-19.3v-12
			c0-10.1,7.1-18.6,16.6-20.8V384.1c-9.5-2.1-16.6-10.6-16.6-20.8v-12.1c-7.3-3.5-12.2-11-12.2-19.2v-12.7H234V332
			c0,8.4-4.8,15.8-12.2,19.3v12c0,10.1-7.1,18.6-16.6,20.8v175.1c9.5,2.1,16.6,10.6,16.6,20.8v12.1c7.3,3.5,12.2,11,12.2,19.2V624z"
			/>
	</g>
	<g>
		<path d="M365.2,187l-8.1-3.1c-6.6-2.5-17.6-6.7-17.6-19.6c0-9.8,7.1-16.5,19-17.9l6.7-0.8V187z M353.2,160.5
			c-1.7,1.3-1.7,2.9-1.7,3.8c0,1.7,0.4,3,1.7,4.2V160.5z"/>
	</g>
	<g>
		<path d="M604.3,259.6H121.4l234.7-151c4.2-2.7,9.6-2.7,13.6,0L604.3,259.6z M372.5,247.6h191l-200.4-129c-0.1-0.1-0.3-0.1-0.6,0.1
			L162.2,247.6h190.5c-0.1-0.4-0.2-0.7-0.2-1.1c-18-2.2-29.7-12.7-29.7-22.4c0-6.7,5.4-14.1,12.6-14.1c4,0,6.7,2.4,9.4,4.6
			c2.1,1.8,4.4,3.8,7.7,5.1v-21.9c-12.5-4.7-27.1-11.9-27.1-32.1c0-16.6,10-28.1,27.2-31.7c0.6-4.6,4.9-8.2,10-8.2
			c4.8,0,9.1,3.3,10.1,7.5c12.2,1.4,23.6,6.1,23.6,15.9c0,5.9-4.3,14.1-12.3,14.1c-2.7,0-5-1.1-7.1-2.2c-1.2-0.6-2.5-1.2-4-1.8v17.6
			c10.7,4.3,25.9,12.4,25.9,34.3c-0.1,17.6-9.7,30.1-26,34.2C372.8,246.2,372.7,246.9,372.5,247.6z M335.5,222.5
			c-0.4,0.5-0.7,1.2-0.7,1.6c0,2.6,8.4,10.5,23.7,10.8l4.4,0.1l3.1-0.4c9.4-1.3,20.7-6.4,20.8-23.4c0-15.2-9.5-19.9-22-24.5
			l-3.9-1.5v-39.6l6.4,0.4c7.3,0.5,11.9,2.8,15,4.4c0.4,0.2,1,0.5,1.4,0.7c0.3-0.5,0.5-1.2,0.6-1.7c-1.2-1.5-7.9-4.2-17.6-4.5
			l-3.8-0.1l-3.8,0.4c-9.9,1-21.7,5.4-21.7,20.5c0,13,8.7,17.1,23,22.2l4,1.4l0.1,4.2v40l-6.5-0.5c-11.1-0.8-17.3-6.2-21.1-9.3
			C336.5,223.4,336,222.9,335.5,222.5z"/>
	</g>
	<g>
		<path d="M359.9,234.1v-46.4l8.4,3.6c7.5,3.2,16.1,8.6,16.1,21.5c0,10.5-6.5,18-17.4,20L359.9,234.1z M371.9,209.2v7
			c0.4-1.1,0.5-2.3,0.5-3.4C372.4,211.5,372.2,210.3,371.9,209.2z"/>
	</g>
	<g>
		<path d="M612.1,334.8H510.2v-27.5h101.9V334.8z M522.2,322.8h77.9v-3.5h-77.9V322.8z"/>
	</g>
	<g>
		<path d="M600,603.2h-77.6v-25.9h13.3c1.8,0,3.3-1.5,3.3-3.3V369.4c0-1.9-1.4-3.3-3.3-3.3h-13.3v-24.8H600v24.8h-13.3
			c-1.8,0-3.3,1.5-3.3,3.3V574c0,1.9,1.4,3.3,3.3,3.3H600V603.2z M534.4,591.2H588v-1.9h-1.3c-8.4,0-15.3-6.9-15.3-15.3V369.4
			c0-8.4,6.9-15.3,15.3-15.3h1.3v-0.8h-53.6v0.8h1.3c8.4,0,15.3,6.9,15.3,15.3V574c0,8.4-6.9,15.3-15.3,15.3h-1.3V591.2z"/>
	</g>
	<g>
		<path d="M413.7,636H311.8v-29.1l7.9,2.6c0.4,0.1,0.7,0.2,1,0.2h81v-0.5h42.9l-30.9,10.3V636z M323.8,624h77.9v-2.3h-77.9V624z"/>
	</g>
	<g>
		<path d="M612.1,636.1H510.2v-29.2l7.9,2.6c0.4,0.1,0.7,0.2,1,0.2h84.1c0.3,0,0.6-0.1,1-0.2l7.9-2.6V636.1z M522.2,624.1h77.9v-2.4
			h-77.9V624.1z"/>
	</g>
	<g>
		<path d="M215.5,636.1H113.6v-29.2l7.9,2.6c0.4,0.1,0.7,0.2,1,0.2h84.1c0.3,0,0.6-0.1,1-0.2l7.9-2.6V636.1z M125.6,624.1h77.9v-2.4
			h-77.9V624.1z"/>
	</g>
	<g>
		<path d="M215.5,334.8h-102v-27.5h102V334.8z M125.5,322.8h78v-3.5h-78V322.8z"/>
	</g>
	<g>
		<path d="M663.4,674.1H62.1v-31.5h601.3V674.1z M74.1,662.1h577.3v-7.5H74.1V662.1z"/>
	</g>
	<g>
		<path d="M680.8,240L465.3,101.4c-4.3-2.8-10-1.5-12.8,2.8s-1.5,10,2.8,12.8l212.4,136.6h-49.5L376.4,98.1
			c-8.2-5.3-18.9-5.3-27.1,0L107.5,253.6H58L362.8,57.5L406,85.3c4.3,2.8,10,1.5,12.8-2.8s1.5-10-2.8-12.8l-43.2-27.8
			c-6.1-3.9-13.9-3.9-20,0L44.9,240c-6.6,4.2-9.5,12.1-7.3,19.6c2.2,7.5,8.9,12.5,16.7,12.5H101V332c0,7.4,5.2,13.5,12.2,15v16.3
			c0,8.5,6.9,15.3,15.3,15.3h1.3v113.5c0,5.1,4.1,9.3,9.3,9.3c5.1,0,9.3-4.1,9.3-9.3V369.4c0-5.1-4.2-9.3-9.3-9.3h-7.3v-12.8h65.6
			v12.8h-7.3c-5.1,0-9.3,4.1-9.3,9.3V574c0,5.1,4.2,9.3,9.3,9.3h7.3v13.9h-65.6v-13.9h7.3c5.1,0,9.3-4.1,9.3-9.3v-23.7
			c0-5.1-4.2-9.3-9.3-9.3s-9.3,4.1-9.3,9.3v14.4h-1.3c-8.5,0-15.3,6.9-15.3,15.3v16.3c-6.9,1.5-12.2,7.6-12.2,15V630H68.2
			c-10.2,0-18.6,8.3-18.6,18.6v19.5c0,10.2,8.3,18.6,18.6,18.6h589.3c10.2,0,18.6-8.3,18.6-18.6v-19.5c0-10.2-8.3-18.6-18.6-18.6
			h-32.8v-18.7c0-7.4-5.2-13.5-12.2-15V580c0-8.5-6.9-15.3-15.3-15.3h-1.3V378.6h1.3c8.5,0,15.3-6.9,15.3-15.3V347
			c6.9-1.5,12.2-7.6,12.2-15v-59.9h46.7c7.8,0,14.5-5,16.7-12.5C690.3,252.1,687.4,244.3,680.8,240z M359.3,113.6
			c2.1-1.4,4.9-1.4,7.1,0l217.5,140H141.8L359.3,113.6z M119.5,272.1h486.6v22.7H119.5V272.1z M414.2,596.4v-16.3
			c0-8.5-6.9-15.3-15.3-15.3h-1.3V378.6h1.3c8.5,0,15.3-6.9,15.3-15.3V347c6.9-1.5,12.2-7.6,12.2-15v-18.7h71.4V332
			c0,7.4,5.2,13.5,12.2,15v16.3c0,8.5,6.9,15.3,15.3,15.3h1.3v186.1h-1.3c-8.5,0-15.3,6.9-15.3,15.3v16.3c-6.9,1.5-12.2,7.6-12.2,15
			V630h-71.4v-18.7C426.3,604,421.1,597.8,414.2,596.4z M215.8,596.4v-16.3c0-8.5-6.9-15.3-15.3-15.3h-1.3V378.6h1.3
			c8.5,0,15.3-6.9,15.3-15.3V347c6.9-1.5,12.2-7.6,12.2-15v-18.7h71.4V332c0,7.4,5.2,13.5,12.2,15v16.3c0,8.5,6.9,15.3,15.3,15.3
			h1.3v186.1h-1.3c-8.5,0-15.3,6.9-15.3,15.3v16.3c-6.9,1.5-12.2,7.6-12.2,15V630H228v-18.7C228,604,222.8,597.8,215.8,596.4z
			 M388.3,583.3h7.3v13.9H330v-13.9h7.3c5.1,0,9.3-4.1,9.3-9.3V369.4c0-5.1-4.1-9.3-9.3-9.3H330v-12.8h65.6v12.8h-7.3
			c-5.1,0-9.3,4.1-9.3,9.3V574C379,579.1,383.2,583.3,388.3,583.3z M320.8,328.8h-2.9v-15.5h89.9v15.5h-2.9l0,0l0,0H320.8z
			 M317.9,615.2c0.9,0.3,1.9,0.5,2.9,0.5h84.1c1,0,2-0.2,3-0.5v14.9H318v-14.9H317.9z M122.4,328.8h-2.9v-15.5h89.9v15.5H122.4z
			 M119.5,615.2c0.9,0.3,1.9,0.5,2.9,0.5h84.1c1,0,2-0.2,2.9-0.5v14.9h-89.9C119.5,630.1,119.5,615.2,119.5,615.2z M657.5,648.6
			v19.5l0,0H68.2v-19.5H657.5z M603.2,615.7c1,0,2-0.2,2.9-0.5v14.9h-89.9v-14.9c0.9,0.3,1.9,0.5,2.9,0.5H603.2z M535.7,360.1h-7.3
			v-12.8H594v12.8h-7.3c-5.1,0-9.3,4.1-9.3,9.3V574c0,5.1,4.2,9.3,9.3,9.3h7.3v13.9h-65.6v-13.9h7.3c5.1,0,9.3-4.1,9.3-9.3V369.4
			C545,364.3,540.8,360.1,535.7,360.1z M606.1,328.8h-2.9l0,0l0,0h-87v-15.5h89.9V328.8z"/>
		<path d="M657.5,692.7H68.2c-13.6,0-24.6-11-24.6-24.6v-19.5c0-13.6,11-24.6,24.6-24.6H95v-12.7c0-8.3,4.9-15.7,12.2-19.2V580
			c0-10.1,7.1-18.6,16.6-20.8v-8.9c0-8.4,6.9-15.3,15.3-15.3s15.3,6.9,15.3,15.3V574c0,8.4-6.9,15.3-15.3,15.3h-1.3v1.9h53.6v-1.9
			h-1.3c-8.4,0-15.3-6.9-15.3-15.3V369.4c0-8.4,6.9-15.3,15.3-15.3h1.3v-0.8h-53.6v0.8h1.3c8.4,0,15.3,6.9,15.3,15.3v122.7
			c0,8.4-6.9,15.3-15.3,15.3s-15.3-6.9-15.3-15.3v-108c-9.5-2.1-16.6-10.6-16.6-20.8v-12C99.8,347.8,95,340.4,95,332v-53.9H54.3
			c-10.5,0-19.5-6.8-22.5-16.8c-3-10.1,1-20.7,9.8-26.4L349.6,36.9c8.1-5.1,18.4-5.1,26.5,0l43.2,27.8c3.4,2.2,5.8,5.6,6.7,9.6
			c0.9,4,0.1,8.1-2.1,11.5c-2.2,3.4-5.6,5.8-9.6,6.6c-4,0.9-8.1,0.1-11.5-2.1l-39.9-25.7l-284.4,183h27.3L346.1,93.1
			c10.2-6.6,23.4-6.6,33.6,0L620,247.6h27.3L452.1,122c-7.1-4.6-9.2-14.1-4.6-21.1c2.2-3.4,5.6-5.8,9.6-6.6c4-0.9,8.1-0.1,11.5,2.1
			L684.1,235c8.8,5.7,12.7,16.3,9.8,26.3c-2.9,10.1-12,16.8-22.5,16.8h-40.7V332c0,8.3-4.9,15.7-12.2,19.2v12.1
			c0,10.1-7.1,18.6-16.6,20.8v175.1c9.5,2.1,16.6,10.6,16.6,20.8v12c7.4,3.5,12.2,10.8,12.2,19.3V624h26.8c13.6,0,24.6,11,24.6,24.6
			v19.5C682.1,681.7,671.1,692.7,657.5,692.7z M68.2,636c-6.9,0-12.6,5.7-12.6,12.6v19.5c0,6.9,5.7,12.6,12.6,12.6h589.3
			c6.9,0,12.6-5.7,12.6-12.6v-19.5c0-6.9-5.7-12.6-12.6-12.6h-38.8v-24.7c0-4.4-3.1-8.2-7.5-9.1l-4.7-1V580c0-5.1-4.2-9.3-9.3-9.3
			h-7.3V372.6h7.3c5.1,0,9.3-4.2,9.3-9.3v-21.1l4.7-1c4.3-0.9,7.5-4.8,7.5-9.1v-65.9h52.7c4.5,0,8.4-2.5,10.3-6.5h-65.3L373.2,103.1
			c-6.3-4-14.3-4-20.6,0L109.3,259.6H44c1.9,4,5.8,6.5,10.3,6.5H107V332c0,4.4,3.1,8.2,7.5,9.1l4.7,1v21.2c0,5.1,4.2,9.3,9.3,9.3
			h7.3v119.5c0,1.9,1.4,3.3,3.3,3.3c1.9,0,3.3-1.4,3.3-3.3V369.4c0-1.8-1.5-3.3-3.3-3.3h-13.3v-24.8h77.6v24.8h-13.3
			c-1.9,0-3.3,1.4-3.3,3.3V574c0,1.8,1.5,3.3,3.3,3.3h13.3v25.9h-77.6v-25.9h13.3c1.9,0,3.3-1.4,3.3-3.3v-23.7
			c0-1.8-1.5-3.3-3.3-3.3c-1.9,0-3.3,1.4-3.3,3.3v20.4h-7.3c-5.1,0-9.3,4.2-9.3,9.3v21.1l-4.7,1c-4.3,0.9-7.5,4.8-7.5,9.1V636H68.2z
			 M362.8,45c-2.4,0-4.7,0.7-6.8,2L48.1,245c-3.8,2.4-5.7,6.7-5.2,11.1L362.8,50.4l46.4,29.9c0.9,0.6,1.8,0.6,2.4,0.4
			c0.9-0.2,1.6-0.7,2.1-1.5c1-1.5,0.5-3.5-1-4.5l-43.2-27.8C367.5,45.6,365.2,45,362.8,45z M460.3,105.9c-0.3,0-0.5,0-0.7,0.1
			c-0.9,0.2-1.6,0.7-2.1,1.5c-1,1.5-0.5,3.5,1,4.5l224.1,144.2c0.6-4.4-1.3-8.6-5.2-11.1L462.1,106.4
			C461.4,106,460.8,105.9,460.3,105.9z M663.5,674.1H62.2v-31.5h601.3V674.1z M74.2,662.1h577.3v-7.5H74.2V662.1z M612.1,636.1
			H510.2v-29.2l7.9,2.6c0.4,0.1,0.7,0.2,1,0.2h84.1c0.3,0,0.6-0.1,1-0.2l7.9-2.6V636.1z M522.2,624.1h77.9v-2.4h-77.9V624.1z
			 M413.9,636.1H312v-16.5l-6.6-2.2V636H222v-24.7c0-4.4-3.1-8.2-7.4-9l-4.8-1v-21.2c0-5.1-4.2-9.3-9.3-9.3h-7.3V372.6h7.3
			c5.1,0,9.3-4.2,9.3-9.3v-21.1l4.7-1c4.3-0.9,7.5-4.8,7.5-9.1v-24.7h83.4V332c0,4.4,3.1,8.2,7.5,9.1l4.7,1v21.2
			c0,5.1,4.2,9.3,9.3,9.3h7.3v198.1h-7.3c-5.1,0-9.3,4.2-9.3,9.3v21.1l-4.7,1c-3.6,0.8-6.4,3.6-7.2,7H324v0.5h80.9
			c0.2,0,0.6,0,1.3-0.2l7.7-2.3V636.1z M324,624.1h77.9v-2.4H324V624.1z M234,624h59.4v-10.7l-12.4-4.1h12.5
			c0.8-7.4,5.4-13.9,12.1-17.1V580c0-10.1,7.1-18.6,16.6-20.8V384.1c-9.5-2.1-16.6-10.6-16.6-20.8v-12c-7.4-3.5-12.2-10.8-12.2-19.3
			v-12.7H234V332c0,8.3-4.9,15.7-12.2,19.2v12.1c0,10.1-7.1,18.6-16.6,20.8v175.2c9.5,2.1,16.6,10.6,16.6,20.8v12
			c7.3,3.4,12.2,10.9,12.2,19.2V624z M215.4,636.1H113.5v-29.2l7.9,2.6c0.4,0.1,0.7,0.2,1,0.2h84.1c0.3,0,0.6-0.1,1-0.2l7.9-2.6
			V636.1z M125.5,624.1h77.9v-2.4h-77.9V624.1z M503.8,636h-83.4v-24.7c-0.1-4.3-3.2-8.2-7.4-9l-4.8-1v-21.2c0-5.1-4.2-9.3-9.3-9.3
			h-7.3V372.6h7.3c5.1,0,9.3-4.2,9.3-9.3v-21.1l4.7-1c4.3-0.9,7.5-4.8,7.5-9.1v-24.7h83.4V332c0,4.4,3.1,8.2,7.5,9.1l4.7,1v21.2
			c0,5.1,4.2,9.3,9.3,9.3h7.3v198.1h-7.3c-5.1,0-9.3,4.2-9.3,9.3v21.1l-4.7,1c-4.3,0.9-7.5,4.8-7.5,9.1V636z M432.4,624h59.4v-12.7
			c0-8.3,4.9-15.7,12.2-19.2V580c0-10.1,7.1-18.6,16.6-20.8V384.1c-9.5-2.1-16.6-10.6-16.6-20.8v-12c-7.4-3.5-12.2-10.8-12.2-19.3
			v-12.7h-59.4V332c0,8.3-4.9,15.7-12.2,19.2v12.1c0,10.1-7.1,18.6-16.6,20.8v175.2c9.5,2.1,16.6,10.6,16.6,20.8v12
			c7.2,3.4,12.1,10.8,12.2,19.1L432.4,624z M600,603.2h-77.6v-25.9h13.3c1.9,0,3.3-1.4,3.3-3.3V369.4c0-1.8-1.5-3.3-3.3-3.3h-13.3
			v-24.8H600v24.8h-13.3c-1.9,0-3.3,1.4-3.3,3.3V574c0,1.8,1.5,3.3,3.3,3.3H600V603.2z M534.4,591.2H588v-1.9h-1.3
			c-8.4,0-15.3-6.9-15.3-15.3V369.4c0-8.4,6.9-15.3,15.3-15.3h1.3v-0.8h-53.6v0.8h1.3c8.4,0,15.3,6.9,15.3,15.3V574
			c0,8.4-6.9,15.3-15.3,15.3h-1.3V591.2z M401.6,603.2H324v-25.9h13.3c1.9,0,3.3-1.4,3.3-3.3V369.4c0-1.9-1.4-3.3-3.3-3.3H324v-24.8
			h77.6v24.8h-13.3c-1.9,0-3.3,1.4-3.3,3.3V574c0,1.8,1.5,3.3,3.3,3.3h13.3V603.2z M336,591.2h53.6v-1.9h-1.3
			c-8.4,0-15.3-6.9-15.3-15.3V369.4c0-8.4,6.9-15.3,15.3-15.3h1.3v-0.8H336v0.8h1.3c8.4,0,15.3,6.9,15.3,15.3V574
			c0,8.4-6.9,15.3-15.3,15.3H336V591.2z M612.1,334.8H510.2v-27.5h101.9V334.8z M522.2,322.8h77.9v-3.5h-77.9V322.8z M413.8,334.8
			H311.9v-27.5h101.9V334.8z M323.9,322.8h77.9v-3.5h-77.9V322.8z M215.4,334.8H113.5v-27.5h101.9V334.8z M125.5,322.8h77.9v-3.5
			h-77.9V322.8z M612.1,300.8H113.5v-34.7h498.6V300.8z M125.5,288.8h474.6v-10.7H125.5V288.8z M604.3,259.6H121.4l234.6-151
			c4.1-2.7,9.4-2.7,13.6,0L604.3,259.6z M162.2,247.6h401.3l-200.3-129c-0.2-0.1-0.4-0.1-0.5-0.1l-0.1,0.1L162.2,247.6z"/>
	</g>
	<g>
		<path d="M366.8,181v-29c10,0.7,13.7,5.3,17.1,5.3c4.3,0,6.3-5.4,6.3-8.1c0-7-13.7-10-23.4-10.3v-3.8c0-1.7-2.1-3.3-4.3-3.3
			c-2.4,0-4.1,1.6-4.1,3.3v4.1c-13.5,1.4-27.1,8.5-27.1,26.5c0,18.2,14.2,23.4,27.1,27.9v33.5C343.8,226,340,216,335.3,216
			c-3.6,0-6.6,4.7-6.6,8.1c0,7,12,16.5,29.6,16.8v4.4c0,1.7,1.7,3.3,4.1,3.3c2.1,0,4.3-1.6,4.3-3.3v-4.8
			c15.4-2.1,25.9-11.8,25.9-29.3C392.7,191.8,379.1,185.5,366.8,181z M359.2,178.2c-7.6-2.9-13.7-5.8-13.7-14c0-7.4,5.7-11,13.7-12
			V178.2z M365.9,226.8v-30.1c7,3,12.5,7,12.5,16C378.4,220.8,373.6,225.4,365.9,226.8z"/>
	</g>
</g>
</svg>
