<?xml version="1.0" encoding="utf-8"?>
<!-- Generator: Adobe Illustrator 26.5.0, SVG Export Plug-In . SVG Version: 6.00 Build 0)  -->
<svg version="1.1" id="katman_1" xmlns="http://www.w3.org/2000/svg" xmlns:xlink="http://www.w3.org/1999/xlink" x="0px" y="0px"
	 viewBox="0 0 725.7 725.7" style="enable-background:new 0 0 725.7 725.7;" xml:space="preserve">
<style type="text/css">
	.st0{stroke:#000000;stroke-width:5;stroke-miterlimit:10;}
</style>
<g id="XMLID_45060_">
	<path id="XMLID_45061_" class="st0" d="M641.9,404.2c-39.8-34.1-98.9-48.7-175.8-43.4c50.1-34.2,83-91.7,83-156.8
		c0-104.6-85.1-189.7-189.7-189.7S169.7,99.4,169.7,204c0,61.9,29.8,116.9,75.7,151.5c-55.6-5.5-172.5-1.4-208,121.8
		c-0.4,1.3-0.6,2.6-0.6,4v215.4c0,8,6.4,14.4,14.4,14.4h623.2c8,0,14.4-6.5,14.4-14.4v-205c0-0.3,0-0.6,0-0.8
		C688.7,488.9,685.5,441.7,641.9,404.2z M196.8,204.1c0-89.6,72.9-162.6,162.6-162.6C449,41.5,522,114.4,522,204.1
		c0,89.4-72.5,162.2-161.8,162.6h-1.6C269.3,366.2,196.8,293.5,196.8,204.1z M356.6,424.4h13.9l20.6,42.5L363,521.6l-21-41.3
		L356.6,424.4z M339.5,395.5c0-5.3,4.4-9.7,9.7-9.7h27.3c5.3,0,9.7,4.4,9.7,9.7c0,5.4-4.4,9.7-9.7,9.7h-27.3
		C343.8,405.2,339.5,400.9,339.5,395.5z M390.1,420.9c9.1-4.9,15.3-14.3,15.3-25.3c0-2.5-0.4-4.9-1-7.2c11.4-2.8,22.4-6.6,33-11.4
		L402,445.5L390.1,420.9z M337.4,421.9l-8.6,32.7l-37.3-73.4c9.5,3.7,19.3,6.6,29.4,8.7c-0.4,1.9-0.6,3.8-0.6,5.7
		C320.3,407.3,327.3,417.3,337.4,421.9z M660,682.4H65.7V483.5c36.1-120.3,165.9-102.7,196.4-96.7l87.9,173
		c2.4,4.8,7.4,7.9,12.8,7.9l0,0c5.4,0,10.3-3,12.8-7.8l87.4-170c71.2-5.7,124.9,6.3,159.5,35.7c33.3,28.2,37.1,62.8,37.4,66.6
		L660,682.4L660,682.4z"/>
</g>
</svg>
