<svg xmlns="http://www.w3.org/2000/svg" height="20" viewBox="0 96 960 960" width="20"><path d="M374.692 642.038h94.615q25.137 0 42.703-17.566 17.566-17.566 17.566-42.703V410.308q0-25.137-17.566-42.703-17.566-17.566-42.703-17.566h-49.846q-25.137 0-42.703 17.566-17.566 17.566-17.566 42.703v61.346q0 25.341 17.566 42.805 17.566 17.463 42.703 17.463h62.154v49.847q0 5.385-3.461 8.847-3.462 3.462-8.847 3.462h-94.615v47.96Zm106.923-158.076h-62.154q-5.385 0-8.847-3.462-3.462-3.461-3.462-8.846v-61.346q0-5.385 3.462-8.847 3.462-3.462 8.847-3.462h49.846q5.385 0 8.847 3.462 3.461 3.462 3.461 8.847v73.654ZM310.269 795.999q-25.137 0-42.703-17.566-17.565-17.566-17.565-42.703V280.347q0-25.137 17.565-42.703 17.566-17.566 42.703-17.566h455.383q25.138 0 42.703 17.566 17.566 17.566 17.566 42.703V735.73q0 25.137-17.566 42.703-17.565 17.566-42.703 17.566H310.269Zm0-47.961h455.383q4.616 0 8.462-3.846 3.847-3.846 3.847-8.462V280.347q0-4.616-3.847-8.462-3.846-3.847-8.462-3.847H310.269q-4.615 0-8.462 3.847-3.846 3.846-3.846 8.462V735.73q0 4.616 3.846 8.462 3.847 3.846 8.462 3.846ZM194.348 911.92q-25.138 0-42.703-17.565-17.566-17.566-17.566-42.703V348.309h47.96v503.343q0 4.615 3.847 8.462 3.846 3.846 8.462 3.846h503.343v47.96H194.348Zm103.613-643.882v480V268.038Zm351.115 343.846h47.961v-79.962h70.923v-47.96h-70.923v-79.961h-47.961v79.961h-79.961v47.96h79.961v79.962Z"/></svg>