<?xml version="1.0" encoding="utf-8"?>
<!-- Generator: Adobe Illustrator 26.5.0, SVG Export Plug-In . SVG Version: 6.00 Build 0)  -->
<svg version="1.1" id="katman_1" xmlns="http://www.w3.org/2000/svg" xmlns:xlink="http://www.w3.org/1999/xlink" x="0px" y="0px"
	 viewBox="0 0 725.7 725.7" style="enable-background:new 0 0 725.7 725.7;" xml:space="preserve">
<style type="text/css">
	.st0{stroke:#000000;stroke-width:9;stroke-miterlimit:10;}
</style>
<g>
	<g>
		<path class="st0" d="M667.2,420.5h-10.1v-90.7c0-14.4-7.1-27.1-18.1-34.8v-12.4c0-17.9-14.6-32.5-32.5-32.5H599l28.8-42.2
			c9.6-14.2,6-33.5-8.2-43.2l-195.1-133c-6.9-4.7-15.1-6.4-23.3-4.8c-8.1,1.5-15.2,6.2-19.9,13L212.8,287.2h-46.9l11.3-114.5
			c0.1-1.3,1-2.4,2.1-2.8c14.6-5.5,27.2-15.8,35.6-28.9c0.7-1,1.9-1.6,3.2-1.5l73.5,7.3c5.3,0.5,10-3.3,10.5-8.6s-3.3-10-8.6-10.5
			l-73.5-7.3c-8.5-0.8-16.7,3.1-21.3,10.3c-6.1,9.7-15.4,17.2-26.2,21.2c-8.1,3-13.6,10.3-14.5,18.9l-11.5,116.4h-12.2l17.9-181.1
			c0.6-6.5,6.5-11.3,13-10.7l148.6,14.7c5.3,0.5,10-3.3,10.5-8.6c0.5-5.3-3.3-10-8.6-10.5L167.2,76.3c-17-1.7-32.3,10.8-34,27.9
			l-14.4,146H94.2c-17.9,0-32.5,14.6-32.5,32.5v8.4c-14.7,6.7-24.9,21.6-24.9,38.7v326.9c0,23.5,19.1,42.6,42.6,42.6h535.1
			c23.5,0,42.6-19.1,42.6-42.6V566h10.1c11.9,0,21.6-9.7,21.6-21.6V442.1C688.8,430.2,679.1,420.5,667.2,420.5L667.2,420.5z
			 M606.6,269.3c7.3,0,13.3,6,13.3,13.3v4.9c-1.8-0.2-3.6-0.4-5.4-0.4h-40.7l12.2-17.8H606.6z M397.2,50.7c1.8-2.6,4.5-4.4,7.6-5
			c0.7-0.1,1.5-0.2,2.2-0.2c2.4,0,4.7,0.7,6.7,2.1l195.2,133c5.4,3.7,6.8,11.1,3.1,16.5l-61.4,90h-14.7L566,243
			c4.9-7.2,5.3-16.3,1-23.8c-5.6-10-7.9-21.7-6.4-33.1c1.1-8.4-2.6-16.7-9.7-21.5l-101.2-69c-7.1-4.8-16.1-5.3-23.6-1.2
			c-10,5.5-21.8,7.7-33.1,6.1c-8.4-1.2-16.9,2.6-21.7,9.7l-120.6,177H236L397.2,50.7z M401.4,213.6c-41.8,0-76,32.6-78.8,73.6H274
			l113.2-166.1c0.6-0.9,1.7-1.5,2.8-1.5c0.1,0,0.3,0,0.4,0c15.4,2.2,31.4-0.8,45.1-8.3c1.1-0.6,2.5-0.5,3.5,0.2l101.2,69
			c1.1,0.7,1.6,2,1.5,3.2c-2,15.4,1.1,31.4,8.7,45c0.6,1.1,0.5,2.5-0.2,3.6l-37.4,55h-32.5C477.4,246.1,443.1,213.6,401.4,213.6
			L401.4,213.6z M461,287.2H341.8c2.7-30.5,28.4-54.4,59.6-54.4C432.6,232.7,458.2,256.7,461,287.2L461,287.2z M80.9,282.7
			c0-7.3,6-13.3,13.3-13.3h22.7l-1.8,17.8H80.9V282.7z M56,329.8c0-12.9,10.5-23.4,23.4-23.4h535.1c12.9,0,23.4,10.5,23.4,23.4v26.6
			H56V329.8z M638,656.7c0,12.9-10.5,23.4-23.4,23.4H79.5c-12.9,0-23.4-10.5-23.4-23.4v-26.6h51.7c5.3,0,9.6-4.3,9.6-9.6
			s-4.3-9.6-9.6-9.6H56V375.6h582v44.9h-91.2c-28.7,0-53.6,16.7-65.4,41c0,0.1-0.1,0.2-0.1,0.2c-0.1,0.2-0.2,0.4-0.3,0.6
			c-1.4,3-2.6,6.1-3.6,9.3l0,0c-2.1,6.8-3.3,14.1-3.3,21.6c0,40.1,32.6,72.7,72.7,72.7H638v44.9H169.2c-5.3,0-9.6,4.3-9.6,9.6
			s4.3,9.6,9.6,9.6H638V656.7z M669.6,544.4c0,1.3-1.1,2.4-2.4,2.4H546.8c-20.3,0-38-11.4-47.1-28c-0.4-0.8-0.8-1.5-1.2-2.3
			c-0.8-1.6-1.4-3.2-2-4.8c-2.1-5.7-3.3-11.9-3.3-18.4s1.1-12.7,3.3-18.4c0.6-1.6,1.3-3.2,2-4.8c0.4-0.8,0.8-1.5,1.2-2.3
			c9.1-16.7,26.8-28,47.1-28h120.4c1.3,0,2.4,1.1,2.4,2.4L669.6,544.4L669.6,544.4z"/>
	</g>
	<path class="st0" d="M549.1,454.4c-21.5,0-38.9,17.5-38.9,38.9c0,21.4,17.5,38.9,38.9,38.9s38.9-17.5,38.9-38.9
		C588,471.8,570.5,454.4,549.1,454.4L549.1,454.4z M549.1,513c-10.9,0-19.7-8.9-19.7-19.7c0-10.9,8.9-19.7,19.7-19.7
		s19.7,8.9,19.7,19.7S559.9,513,549.1,513L549.1,513z"/>
</g>
</svg>
