<?xml version="1.0" encoding="utf-8"?>
<!-- Generator: Adobe Illustrator 26.5.0, SVG Export Plug-In . SVG Version: 6.00 Build 0)  -->
<svg version="1.1" id="katman_1" xmlns="http://www.w3.org/2000/svg" xmlns:xlink="http://www.w3.org/1999/xlink" x="0px" y="0px"
	 viewBox="0 0 20 20" enable-background="new 0 0 20 20" xml:space="preserve">
<g>
	<path stroke="#000000" stroke-width="0.25" stroke-miterlimit="10" d="M5.2,5.9h6.5c0.2,0,0.4-0.2,0.4-0.4c0-0.2-0.2-0.4-0.4-0.4
		H5.2C5,5.1,4.8,5.3,4.8,5.5C4.8,5.7,5,5.9,5.2,5.9z"/>
	<path stroke="#000000" stroke-width="0.25" stroke-miterlimit="10" d="M5.2,8.9h6.5c0.2,0,0.4-0.2,0.4-0.4S12,8,11.7,8H5.2
		C5,8,4.8,8.2,4.8,8.5S5,8.9,5.2,8.9z"/>
	<path stroke="#000000" stroke-width="0.25" stroke-miterlimit="10" d="M9.3,11H5.2c-0.2,0-0.4,0.2-0.4,0.4s0.2,0.4,0.4,0.4h4.1
		c0.2,0,0.4-0.2,0.4-0.4S9.6,11,9.3,11z"/>
	<path stroke="#000000" stroke-width="0.25" stroke-miterlimit="10" d="M8.5,14H5.2c-0.2,0-0.4,0.2-0.4,0.4c0,0.2,0.2,0.4,0.4,0.4
		h3.3c0.2,0,0.4-0.2,0.4-0.4C8.9,14.2,8.7,14,8.5,14z"/>
	<path stroke="#000000" stroke-width="0.15" stroke-miterlimit="10" d="M14.3,10.5V4.1c0-0.8-0.7-1.5-1.5-1.5H4.1
		c-0.8,0-1.5,0.7-1.5,1.5v11.7c0,0.8,0.7,1.5,1.5,1.5h7.6c0.7,0.5,1.5,0.8,2.4,0.8c2.1,0,3.9-1.7,3.9-3.9
		C18,12.3,16.4,10.6,14.3,10.5z M3.4,15.8V4.1c0-0.4,0.3-0.7,0.7-0.7h8.7c0.4,0,0.7,0.3,0.7,0.7v6.4c-1.8,0.3-3.3,1.9-3.3,3.8
		c0,0.8,0.3,1.6,0.7,2.2H4.1C3.7,16.5,3.4,16.2,3.4,15.8z M14.1,17.3c-1.6,0-3-1.3-3-3s1.3-3,3-3c1.6,0,3,1.3,3,3
		S15.8,17.3,14.1,17.3z"/>
	<path display="none" d="M15.2,12.8c-0.3-0.2-0.5-0.3-0.9-0.3c-0.3,0-0.6,0-1,0.2c-0.3,0.1-0.6,0.3-0.8,0.6
		c-0.2,0.3-0.3,0.5-0.4,0.9c0,0.3,0,0.6,0.2,1c0.1,0.3,0.3,0.6,0.6,0.8c0.3,0.2,0.6,0.3,0.9,0.3c0.3,0,0.7,0,1.1-0.2
		c0.3-0.1,0.5-0.3,0.7-0.5c0.2-0.2,0.3-0.4,0.4-0.6l-0.7-0.3c-0.1,0.2-0.2,0.3-0.3,0.4c-0.1,0.1-0.2,0.2-0.4,0.3
		c-0.2,0.1-0.4,0.1-0.6,0.1c-0.2,0-0.3-0.1-0.5-0.2c-0.1-0.1-0.1-0.1-0.2-0.2l2.5-1.1c0,0,0-0.1,0-0.1c0,0,0-0.1,0-0.1
		C15.7,13.3,15.5,13,15.2,12.8z M13.4,13.7c0.1-0.1,0.2-0.2,0.4-0.3c0.2-0.1,0.3-0.1,0.5-0.1c0.2,0,0.3,0.1,0.4,0.2
		c0.1,0.1,0.1,0.2,0.2,0.3l-1.6,0.7c0-0.1-0.1-0.2-0.1-0.3C13.2,13.9,13.3,13.8,13.4,13.7z"/>
	<g>
		<path d="M15,16.1c-0.9,0.4-2,0-2.5-0.9c-0.5-1-0.1-2.1,0.8-2.5c1.1-0.6,2.1,0.3,2.3,0.7c0.1,0.1,0.2,0.3-0.1,0.5l-2.3,1.1
			c0.3,0.6,1,0.8,1.5,0.6c0.2-0.1,0.4-0.3,0.5-0.5c0.1-0.2,0.3-0.3,0.5-0.2c0.2,0.1,0.3,0.3,0.2,0.4C15.7,15.6,15.4,15.9,15,16.1z
			 M13,14.3l1.8-0.9c-0.4-0.3-0.8-0.4-1.2-0.2C13.2,13.4,13,13.8,13,14.3z"/>
	</g>
</g>
</svg>
