<?xml version="1.0" encoding="utf-8"?>
<!-- Generator: Adobe Illustrator 26.5.0, SVG Export Plug-In . SVG Version: 6.00 Build 0)  -->
<svg version="1.1" id="katman_1" xmlns="http://www.w3.org/2000/svg" xmlns:xlink="http://www.w3.org/1999/xlink" x="0px" y="0px"
	 viewBox="0 0 725.7 725.7" style="enable-background:new 0 0 725.7 725.7;" xml:space="preserve">
<g>
	<g>
		<g>
			<path d="M682.6,247.3L550.8,115.5c-4-4-9.3-6.2-15-6.2c-5.7,0-11,2.2-15,6.2l-49.4,49.4c-4,4-6.2,9.3-6.2,15c0,5.7,2.2,11,6.2,15
				l1.5,1.5L417,252.3l-89.6-10.4c-21.3-2.5-41.3-12.2-56.4-27.3l-18.2-18.2l1.5-1.5c4-4,6.2-9.3,6.2-15c0-5.7-2.2-11-6.2-15
				l-49.4-49.4c-4-4-9.3-6.2-15-6.2c-5.7,0-11,2.2-15,6.2L43.1,247.3c-8.3,8.3-8.3,21.7,0,30l49.4,49.4c4.1,4.1,9.6,6.2,15,6.2
				c5.4,0,10.9-2.1,15-6.2l1.5-1.5l20.7,20.7c14.2,14.2,25.1,31.8,31.5,50.9l3.8,11.5c7.3,21.9,19.8,42.1,36.1,58.4l2.5,2.5
				c-2.5,4.7-3.9,10-3.9,15.5c0,8.8,3.4,17,9.6,23.2c6.4,6.4,14.8,9.6,23.2,9.6c0,0,0.1,0,0.1,0c0,0,0,0.1,0,0.1
				c0,8.8,3.4,17,9.6,23.2c6.4,6.4,14.8,9.6,23.2,9.6c0,0,0.1,0,0.1,0c0,8.5,3.2,16.9,9.6,23.3c6.2,6.2,14.5,9.6,23.2,9.6
				c0,0,0.1,0,0.1,0c0,8.4,3.2,16.9,9.6,23.3c6.4,6.4,14.8,9.6,23.2,9.6c8.4,0,16.8-3.2,23.2-9.6l16.5-16.5
				c3.6-3.6,6.2-7.9,7.8-12.5c5.5,3.7,12,5.6,18.4,5.6c8.4,0,16.8-3.2,23.2-9.6c6.2-6.2,9.6-14.5,9.6-23.2c0,0,0-0.1,0-0.1h0.1
				c8.8,0,17-3.4,23.2-9.6c6.2-6.2,9.6-14.5,9.6-23.2c0,0,0-0.1,0-0.1c0.9,0,1.8,0,2.8-0.1c9.6-0.8,18.4-5.8,24.1-13.7
				c7.2-9.9,7.6-23.3,2-34.3l2.7-2.7c16.3-16.3,28.8-36.5,36.1-58.4l3.8-11.5c6.4-19.1,17.2-36.7,31.5-50.9l20.7-20.7l1.5,1.5
				c4.1,4.1,9.6,6.2,15,6.2c5.4,0,10.9-2.1,15-6.2l49.4-49.4C690.9,269,690.9,255.6,682.6,247.3L682.6,247.3z M106,313.2l-49.4-49.4
				c-0.8-0.8-0.8-2.2,0-3L188.4,129c0.5-0.5,1.1-0.6,1.5-0.6c0.4,0,1,0.1,1.5,0.6l49.4,49.4c0.5,0.5,0.6,1.1,0.6,1.5
				c0,0.4-0.1,1-0.6,1.5L109,313.2C108.1,314,106.8,314,106,313.2L106,313.2z M237.8,494.4c-2.6-2.6-4-6-4-9.7c0-3.7,1.4-7.1,4-9.7
				l16.5-16.5c2.6-2.6,6-4,9.7-4s7.1,1.4,9.7,4c2.6,2.6,4,6,4,9.7c0,3.7-1.4,7.1-4,9.7l-16.5,16.5
				C251.9,499.8,243.2,499.8,237.8,494.4L237.8,494.4z M270.7,527.4c-2.6-2.6-4-6-4-9.7c0-3.7,1.4-7.1,4-9.7l16.5-16.5
				c2.6-2.6,6-4,9.7-4c3.7,0,7.1,1.4,9.7,4c5.4,5.4,5.4,14.1,0,19.4l-16.5,16.5C284.8,532.8,276.1,532.8,270.7,527.4L270.7,527.4z
				 M313.4,564.4c-3.7,0-7.1-1.4-9.7-4c-5.4-5.4-5.4-14.1,0-19.4l16.5-16.5c2.7-2.7,6.2-4,9.7-4c3.5,0,7,1.3,9.7,4
				c2.6,2.6,4,6,4,9.7c0,3.7-1.4,7.1-4,9.7l-16.5,16.5C320.5,562.9,317.1,564.4,313.4,564.4L313.4,564.4z M372.6,576.8l-16.5,16.5
				c-5.4,5.4-14.1,5.4-19.4,0c-5.4-5.4-5.4-14.1,0-19.4l16.5-16.5c5.4-5.4,14.1-5.4,19.4,0C377.9,562.7,377.9,571.5,372.6,576.8
				L372.6,576.8z M567.5,332.4c-16.3,16.3-28.8,36.5-36.1,58.4l-3.8,11.5c-6.4,19.1-17.2,36.7-31.5,50.9l-1.5,1.5l-67.4-67.4
				c-3.7-3.7-9.8-3.7-13.5,0c-3.7,3.7-3.7,9.8,0,13.5l73.3,73.3l0,0c5.2,5.2,6.3,13.2,2.4,18.5c-2.5,3.4-6.1,5.5-10.1,5.8
				c-4,0.3-8-1.1-10.8-4L419,445c-3.7-3.7-9.8-3.7-13.5,0c-3.7,3.7-3.7,9.8,0,13.5l49.4,49.4c2.6,2.6,4,6,4,9.7c0,3.7-1.4,7.1-4,9.7
				c-2.6,2.6-6,4-9.7,4c-3.7,0-7.1-1.4-9.7-4L386.1,478c-3.7-3.7-9.8-3.7-13.5,0c-3.7,3.7-3.7,9.8,0,13.5l49.4,49.4
				c2.6,2.6,4,6,4,9.7c0,3.7-1.4,7.1-4,9.7c-5.4,5.4-14.1,5.4-19.4,0l-16.5-16.5c-6.4-6.4-14.9-9.6-23.3-9.6c0,0,0-0.1,0-0.1
				c0-8.8-3.4-17-9.6-23.2c-6.4-6.4-14.9-9.6-23.3-9.6c0-8.5-3.2-16.9-9.6-23.3c-6.2-6.2-14.5-9.6-23.2-9.6c0,0-0.1,0-0.1,0
				c0,0,0-0.1,0-0.1c0-8.8-3.4-17-9.6-23.2c-12.8-12.8-33.7-12.8-46.5,0l-9.7,9.7l-1.5-1.5c-14.2-14.2-25.1-31.8-31.5-50.9
				l-3.8-11.5c-7.3-21.9-19.8-42.1-36.1-58.4l-20.7-20.7l101.8-101.8l18.2,18.2c18.2,18.2,42.2,29.8,67.7,32.7l74.5,8.6L290.2,379.1
				c-8.3,8.3-8.3,21.7,0,30c8.4,8.4,19.6,13,31.5,13c11.9,0,23.1-4.6,31.5-13l39.2-39.2c4.8-4.8,11.2-7.4,18-7.4h34.9
				c5.3,0,9.6-4.3,9.6-9.6c0-5.3-4.3-9.6-9.6-9.6h-34.9c-11.9,0-23.1,4.6-31.5,13l-39.2,39.2c-4.8,4.8-11.2,7.4-18,7.4
				s-13.2-2.6-18-7.4c-0.5-0.5-0.6-1.1-0.6-1.5c0-0.4,0.1-1,0.6-1.5l182.7-182.7l101.8,101.8L567.5,332.4z M669.1,263.8l-49.4,49.4
				c-0.8,0.8-2.1,0.8-3,0L484.9,181.4c-0.5-0.5-0.6-1.1-0.6-1.5c0-0.4,0.1-1,0.6-1.5l49.4-49.4c0.5-0.5,1.1-0.6,1.5-0.6
				c0.4,0,1,0.1,1.5,0.6l131.8,131.8C669.9,261.6,669.9,263,669.1,263.8L669.1,263.8z M669.1,263.8"/>
			<path d="M346.4,622.4c-10.4,0-20.1-4-27.5-11.4c-6-6-9.8-13.7-11-22c-8.3-1.2-16-5-22-11c-6-6-9.8-13.7-11-22
				c-8.3-1.2-16-5-22-11c-6-6-9.8-13.7-11-22c-8.3-1.2-15.9-5-22-11c-7.3-7.3-11.4-17.1-11.4-27.5c0-4.9,0.9-9.7,2.7-14.2
				c-16.7-16.9-29.5-37.7-37.1-60.2l-3.8-11.5c-6.1-18.2-16.4-35-30-48.6l-16.7-16.7c-4.7,3.5-10.3,5.4-16.3,5.4
				c-7.3,0-14.1-2.8-19.2-8l-49.4-49.4c-5.1-5.1-8-12-8-19.2c0-7.3,2.8-14.1,8-19.2l131.8-131.8c5.1-5.1,12-8,19.2-8
				c7.3,0,14.1,2.8,19.2,8l49.4,49.4c5.1,5.1,8,12,8,19.2c0,5.9-1.9,11.6-5.4,16.3l14.2,14.2c14.2,14.2,33,23.3,52.9,25.6l86.7,10
				l49.8-49.8c-3.5-4.7-5.4-10.3-5.4-16.3c0-7.3,2.8-14.1,8-19.2l49.4-49.4c5.1-5.1,12-8,19.2-8c7.3,0,14.1,2.8,19.2,8l131.8,131.8
				c5.1,5.1,8,12,8,19.2c0,7.3-2.8,14.1-8,19.2L637.4,331c-5.1,5.1-12,8-19.2,8c-6,0-11.6-1.9-16.3-5.4l-16.7,16.7
				c-13.6,13.6-23.9,30.3-30,48.6l-3.8,11.5c-7.5,22.7-20.5,43.6-37.3,60.5c4.7,12.3,3.1,26.2-4.3,36.5
				c-6.3,8.7-15.7,14.4-26.1,15.9c-1.2,8.3-5,15.9-11,22c-6,6-13.7,9.8-22,11c-1.2,8.3-5,15.9-11,22c-7.3,7.3-17.1,11.4-27.5,11.4
				c-5.4,0-10.7-1.1-15.6-3.3c-1.7,3-3.8,5.8-6.4,8.4L373.8,611C366.5,618.4,356.7,622.4,346.4,622.4z M280.6,544.5h6l0,6
				c0,7.2,2.8,14,7.8,19.1c5.1,5.1,11.8,7.9,19,7.9h6.1l0,6c0,7.2,2.8,14,7.8,19.1c5.1,5.1,11.8,7.8,19,7.8c7.2,0,13.9-2.8,19-7.8
				l16.5-16.5c2.9-2.9,5.1-6.3,6.4-10.2l2.5-7.4l6.5,4.4c4.4,3,9.6,4.6,15,4.6c7.2,0,13.9-2.8,19-7.8c5.1-5.1,7.9-11.8,7.9-19v-6.1
				h6c7.3,0,14-2.8,19.1-7.9c5.1-5.1,7.9-11.8,7.9-19v-6.1h6c0.8,0,1.5,0,2.3-0.1c7.9-0.6,15.1-4.7,19.7-11.2
				c5.6-7.8,6.2-18.8,1.5-28.1l-2-3.9l5.8-5.8c15.7-15.7,27.6-35,34.6-56l3.8-11.5c6.7-20,18-38.4,32.9-53.3l24.9-24.9l5.7,5.7
				c2.9,2.9,6.7,4.5,10.8,4.5c4.1,0,7.9-1.6,10.7-4.4l49.4-49.4c2.9-2.9,4.4-6.7,4.4-10.8c0-4.1-1.6-7.9-4.4-10.7L546.6,119.7
				c-2.9-2.9-6.7-4.5-10.7-4.5c-4.1,0-7.9,1.6-10.7,4.5l-49.4,49.4c-2.9,2.9-4.5,6.7-4.5,10.7c0,4.1,1.6,7.9,4.4,10.7l5.7,5.7
				l-62.2,62.2l-92.5-10.7c-22.6-2.6-43.9-12.9-60-29l-22.5-22.5l5.7-5.7c2.9-2.9,4.5-6.7,4.5-10.7c0-4.1-1.6-7.9-4.5-10.7
				l-49.4-49.4c-2.9-2.9-6.7-4.4-10.7-4.4c-4.1,0-7.9,1.6-10.8,4.5L47.3,251.6c-2.9,2.9-4.4,6.7-4.4,10.7s1.6,7.9,4.4,10.7
				l49.4,49.4c2.9,2.9,6.7,4.4,10.7,4.4c4.1,0,7.9-1.6,10.8-4.4l5.7-5.7l25,25c14.9,14.9,26.3,33.3,32.9,53.3l3.8,11.5
				c7,21,19,40.4,34.6,56l5.6,5.6l-2.1,3.9c-2.1,3.9-3.1,8.2-3.1,12.6c0,7.2,2.8,13.9,7.9,19c5.1,5.1,11.8,7.8,19,7.8h6.1v6.1
				c0,7.2,2.8,13.9,7.9,19c5,5,11.7,7.8,18.8,7.9C280.4,544.5,280.5,544.5,280.6,544.5z M346.4,603.3c-5.1,0-10.1-1.9-14-5.8
				c-7.7-7.7-7.7-20.2,0-27.9l16.5-16.5c7.7-7.7,20.2-7.7,27.9,0c7.7,7.7,7.7,20.2,0,27.9l-16.5,16.5
				C356.5,601.4,351.4,603.3,346.4,603.3z M362.8,559.3c-2,0-4,0.8-5.5,2.3l-16.5,16.5c-3,3-3,7.9,0,11c3,3,7.9,3,11,0l16.5-16.5
				c3-3,3-7.9,0-11C366.8,560.1,364.8,559.3,362.8,559.3z M313.4,570.4c-5.3,0-10.2-2.1-14-5.8c-7.7-7.7-7.7-20.2,0-27.9l16.5-16.5
				c3.7-3.7,8.7-5.8,14-5.8c5.3,0,10.2,2.1,14,5.8c3.7,3.7,5.8,8.7,5.8,14c0,5.3-2.1,10.2-5.8,14l-16.5,16.5
				C323.7,568.3,318.7,570.4,313.4,570.4z M329.9,526.4c-2.1,0-4,0.8-5.5,2.3l-16.5,16.5c-3,3-3,7.9,0,11c1.5,1.5,3.4,2.3,5.5,2.3
				c2.1,0,4-0.8,5.5-2.3l16.5-16.5c1.5-1.5,2.3-3.4,2.3-5.5c0-2.1-0.8-4-2.3-5.5C333.9,527.2,332,526.4,329.9,526.4z M412.3,570.4
				c-5.3,0-10.2-2.1-14-5.8l-16.5-16.5c-5.1-5.1-11.8-7.8-19-7.8c0,0-0.1,0-0.1,0l-6,0v-6.1c0-7.2-2.8-13.9-7.9-19
				c-5.1-5.1-11.8-7.8-19-7.8c0,0-0.1,0-0.1,0l-6,0l0-6c0-7.2-2.8-14-7.8-19.1c-5-5-11.7-7.8-18.8-7.9c-0.1,0-0.2,0-0.3,0h-6v-6.1
				c0-7.2-2.8-13.9-7.9-19c-5.1-5.1-11.8-7.9-19-7.9c-7.2,0-13.9,2.8-19,7.9l-14,14l-5.7-5.7c-14.9-14.9-26.3-33.3-32.9-53.3
				l-3.8-11.5c-7-21-19-40.4-34.6-56l-25-25l110.3-110.3l22.5,22.5c17.2,17.2,40,28.2,64.2,31l86.9,10.1L294.4,383.4
				c-5.9,5.9-5.9,15.6,0,21.5c7.3,7.3,16.9,11.3,27.2,11.3c10.3,0,20-4,27.2-11.3l39.2-39.2c5.9-5.9,13.8-9.2,22.2-9.2h34.9
				c2,0,3.6-1.6,3.6-3.6s-1.6-3.6-3.6-3.6h-34.9c-10.3,0-20,4-27.2,11.3l-39.2,39.2c-5.9,5.9-13.8,9.2-22.2,9.2
				c-8.4,0-16.3-3.3-22.2-9.2c-1.5-1.5-2.4-3.6-2.4-5.7c0-2.2,0.9-4.2,2.4-5.8l186.9-186.9l110.3,110.3l-25,25
				c-15.7,15.7-27.6,35-34.6,56l-3.8,11.5c-6.7,20-18,38.4-32.9,53.3l-5.7,5.7L423,391.6c-1.4-1.4-3.6-1.4-5,0c-1.4,1.4-1.4,3.6,0,5
				l73.3,73.2c7.3,7.3,8.6,18.6,3.1,26.3c-3.5,4.9-8.7,7.8-14.5,8.3c-5.8,0.5-11.5-1.6-15.6-5.7l-49.4-49.4c-1.3-1.3-3.7-1.3-5,0
				c-1.4,1.4-1.4,3.6,0,5l49.4,49.4c3.7,3.7,5.8,8.7,5.8,14c0,5.3-2.1,10.2-5.8,14c-3.7,3.7-8.7,5.8-14,5.8c-5.3,0-10.2-2.1-14-5.8
				l-49.4-49.4c-1.4-1.4-3.6-1.4-5,0c-0.7,0.7-1,1.6-1,2.5s0.4,1.8,1,2.5l49.4,49.4c3.7,3.7,5.8,8.7,5.8,14c0,5.3-2.1,10.2-5.8,14
				C422.5,568.3,417.6,570.4,412.3,570.4z M368.4,528.6c8.3,1.2,15.9,5,22,11l16.5,16.5c1.5,1.5,3.4,2.3,5.5,2.3s4-0.8,5.5-2.3
				c1.5-1.5,2.3-3.4,2.3-5.5c0-2.1-0.8-4-2.3-5.5l-49.4-49.4c-2.9-2.9-4.6-6.8-4.6-11s1.6-8.1,4.6-11c6.1-6.1,15.9-6.1,22,0
				l49.4,49.4c1.5,1.5,3.4,2.3,5.5,2.3c2.1,0,4-0.8,5.5-2.3c1.5-1.5,2.3-3.4,2.3-5.5c0-2.1-0.8-4-2.3-5.5l-49.4-49.4
				c-6.1-6.1-6.1-15.9,0-22c2.9-2.9,6.8-4.6,11-4.6s8.1,1.6,11,4.6l49.4,49.4c1.6,1.6,3.8,2.4,6.1,2.2c2.3-0.2,4.3-1.3,5.8-3.3
				c2.1-2.9,1.3-7.6-1.8-10.8l-73.3-73.3c-6.1-6.1-6.1-15.9,0-22c6.1-6.1,15.9-6.1,22,0l63.1,63.1c12.2-13,21.6-28.8,27.3-45.8
				l3.8-11.5c7.6-22.8,20.6-43.8,37.5-60.7l16.5-16.5l-93.3-93.3L311,393.8c3.1,2.1,6.8,3.2,10.7,3.2c5.2,0,10-2,13.7-5.7l39.2-39.2
				c9.5-9.5,22.2-14.8,35.7-14.8h34.9c8.6,0,15.6,7,15.6,15.6s-7,15.5-15.6,15.5h-34.9c-5.2,0-10.1,2-13.7,5.7l-39.2,39.2
				c-9.5,9.5-22.2,14.8-35.7,14.8c-13.5,0-26.2-5.3-35.7-14.8c-10.6-10.6-10.6-27.9,0-38.5L386.8,274l-62.2-7.2
				c-26.9-3.1-52.2-15.3-71.3-34.5l-14-14l-93.3,93.3l16.5,16.5c17,17,29.9,38,37.5,60.7l3.8,11.5c5.7,17,15.1,32.7,27.3,45.8
				l5.4-5.4c7.3-7.3,17.1-11.4,27.5-11.4s20.1,4,27.5,11.4c6,6,9.8,13.7,11,22c8.3,1.2,15.9,5,22,11c6,6,9.8,13.7,11,22
				c8.3,1.2,16,5,22,11C363.4,512.7,367.2,520.4,368.4,528.6z M308,396.8L308,396.8C308,396.9,308,396.8,308,396.8z M280.5,537.4
				c-5.3,0-10.2-2.1-14-5.8c-3.7-3.7-5.8-8.7-5.8-14c0-5.3,2.1-10.2,5.8-14l16.5-16.5c3.7-3.7,8.7-5.8,14-5.8c5.3,0,10.2,2.1,14,5.8
				c7.7,7.7,7.7,20.2,0,27.9l-16.5,16.5C290.7,535.4,285.8,537.4,280.5,537.4z M296.9,493.4c-2.1,0-4,0.8-5.5,2.3L275,512.2
				c-1.5,1.5-2.3,3.4-2.3,5.5c0,2.1,0.8,4,2.3,5.5c1.5,1.5,3.4,2.3,5.5,2.3c2.1,0,4-0.8,5.5-2.3l16.5-16.5c3-3,3-7.9,0-11
				C301,494.2,299,493.4,296.9,493.4z M247.5,504.5c-5.1,0-10.1-1.9-14-5.8l0,0c-3.7-3.7-5.8-8.7-5.8-14c0-5.3,2.1-10.2,5.8-14
				l16.5-16.5c3.7-3.7,8.7-5.8,14-5.8c5.3,0,10.2,2.1,14,5.8c3.7,3.7,5.8,8.7,5.8,14s-2.1,10.2-5.8,14l-16.5,16.5
				C257.6,502.5,252.6,504.5,247.5,504.5z M242,490.2c3,3,7.9,3,11,0l16.5-16.5c1.5-1.5,2.3-3.4,2.3-5.5c0-2.1-0.8-4-2.3-5.5
				c-1.5-1.5-3.4-2.3-5.5-2.3c-2.1,0-4,0.8-5.5,2.3L242,479.2c-1.5,1.5-2.3,3.4-2.3,5.5C239.8,486.8,240.6,488.7,242,490.2z
				 M618.2,319.8c-2.2,0-4.2-0.8-5.7-2.4L480.7,185.7c-1.5-1.6-2.4-3.6-2.4-5.7c0-2.1,0.8-4.2,2.3-5.7l49.5-49.4
				c1.5-1.5,3.5-2.4,5.7-2.4c2.2,0,4.2,0.8,5.7,2.4l131.8,131.8c3.1,3.2,3.1,8.3,0,11.4l0,0l-49.4,49.4
				C622.4,319,620.4,319.8,618.2,319.8C618.2,319.8,618.2,319.8,618.2,319.8z M615.5,309C615.5,309,615.4,309,615.5,309L615.5,309z
				 M621,308.9L621,308.9C621,309,621,309,621,308.9z M491.9,179.9l126.3,126.3l43.9-43.9L535.8,136L491.9,179.9z M538.6,133.2
				L538.6,133.2C538.6,133.3,538.6,133.2,538.6,133.2z M107.5,319.8c-2.2,0-4.2-0.8-5.7-2.4L52.3,268c-3.2-3.2-3.1-8.3,0-11.5
				l131.8-131.8c1.5-1.5,3.5-2.4,5.7-2.4c2.2,0,4.2,0.9,5.8,2.4l49.4,49.4c1.5,1.6,2.4,3.6,2.4,5.7c0,2.1-0.8,4.2-2.3,5.7
				L113.2,317.5C111.7,319,109.7,319.8,107.5,319.8C107.5,319.8,107.5,319.8,107.5,319.8z M104.7,309C104.7,309,104.7,309,104.7,309
				L104.7,309z M63.6,262.3l43.9,43.9l126.3-126.3L189.9,136L63.6,262.3z M187.1,133.3C187.1,133.3,187.1,133.3,187.1,133.3
				L187.1,133.3z M192.6,133.2L192.6,133.2C192.6,133.3,192.6,133.2,192.6,133.2z"/>
		</g>
	</g>
</g>
</svg>
