<svg xmlns="http://www.w3.org/2000/svg" height="20" viewBox="0 96 960 960" width="20"><path d="M187.162 899.884q-44.858 0-76.336-31.47-31.478-31.469-31.478-76.493 0-27.459 12.846-50.709 12.847-23.25 35.154-39.03V539.924h101.77v-182h246.689l167.81 360.66q7.575 13.147 12.017 28.961 4.442 15.814 4.442 32.352 0 50.442-34.868 85.215-34.869 34.772-85.122 34.772-36.078 0-65.466-19.596-29.389-19.596-44.431-52.404H288.424q-10.855 32.615-38.346 52.308-27.49 19.692-62.916 19.692Zm524.953-48v-551.96h47.96v504h120.769v47.96H712.115Zm-524.89.04q25.061 0 42.592-17.428t17.531-42.489q0-25.061-17.467-42.592t-42.585-17.531q-25.118 0-42.553 17.467t-17.435 42.585q0 25.118 17.428 42.553 17.429 17.435 42.489 17.435Zm352.746 0q29.875 0 51.01-21.009 21.135-21.01 21.135-50.886 0-29.875-21.105-51.01-21.106-21.135-50.982-21.135-29.875 0-50.914 21.105-21.039 21.106-21.039 50.982 0 29.875 21.009 50.914 21.01 21.039 50.886 21.039Zm-243.547-72h124.335q.434-19.885 6.569-38.616 6.135-18.732 18.404-33.424h-85.461l-126.115-120h-58.848v97.578q2.924-.577 5.674-1.057 2.75-.481 6.25-.481 41.919 0 73.128 27.288 31.209 27.289 36.064 68.712Zm82.713-120.308h166.478q4.808 0 9.616 1.154t9.616 3.462L446.001 405.885H277.078v157.039l102.059 96.692Zm-18.866 48.268-19.5-18.904q-19.5-18.904-43.307-41.404-23.807-22.5-43.525-41.096l-19.719-18.596h-58.912 58.848l126.115 120h85.461-85.461Z"/></svg>