<svg xmlns="http://www.w3.org/2000/svg" height="20" viewBox="0 96 960 960" width="20"><path d="M171.271 872.535V482.308q-21.039-2.808-34.116-21.173-13.077-18.365-13.077-39.697V303.531q0-25.089 17.566-42.655 17.566-17.566 42.619-17.566h591.474q25.053 0 42.619 17.566t17.566 42.655v117.907q0 21.332-13.077 39.697-13.077 18.365-34.116 21.173v390.153q0 25.437-17.565 42.853-17.566 17.415-42.612 17.415H231.448q-25.046 0-42.612-17.565-17.565-17.566-17.565-42.629Zm47.96-390.92v390.846q0 5.385 3.462 8.846 3.461 3.462 8.846 3.462h496.922q5.385 0 8.846-3.462 3.462-3.461 3.462-8.846V481.615H219.231Zm556.422-47.96q5.385 0 8.847-3.462 3.462-3.461 3.462-8.846V303.579q0-5.385-3.462-8.847-3.462-3.461-8.847-3.461H184.347q-5.385 0-8.847 3.461-3.462 3.462-3.462 8.847v117.768q0 5.385 3.462 8.846 3.462 3.462 8.847 3.462h591.306ZM394.116 633.268h171.768v-47.96H394.116v47.96ZM219.231 884.769V481.615v403.154Z"/></svg>