<?xml version="1.0" encoding="utf-8"?>
<!-- Generator: Adobe Illustrator 26.5.0, SVG Export Plug-In . SVG Version: 6.00 Build 0)  -->
<svg version="1.1" id="katman_1" xmlns="http://www.w3.org/2000/svg" xmlns:xlink="http://www.w3.org/1999/xlink" x="0px" y="0px"
	 viewBox="0 0 725.7 725.7" style="enable-background:new 0 0 725.7 725.7;" xml:space="preserve">
<style type="text/css">
	.st0{fill:#4F4F4F;}
</style>
<g>
	<path class="st0" d="M680.8,284.7l-45.2-64.9c-8.3-12-22-19.1-36.6-19.1c-3.5,0-147,0-151.4,0v-74.3c0-24.6-20-44.6-44.6-44.6H81.4
		c-24.6,0-44.6,20-44.6,44.6v415.4c0,24.6,20,44.6,44.6,44.6h40.2c8.5,32.9,38.4,57.3,74,57.3c35.5,0,65.5-24.4,74-57.3h205.6
		c8.5,32.9,38.5,57.3,74,57.3c35.5,0,65.5-24.4,74-57.3h21.1c24.6,0,44.6-20,44.6-44.6V310.2C688.8,301,686.1,292.2,680.8,284.7
		L680.8,284.7z M195.6,605.6c-21.1,0-38.2-17.2-38.2-38.2c0-21,17.1-38.2,38.2-38.2c21.1,0,38.2,17.2,38.2,38.2
		C233.8,588.3,216.7,605.6,195.6,605.6L195.6,605.6z M409.5,548.3h-140c-8.5-32.9-38.5-57.3-74-57.3c-35.5,0-65.5,24.4-74,57.3H81.4
		c-3.5,0-6.4-2.9-6.4-6.4V126.5c0-3.5,2.9-6.4,6.4-6.4h321.7c3.5,0,6.4,2.9,6.4,6.4V548.3z M447.7,239h42.8v138h-42.8V239z
		 M549.2,605.6c-29.3,0-47.8-31.9-33.1-57.3c14.7-25.5,51.4-25.4,66.1,0C596.9,573.5,578.6,605.6,549.2,605.6L549.2,605.6z
		 M650.6,541.9c0,3.5-2.9,6.4-6.4,6.4h-21.1c-8.5-32.9-38.4-57.3-74-57.3c-35.5,0-65.5,24.4-74,57.3h-27.5V415.2h202.9V541.9z
		 M650.6,374.5H528.7V239h70.4c2.1,0,4,1,5.2,2.7l45.1,64.9c0.8,1.1,1.1,2.3,1.1,3.6V374.5z M650.6,374.5"/>
	<path class="st0" d="M352.7,309.3l-94.2-68.4c-19.1-13.9-46-1.9-48.7,21.3h-59.9c-17,0-30.8,13.8-30.8,30.8v82.6
		c0,17,13.8,30.8,30.8,30.8h59.9c1.2,10.2,7.3,19.1,16.6,23.8c10.1,5.1,22.4,4.5,32.1-2.5l94.2-68.4
		C369.6,346.8,369.6,321.6,352.7,309.3L352.7,309.3z M247.8,388.1v-0.9c0-10.5-8.6-19.1-19.1-19.1h-71.4v-67.7h71.4
		c10.5,0,19.1-8.6,19.1-19.1v-0.9l74.2,53.9L247.8,388.1z M247.8,388.1"/>
</g>
</svg>
