<?xml version="1.0" encoding="utf-8"?>
<!-- Generator: Adobe Illustrator 26.5.0, SVG Export Plug-In . SVG Version: 6.00 Build 0)  -->
<svg version="1.1" id="katman_1" xmlns="http://www.w3.org/2000/svg" xmlns:xlink="http://www.w3.org/1999/xlink" x="0px" y="0px"
	 viewBox="0 0 725.7 725.7" style="enable-background:new 0 0 725.7 725.7;" xml:space="preserve">
<g>
	<path d="M657,487.6h-38V335c0-24.6-20-44.6-44.6-44.6h-54.2V78.9c0-23.2-18.9-42-42.1-42c-5.8,0-208.8,0-230.6,0
		c-23.2,0-42.1,18.9-42.1,42v211.5h-54.2c-24.6,0-44.6,20-44.6,44.6v152.6h-38c-17.6,0-31.8,14.3-31.8,31.8V657
		c0,17.6,14.3,31.8,31.8,31.8h50.9c17.6,0,31.8-14.3,31.8-31.8v-54.8h154.1V657c0,17.6,14.3,31.8,31.8,31.8h50.9
		c17.6,0,31.8-14.3,31.8-31.8v-54.8h154.1V657c0,17.6,14.3,31.8,31.8,31.8H657c17.6,0,31.8-14.3,31.8-31.8c0-30.8,0-110.5,0-137.5
		C688.8,501.9,674.5,487.6,657,487.6L657,487.6z M332.8,75.1h60.1v45.8c-14.3-8.8-19.5-13.1-30-13.1c-10.6,0-15.7,4.3-30,13.1V75.1z
		 M243.7,78.9c0-2.1,1.7-3.8,3.9-3.8h47.1v59.5c0,23.9,26.3,38.5,46.5,26.1l21.7-13.3l21.7,13.3c20.3,12.5,46.6-2.2,46.6-26.1V75.1
		h47.1c2.1,0,3.9,1.7,3.9,3.8v211.5c-10.2,0-228.3,0-238.3,0V78.9z M398.3,328.6v56.7l-18.8-11.5c-10.1-6.2-22.9-6.3-33.3,0
		l-18.8,11.5v-56.7H398.3z M144.9,335c0-3.5,2.9-6.4,6.4-6.4h138v68.1c0,24.9,27.4,40.1,48.5,27.1l25.2-15.4l25.1,15.4
		c21.2,13,48.5-2.3,48.5-27.1v-68.1h138c3.5,0,6.4,2.9,6.4,6.4v152.6H144.9V335z M113.3,650.6H75.1v-48.4h38.2V650.6z M381.9,650.6
		h-38.2v-48.4h38.2V650.6z M650.6,650.6h-38.2v-48.4h38.2V650.6z M650.6,564c-42.3,0-556.7,0-575.6,0v-38.2h575.6V564z M650.6,564"
		/>
	<path d="M403.4,208.7h-81.1c-10.6,0-19.1,8.5-19.1,19.1c0,10.5,8.5,19.1,19.1,19.1h81.1c10.5,0,19.1-8.6,19.1-19.1
		C422.5,217.3,413.9,208.7,403.4,208.7L403.4,208.7z M403.4,208.7"/>
</g>
</svg>
