<svg xmlns="http://www.w3.org/2000/svg" height="20" viewBox="0 96 960 960" width="20"><path d="M328.547 753.422q12.145 0 20.895-8.47t8.75-20.615q0-12.145-8.566-20.895-8.567-8.75-20.712-8.75t-20.798 8.567q-8.654 8.566-8.654 20.711 0 12.145 8.47 20.799 8.47 8.653 20.615 8.653Zm0-148.153q12.145 0 20.895-8.47 8.75-8.471 8.75-20.615 0-12.145-8.566-20.895-8.567-8.75-20.712-8.75t-20.798 8.566q-8.654 8.567-8.654 20.711 0 12.145 8.47 20.799t20.615 8.654Zm0-148.961q12.145 0 20.895-8.47 8.75-8.471 8.75-20.616t-8.566-20.895q-8.567-8.749-20.712-8.749t-20.798 8.566q-8.654 8.566-8.654 20.711 0 12.145 8.47 20.799t20.615 8.654Zm108.107 292.229h222.845v-47.96H436.654v47.96Zm0-148.961h222.845v-47.96H436.654v47.96Zm0-148.153h222.845v-47.96H436.654v47.96ZM231.448 884.729q-25.046 0-42.612-17.565-17.565-17.566-17.565-42.612V327.448q0-25.046 17.565-42.612 17.566-17.565 42.612-17.565h497.104q25.046 0 42.612 17.565 17.565 17.566 17.565 42.612v497.104q0 25.046-17.565 42.612-17.566 17.565-42.612 17.565H231.448Zm.091-47.96h496.922q4.615 0 8.462-3.846 3.846-3.847 3.846-8.462V327.539q0-4.615-3.846-8.462-3.847-3.846-8.462-3.846H231.539q-4.615 0-8.462 3.846-3.846 3.847-3.846 8.462v496.922q0 4.615 3.846 8.462 3.847 3.846 8.462 3.846Zm-12.308-521.538v521.538-521.538Z"/></svg>