<?xml version="1.0" encoding="utf-8"?>
<!-- Generator: Adobe Illustrator 26.5.0, SVG Export Plug-In . SVG Version: 6.00 Build 0)  -->
<svg version="1.1" id="katman_1" xmlns="http://www.w3.org/2000/svg" xmlns:xlink="http://www.w3.org/1999/xlink" x="0px" y="0px"
	 viewBox="0 0 725.7 725.7" style="enable-background:new 0 0 725.7 725.7;" xml:space="preserve">
<g id="XMLID_50439_">
	<g id="XMLID_50440_">
		<path d="M609.8,31.8c-23.9,0-43.4,19.5-43.4,43.4v29.2c-11.2-8.7-25.3-14-40.6-14c-35.1,0-63.9,27.5-66.1,62h-91.8
			c-2.2-34.5-31-62-66.1-62c-21.9,0-41.4,10.8-53.5,27.2c-12.1-16.5-31.5-27.2-53.5-27.2c-15.3,0-29.4,5.3-40.6,14V75.2
			c0-23.9-19.5-43.4-43.4-43.4S67.4,51.3,67.4,75.2v500.7c-18.3,11.2-30.5,31.4-30.5,54.3c0,35.1,28.6,63.8,63.8,63.8h524.5
			c35.2,0,63.8-28.6,63.8-63.8c0-25.1-14.6-46.7-35.6-57.1V75.2C653.2,51.3,633.7,31.8,609.8,31.8z M592.1,299.2V156.6V75.2
			c0-9.8,7.9-17.7,17.7-17.7s17.7,7.9,17.7,17.7v491.4c-0.8,0-1.6-0.1-2.4-0.1h-33V299.2z M525.8,116c22.4,0,40.6,18.2,40.6,40.6
			s-18.2,40.6-40.6,40.6c-22.4,0-40.6-18.2-40.6-40.6C485.2,134.3,503.4,116,525.8,116z M301.7,116c22.4,0,40.6,18.2,40.6,40.6
			s-18.2,40.6-40.6,40.6s-40.6-18.2-40.6-40.6C261.1,134.3,279.3,116,301.7,116z M248.3,195.7c12.1,16.5,31.5,27.2,53.5,27.2
			c33.7,0,61.5-25.2,65.7-57.7h92.6c4.2,32.5,32,57.7,65.7,57.7c15.3,0,29.4-5.3,40.6-14v38c-11.2-8.7-25.3-14-40.6-14
			c-25.3,0-47.4,14.3-58.5,35.3c-11.1-20.9-33.2-35.3-58.5-35.3c-35.1,0-63.9,27.5-66.1,62H154.2v-86c11.2,8.7,25.3,14,40.6,14
			C216.8,222.9,236.2,212.2,248.3,195.7z M408.7,523.4c34.4,0,62.7-26.3,66-59.9h91.8v103H154.2v-57.1c11.2,8.7,25.3,14,40.6,14
			c34.4,0,62.7-26.3,66-59.9h81.9C345.9,497,374.3,523.4,408.7,523.4z M368.1,457c0-22.4,18.2-40.6,40.6-40.6s40.6,18.2,40.6,40.6
			s-18.2,40.6-40.6,40.6C386.3,497.7,368.1,479.4,368.1,457z M474.7,450.6c-3.2-33.5-31.6-59.9-66-59.9s-62.7,26.3-66,59.9h-81.9
			c-3.2-33.5-31.6-59.9-66-59.9c-15.3,0-29.4,5.2-40.6,14v-97H343c4.2,32.5,32,57.8,65.7,57.8c25.3,0,47.4-14.3,58.5-35.3
			c11.2,21,33.2,35.3,58.5,35.3c15.3,0,29.4-5.3,40.6-14v99.1H474.7z M368.1,299.2c0-22.4,18.2-40.6,40.6-40.6s40.6,18.2,40.6,40.6
			s-18.2,40.6-40.6,40.6C386.3,339.8,368.1,321.6,368.1,299.2z M525.8,339.8c-22.4,0-40.6-18.2-40.6-40.6s18.2-40.6,40.6-40.6
			c22.4,0,40.6,18.2,40.6,40.6C566.4,321.6,548.2,339.8,525.8,339.8z M194.8,116c22.4,0,40.6,18.2,40.6,40.6l0,0l0,0
			c0,22.4-18.2,40.6-40.6,40.6s-40.6-18.2-40.6-40.6C154.2,134.3,172.4,116,194.8,116z M194.8,416.4c22.4,0,40.6,18.2,40.6,40.6
			s-18.2,40.6-40.6,40.6s-40.6-18.2-40.6-40.6C154.2,434.6,172.4,416.4,194.8,416.4z M93.1,75.2c0-9.8,7.9-17.7,17.7-17.7
			s17.7,7.9,17.7,17.7v81.3v0.1c0,0.1,0,0.2,0,0.2v300.1v0.2v0.2v109.2h-27.9c-2.6,0-5,0.2-7.5,0.5V75.2z M663.2,630.2
			c0,21-17.1,38.1-38.1,38.1H100.6c-21,0-38.1-17.1-38.1-38.1s17.1-38.1,38.1-38.1h524.5C646.1,592.1,663.2,609.2,663.2,630.2z"/>
		<path d="M625.2,696.5H100.7c-36.6,0-66.3-29.7-66.3-66.3c0-22.7,11.4-43.4,30.5-55.7V75.2c0-25.3,20.6-45.9,45.9-45.9
			s45.9,20.6,45.9,45.9v24.3c11.3-7.6,24.4-11.6,38.1-11.6c21,0,40.4,9.3,53.5,25.6c13.1-16.1,32.9-25.6,53.5-25.6
			c35.4,0,65,27,68.4,62h87.2c3.4-35,33-62,68.4-62c13.7,0,26.8,4,38.1,11.6V75.2c0-25.3,20.6-45.9,45.9-45.9
			c25.2,0,45.9,20.6,46.1,45.9v496.4c22,11.5,35.6,33.8,35.6,58.6C691.5,666.8,661.8,696.5,625.2,696.5z M110.8,34.3
			c-22.6,0-40.9,18.3-40.9,40.9v502.1l-1.2,0.7c-18.4,11.2-29.3,30.7-29.3,52.2c0,33.8,27.5,61.3,61.3,61.3h524.5
			c33.8,0,61.3-27.5,61.3-61.3c0-23.4-13.1-44.4-34.2-54.9l-1.4-0.7V75.2c-0.2-22.5-18.6-40.9-41.1-40.9
			c-22.6,0-40.9,18.3-40.9,40.9v34.3l-4-3.1c-11.3-8.8-24.9-13.5-39.1-13.5c-33.5,0-61.5,26.2-63.6,59.7l-0.1,2.3h-96.5l-0.1-2.3
			c-2.1-33.5-30.1-59.7-63.6-59.7c-20.1,0-39.4,9.8-51.5,26.2l-2,2.7l-2-2.7c-12.2-16.6-31-26.2-51.5-26.2
			c-14.2,0-27.7,4.7-39.1,13.5l-4,3.1V75.2C151.7,52.6,133.4,34.3,110.8,34.3z M625.1,670.8H100.6c-22.4,0-40.6-18.2-40.6-40.6
			c0-22.4,18.2-40.6,40.6-40.6h524.5c22.4,0,40.6,18.2,40.6,40.6C665.7,652.6,647.5,670.8,625.1,670.8z M100.6,594.6
			c-19.6,0-35.6,16-35.6,35.6s16,35.6,35.6,35.6h524.5c19.6,0,35.6-16,35.6-35.6s-16-35.6-35.6-35.6H100.6z M90.6,569.8V75.2
			c0-11.1,9.1-20.2,20.2-20.2S131,64.1,131,75.2V569h-30.4c-2.2,0-4.4,0.1-7.2,0.5L90.6,569.8z M110.8,60c-8.4,0-15.2,6.8-15.2,15.2
			v489c1.8-0.2,3.4-0.2,5-0.2H126V75.2C126,66.8,119.2,60,110.8,60z M630,569.1h-2.5c-0.5,0-0.9,0-1.4-0.1c-0.3,0-0.7,0-1,0h-35.5
			V75.2c0-11.1,9.1-20.2,20.2-20.2S630,64.1,630,75.2V569.1z M594.6,564H625V75.2c0-8.4-6.8-15.2-15.2-15.2s-15.2,6.8-15.2,15.2V564
			z M569,569H151.7v-64.7l4,3.1c11.3,8.8,24.9,13.5,39.1,13.5c33,0,60.3-24.8,63.5-57.6l0.2-2.3H345l0.2,2.3
			c3.1,32.3,31,57.6,63.5,57.6c33,0,60.3-24.8,63.5-57.6l0.2-2.3H569V569z M156.7,564H564v-98h-87.1c-2.1,16.1-9.8,30.9-21.9,41.9
			c-12.7,11.6-29.2,18-46.3,18s-33.7-6.4-46.4-18c-12.1-11-19.8-25.8-21.8-41.9H263c-2.1,16.1-9.8,30.9-21.9,41.9
			c-12.7,11.6-29.2,18-46.3,18c-13.7,0-26.8-4-38.1-11.6V564z M408.5,500.1c-11.4,0-22.1-4.4-30.2-12.5c-8.2-8.2-12.7-19-12.7-30.6
			c0-23.8,19.3-43.1,43.1-43.1s43.1,19.3,43.1,43.1s-19.3,43.1-43.1,43.1C408.6,500.1,408.6,500.1,408.5,500.1z M408.7,418.9
			c-21,0-38.1,17.1-38.1,38.1c0,10.2,4,19.8,11.3,27.1c7.2,7.2,16.8,11.1,26.8,11c21,0,38.1-17.1,38.1-38.1
			C446.8,436,429.7,418.9,408.7,418.9z M194.8,500.1c-23.8,0-43.1-19.3-43.1-43.1s19.3-43.1,43.1-43.1c23.8,0,43.1,19.3,43.1,43.1
			S218.6,500.1,194.8,500.1z M194.8,418.9c-21,0-38.1,17.1-38.1,38.1c0,21,17.1,38.1,38.1,38.1s38.1-17.1,38.1-38.1
			C232.9,436,215.8,418.9,194.8,418.9z M568.8,453.1h-96.4l-0.2-2.3c-3.1-32.3-31-57.6-63.5-57.6c-33,0-60.3,24.8-63.5,57.6
			l-0.2,2.3h-86.4l-0.2-2.3c-3.1-32.3-31-57.6-63.5-57.6c-14.3,0-27.8,4.7-39.1,13.5l-4,3.2V305.2h193.5l0.3,2.2
			c4.1,31.7,31.3,55.6,63.2,55.6c23.6,0,45.2-13,56.3-34l2.2-4.2l2.2,4.2c11.2,21,32.7,34,56.3,34c14.2,0,27.7-4.7,39.1-13.5l4-3.1
			V453.1z M476.9,448.1h86.9v-91.7c-11.3,7.6-24.4,11.6-38.1,11.6c-23.9,0-45.9-12.4-58.5-32.8c-12.5,20.3-34.5,32.8-58.5,32.8
			c-33.7,0-62.5-24.7-67.9-57.8H156.7v89.6c11.2-7.6,24.3-11.6,38.1-11.6c17.2,0,33.7,6.4,46.4,18c12.1,11,19.8,25.8,21.8,41.9h77.4
			c2.1-16.1,9.8-30.9,21.9-41.9c12.7-11.6,29.2-18,46.3-18c17.2,0,33.7,6.4,46.4,18C467.2,417.3,474.9,432.1,476.9,448.1z
			 M525.8,342.3c-23.8,0-43.1-19.3-43.1-43.1s19.3-43.1,43.1-43.1s43.1,19.3,43.1,43.1S549.6,342.3,525.8,342.3z M525.8,261.1
			c-21,0-38.1,17.1-38.1,38.1s17.1,38.1,38.1,38.1c21,0,38.1-17.1,38.1-38.1S546.8,261.1,525.8,261.1z M408.7,342.3
			c-23.8,0-43.1-19.3-43.1-43.1s19.3-43.1,43.1-43.1s43.1,19.3,43.1,43.1S432.5,342.3,408.7,342.3z M408.7,261.1
			c-21,0-38.1,17.1-38.1,38.1s17.1,38.1,38.1,38.1c21,0,38.1-17.1,38.1-38.1S429.7,261.1,408.7,261.1z M345,297.4H151.7v-93.6l4,3.1
			c11.3,8.8,24.9,13.5,39.1,13.5c20.5,0,39.3-9.5,51.5-26.2l2-2.7l2,2.7c12.2,16.6,31,26.2,51.5,26.2c32,0,59.1-23.9,63.2-55.5
			l0.3-2.2h97l0.3,2.2c4.1,31.7,31.3,55.5,63.2,55.5c14.2,0,27.7-4.7,39.1-13.5l4-3.1V252l-4-3.1c-11.3-8.8-24.9-13.5-39.1-13.5
			c-23.6,0-45.2,13-56.3,34l-2.2,4.2l-2.2-4.2c-11.1-21-32.7-34-56.3-34c-33.5,0-61.5,26.2-63.6,59.7L345,297.4z M156.7,292.4h183.7
			c3.4-35,33-62,68.4-62c24,0,46,12.4,58.5,32.8c12.5-20.3,34.5-32.8,58.5-32.8c13.7,0,26.8,4,38.1,11.6v-28.2
			c-11.3,7.6-24.4,11.6-38.1,11.6c-33.7,0-62.5-24.7-67.9-57.7h-88.3c-5.4,33-34.1,57.7-67.9,57.7c-21,0-40.3-9.3-53.5-25.6
			c-13.2,16.3-32.5,25.6-53.5,25.6c-13.7,0-26.8-4-38.1-11.6V292.4z M525.8,199.7c-23.8,0-43.1-19.3-43.1-43.1s19.3-43.1,43.1-43.1
			s43.1,19.3,43.1,43.1S549.6,199.7,525.8,199.7z M525.8,118.5c-21,0-38.1,17.1-38.1,38.1s17.1,38.1,38.1,38.1
			c21,0,38.1-17.1,38.1-38.1S546.8,118.5,525.8,118.5z M301.7,199.7c-23.8,0-43.1-19.3-43.1-43.1s19.3-43.1,43.1-43.1
			c23.8,0,43.1,19.3,43.1,43.1S325.5,199.7,301.7,199.7z M301.7,118.5c-21,0-38.1,17.1-38.1,38.1s17.1,38.1,38.1,38.1
			s38.1-17.1,38.1-38.1S322.7,118.5,301.7,118.5z M194.8,199.7c-23.8,0-43.1-19.3-43.1-43.1s19.3-43.1,43.1-43.1
			c23.8,0,43.1,19.3,43.1,43.1S218.6,199.7,194.8,199.7z M194.8,118.5c-21,0-38.1,17.1-38.1,38.1s17.1,38.1,38.1,38.1
			s38.1-17.1,38.1-38.1S215.8,118.5,194.8,118.5z"/>
	</g>
</g>
</svg>
