<svg xmlns="http://www.w3.org/2000/svg" height="20" viewBox="0 96 960 960" width="20"><path d="m389.232 947.922-14.231-117.423q-4.385-2.846-22.731-12.692-18.347-9.847-40.347-22.655l-107.922 45.077-91.268-158.536 92.999-70.462q-.577-7.59-1.058-16.603-.48-9.012-.48-18.243 0-6.731.73-16.443.731-9.712 1.116-20.789l-93.307-69.846 91.268-156.959 108.845 45.5q12.654-9.27 29.232-18.866 16.577-9.596 32.539-17.173l14.615-118.538H570.96l14.231 117.807q15.616 7.846 30.943 16.827 15.327 8.981 29.173 19.943l110.885-45.5 91.268 156.959-95.961 72.657q.961 8.651 1.25 16.92.288 8.27.288 17.02 0 8.365-.385 17.026-.384 8.661-.461 18.224l94.384 70.539-91.268 158.536-110-46.269q-12.731 9.539-27.539 18.347-14.807 8.807-32.577 17.807L570.96 947.922H389.232Zm87.445-252.962q49.169 0 83.995-34.867 34.827-34.867 34.827-84.134 0-49.266-34.856-84.093-34.855-34.826-84.105-34.826-48.614 0-83.787 34.867-35.173 34.867-35.173 84.134 0 49.266 35.173 84.093 35.173 34.826 83.926 34.826Zm-.139-59.96q-24 0-41.5-17.5t-17.5-41.5q0-24 17.5-41.5t41.5-17.5q23.808 0 41.404 17.5 17.596 17.5 17.596 41.5t-17.596 41.5Q500.346 635 476.538 635Zm4.154-59.5Zm-40.445 312.462h78.598l12.933-105.654q27.722-8 52.357-22.577 24.634-14.577 47.673-37.731l97.884 42.577 39.885-65.098L683 634q4.5-15.539 6.404-29.494 1.904-13.956 1.904-28.602 0-13.212-1.654-25.789Q688 537.539 684 519.769l87.346-67.961-39.077-65.193-100.154 43.193q-19.153-19.846-47.192-36.308t-52.615-23l-12.572-107.269h-80.121l-11.73 106.59q-29.616 7.717-53.52 21.179-23.903 13.461-48.557 37.808l-96.885-42.193-40.077 65.193 84.077 64.884q-4 16.039-6 31.046-2 15.007-2 28.116 0 13.031 1.75 27.031 1.75 14 5.365 30.923l-83.192 65.577 40.069 65.192 96.2-41q23.885 22.885 48.847 37 24.961 14.115 53.452 21.615l12.833 105.77Z"/></svg>