<?xml version="1.0" encoding="utf-8"?>
<!-- Generator: Adobe Illustrator 26.5.0, SVG Export Plug-In . SVG Version: 6.00 Build 0)  -->
<svg version="1.1" id="katman_1" xmlns="http://www.w3.org/2000/svg" xmlns:xlink="http://www.w3.org/1999/xlink" x="0px" y="0px"
	 viewBox="0 0 725.7 725.7" style="enable-background:new 0 0 725.7 725.7;" xml:space="preserve">
<style type="text/css">
	.st0{fill:#020203;}
</style>
<g>
	<path class="st0" d="M641.3,342.5c-12.4,0-101.8,0-116,0V125.7c0-26.2-21.3-47.5-47.5-47.5c-11.9,0-105.2,0-118.2,0
		c-8.1-35.9-40.2-62.8-78.5-62.8s-70.4,26.9-78.5,62.8c-13,0-106.3,0-118.2,0c-26.2,0-47.5,21.3-47.5,47.5v537
		c0,26.2,21.3,47.5,47.5,47.5h557c26.2,0,47.5-21.3,47.5-47.5V390C688.8,363.8,667.5,342.5,641.3,342.5z M542.7,383.2v60.4
		c-20-12.3-16.6-10.2-20-12.3c-10.9-6.7-24.5-6.7-35.4,0c-3.4,2.1,0,0-20,12.3v-60.4L542.7,383.2z M176.6,118.9H221
		c11.6,0,20.8-9.6,20.3-21.2c-1.1-22.2,16.8-41.5,39.8-41.5c22.8,0,40.8,19.2,39.8,41.5c-0.5,11.6,8.8,21.2,20.3,21.2h44.4v51.3
		c0,3.7-3,6.8-6.8,6.8H183.4c-3.7,0-6.8-3.1-6.8-6.8V118.9z M321.6,669.5H84.4c-3.7,0-6.8-3-6.8-6.8v-537c0-3.7,3-6.8,6.8-6.8h51.5
		v51.3c0,26.2,21.3,47.5,47.5,47.5h195.4c26.2,0,47.5-21.3,47.5-47.5v-51.3h51.5c3.7,0,6.8,3,6.8,6.8v216.8c-14.3,0-105,0-116,0
		c-26.2,0-47.5,21.3-47.5,47.5v272.7C321.1,665,321.3,667.3,321.6,669.5L321.6,669.5z M648.1,662.7c0,3.7-3,6.8-6.8,6.8
		c-7.4,0-269.9,0-272.7,0c-3.7,0-6.8-3-6.8-6.8V390c0-3.7,3.1-6.8,6.8-6.8h57.9v72.6c0,18.6,15.1,33.9,33.9,33.9
		c10.9,0,16.9-4.5,24.2-9l20.4-12.5l20.4,12.5c5.6,3.4,21.4,15.5,40.7,4.7c10.7-6,17.4-17.3,17.4-29.6v-72.6h57.9
		c3.7,0,6.8,3,6.8,6.8V662.7z"/>
	<path class="st0" d="M552.9,559.3c-9,0-85,0-95.9,0c-11.2,0-20.4,9.1-20.4,20.4c0,11.2,9.1,20.4,20.4,20.4h95.9
		c11.2,0,20.4-9.1,20.4-20.4C573.3,568.4,564.2,559.3,552.9,559.3L552.9,559.3z"/>
	<path class="st0" d="M210.2,403.4l-41.2,39l-11.8-11.2c-8.2-7.7-21-7.4-28.8,0.8c-7.7,8.2-7.4,21,0.8,28.8l25.8,24.4
		c7.8,7.4,20.1,7.4,28,0l55.2-52.3c8.2-7.7,8.5-20.6,0.8-28.8C231.2,396,218.3,395.7,210.2,403.4z"/>
	<path class="st0" d="M210.2,266.4l-41.2,39l-11.8-11.2c-8.2-7.7-21-7.4-28.8,0.8c-7.7,8.2-7.4,21,0.8,28.8l25.8,24.4
		c7.8,7.4,20.1,7.4,28,0l55.2-52.3c8.2-7.7,8.5-20.6,0.8-28.8C231.2,259,218.3,258.6,210.2,266.4L210.2,266.4z"/>
	<path class="st0" d="M210.2,540.4l-41.2,39l-11.8-11.2c-8.2-7.7-21-7.4-28.8,0.8s-7.4,21,0.8,28.8l25.8,24.4c7.8,7.4,20.1,7.4,28,0
		l55.2-52.3c8.2-7.7,8.5-20.6,0.8-28.8C231.2,533.1,218.3,532.7,210.2,540.4L210.2,540.4z"/>
	<path class="st0" d="M419,300.5c11.2,0,20.4-9.1,20.4-20.4c0-11.2-9.1-20.4-20.4-20.4h-96.1c-11.2,0-20.4,9.1-20.4,20.4
		c0,11.2,9.1,20.4,20.4,20.4H419z"/>
</g>
</svg>
