<?xml version="1.0" encoding="utf-8"?>
<!-- Generator: Adobe Illustrator 26.5.0, SVG Export Plug-In . SVG Version: 6.00 Build 0)  -->
<svg version="1.1" id="katman_1" xmlns="http://www.w3.org/2000/svg" xmlns:xlink="http://www.w3.org/1999/xlink" x="0px" y="0px"
	 viewBox="0 0 725.7 725.7" style="enable-background:new 0 0 725.7 725.7;" xml:space="preserve">
<style type="text/css">
	.st0{fill:#020203;}
</style>
<g>
	<path class="st0" d="M254.4,547.2h-90c-10.5,0-19.1,8.6-19.1,19.1s8.6,19.1,19.1,19.1h90c10.5,0,19.1-8.6,19.1-19.1
		S265,547.2,254.4,547.2z"/>
	<path class="st0" d="M644.3,343.7c-11.6,0-95.5,0-108.9,0V81.4c0-24.6-20-44.6-44.6-44.6c-11.5,0-243.3,0-255.9,0
		c-24.6,0-44.6,20-44.6,44.6v262.3c-13.4,0-98.5,0-108.9,0c-24.6,0-44.6,20-44.6,44.6v255.9c0,24.6,20,44.6,44.6,44.6h562.8
		c24.6,0,44.6-20,44.6-44.6V388.3C688.8,363.7,668.8,343.7,644.3,343.7z M480.9,382h70.9v56.7l-18.8-11.5c-10.1-6.2-22.9-6.3-33.3,0
		l-18.8,11.5V382z M398.3,75.1v56.7c-19.8-12.1-24.4-16.2-35.4-16.2c-11,0-15.6,4.1-35.4,16.2V75.1H398.3z M228.5,81.4
		c0-3.5,2.9-6.4,6.4-6.4h54.3v68.1c0,24.9,27.4,40.1,48.5,27.1l25.2-15.4l25.1,15.4c21.2,13,48.5-2.3,48.5-27.1V75.1h54.3
		c3.5,0,6.4,2.9,6.4,6.4v262.3c-8.6,0-254.4,0-268.7,0L228.5,81.4L228.5,81.4z M244.8,382v56.7L226,427.1c-10.1-6.2-22.9-6.3-33.3,0
		L174,438.7V382H244.8z M75.1,644.3V388.3c0-3.5,2.9-6.4,6.4-6.4h54.3v68.1c0,24.9,27.4,40.1,48.5,27.1l25.2-15.4l25.1,15.4
		c21.2,13,48.5-2.3,48.5-27.1V382h60.7v268.7H81.4C77.9,650.6,75.1,647.8,75.1,644.3z M650.6,644.3c0,3.5-2.9,6.4-6.4,6.4H382V382
		h60.7v68.1c0,24.9,27.4,40.1,48.5,27.1l25.2-15.4l25.1,15.4c21.2,13,48.5-2.3,48.5-27.1V382h54.3c3.5,0,6.4,2.9,6.4,6.4
		L650.6,644.3z"/>
	<path class="st0" d="M561.3,547.2h-90c-10.5,0-19.1,8.6-19.1,19.1s8.6,19.1,19.1,19.1h90c10.5,0,19.1-8.6,19.1-19.1
		S571.8,547.2,561.3,547.2z"/>
	<path class="st0" d="M317.9,278.5h90c10.5,0,19.1-8.6,19.1-19.1c0-10.5-8.6-19.1-19.1-19.1h-90c-10.5,0-19.1,8.6-19.1,19.1
		C298.8,269.9,307.3,278.5,317.9,278.5L317.9,278.5z"/>
</g>
</svg>
