<svg xmlns="http://www.w3.org/2000/svg" height="20" viewBox="0 96 960 960" width="20"><path d="M691.091 640.575q-34.831 0-59.268-24.212-24.438-24.212-24.438-59.043 0-34.83 24.212-59.364 24.213-24.534 59.043-24.534t59.364 24.309q24.534 24.308 24.534 59.139 0 34.83-24.309 59.267-24.308 24.438-59.138 24.438Zm-154.59 185.231V784.73q0-7.693 2.147-13.762 2.147-6.069 6.583-11.584 30.397-26.115 67.506-39.423 37.109-13.308 78.224-13.308 40.337 0 77.476 13.308 37.14 13.308 68.255 39.423 3.735 5.462 5.983 11.558 2.247 6.095 2.247 13.788v41.076H536.501ZM375.499 564.499q-50.441 0-85.2-34.759-34.76-34.759-34.76-85.201 0-50.442 34.76-85.201 34.759-34.759 85.2-34.759 50.442 0 85.201 34.759 34.76 34.759 34.76 85.201 0 50.442-34.76 85.201-34.759 34.759-85.201 34.759Zm0-119.96ZM114.77 825.806v-64.348q0-20.368 10.719-37.712 10.718-17.343 29.281-27.707 50.335-29.736 106.484-45.387 56.148-15.651 114.103-15.651 45.88 0 89.972 9.211 44.092 9.212 85.592 29.289-17.654 1.845-32.801 9.185-15.147 7.339-28.544 15.929-27.538-6.039-56.538-10.846-29-4.808-57.565-4.808-51.039 0-100.833 12.942-49.794 12.943-94.256 39.943-6.846 4.153-12.25 10.574t-5.404 15.402v16.024h290.423v47.96H114.77Zm266.383-47.96Zm-5.441-261.307q29.787 0 50.787-21.212 21-21.213 21-51 0-29.788-21.212-50.788-21.212-21-51-21t-50.788 21.212q-21 21.213-21 51 0 29.788 21.213 50.788 21.212 21 51 21Z"/></svg>