<?xml version="1.0" encoding="utf-8"?>
<!-- Generator: Adobe Illustrator 26.5.0, SVG Export Plug-In . SVG Version: 6.00 Build 0)  -->
<svg version="1.1" id="katman_1" xmlns="http://www.w3.org/2000/svg" xmlns:xlink="http://www.w3.org/1999/xlink" x="0px" y="0px"
	 viewBox="0 0 725.7 725.7" style="enable-background:new 0 0 725.7 725.7;" xml:space="preserve">
<style type="text/css">
	.st0{fill:#4F4F4F;}
</style>
<g>
	<path class="st0" d="M644.3,536.1h-37.8V335c0-24.6-20-44.6-44.6-44.6h-3.3V78.9c0-23.2-18.9-42-42-42c-5.8,0-208.8,0-230.6,0
		c-23.2,0-42,18.9-42,42v211.5h-3.3c-24.6,0-44.6,20-44.6,44.6v201.1h-44.1V81.4c0-24.6-20-44.6-44.6-44.6H56
		c-10.6,0-19.1,8.5-19.1,19.1C36.9,66.5,45.4,75,56,75h51.3c3.5,0,6.4,2.9,6.4,6.4c0,30.7,0,505.3,0,525.9c0,24.6,20,44.6,44.6,44.6
		h42c13.4,22.2,37.7,37,65.4,37s52.1-14.9,65.4-37h140.2c13.4,22.2,37.7,37,65.4,37c27.7,0,52.1-14.9,65.4-37h42
		c24.6,0,44.6-20,44.6-44.6v-26.7C688.8,556,668.8,536.1,644.3,536.1L644.3,536.1z M189.3,613.7h-31.1c-3.5,0-6.4-2.9-6.4-6.4v-33
		h47.7c-6.5,11.2-10.3,24.3-10.3,38.2C189.3,612.9,189.3,613.3,189.3,613.7L189.3,613.7z M371.2,75h60.1v45.8l-14.1-8.6
		c-10-6.1-22.2-5.9-31.9,0l-14.1,8.6V75z M282.1,78.9c0-2.1,1.7-3.8,3.8-3.8H333v59.5c0,11.1,6,21.3,15.7,26.7
		c9.6,5.4,21.5,5.2,30.9-0.6l21.7-13.3l21.7,13.3c20.3,12.5,46.6-2.2,46.6-26V75h47.1c2.1,0,3.8,1.7,3.8,3.8v211.5
		c-10.1,0-228.3,0-238.3,0V78.9z M436.7,328.6v56.7c-19.5-11.9-24.3-16.2-35.4-16.2c-11,0-15.7,4.1-35.4,16.2v-56.7H436.7z
		 M303.9,613.7c-0.6,20.5-17.5,37-38.2,37s-37.5-16.5-38.2-37c0-0.4,0-0.8,0-1.2c0-21.1,17.1-38.2,38.2-38.2s38.2,17.1,38.2,38.2
		C303.9,612.9,303.9,613.3,303.9,613.7L303.9,613.7z M460.4,613.7H342.1c0-0.4,0-0.8,0-1.2c0-13.9-3.7-27-10.3-38.2h138.8
		c-6.5,11.2-10.3,24.3-10.3,38.2C460.4,612.9,460.4,613.3,460.4,613.7L460.4,613.7z M234.2,536.1V335c0-3.5,2.9-6.4,6.4-6.4h87v68.1
		c0,17.4,14.1,31.8,31.8,31.8c11.6,0,16.2-4.4,41.8-20.1l25.2,15.4c21.2,13,48.5-2.3,48.5-27.1v-68.1h87c3.5,0,6.4,2.9,6.4,6.4
		v201.1H234.2z M575,613.7c-0.6,20.5-17.5,37-38.2,37c-20.7,0-37.6-16.5-38.2-37c0-0.4,0-0.8,0-1.2c0-21.1,17.1-38.2,38.2-38.2
		c21.1,0,38.2,17.1,38.2,38.2C575,612.9,575,613.3,575,613.7L575,613.7z M650.6,607.3c0,3.5-2.9,6.4-6.4,6.4h-31.1
		c0-0.4,0-0.8,0-1.2c0-13.9-3.7-27-10.3-38.2h41.3c3.5,0,6.4,2.9,6.4,6.4V607.3z M650.6,607.3"/>
	<path class="st0" d="M441.8,208.7h-81.1c-10.5,0-19.1,8.5-19.1,19.1c0,10.6,8.5,19.1,19.1,19.1h81.1c10.5,0,19.1-8.5,19.1-19.1
		C460.9,217.2,452.3,208.7,441.8,208.7L441.8,208.7z M441.8,208.7"/>
</g>
</svg>
