<svg xmlns="http://www.w3.org/2000/svg" height="20" viewBox="0 96 960 960" width="20"><path d="M636.385 634.192q24.759 0 41.475-16.716 16.717-16.717 16.717-41.476t-16.717-41.476q-16.716-16.716-41.475-16.716t-41.476 16.716Q578.192 551.241 578.192 576t16.717 41.476q16.717 16.716 41.476 16.716ZM208.038 802.305v46.464-545.538 499.074Zm12.228 106.424q-30.006 0-51.097-21.09-21.091-21.091-21.091-51.087V315.448q0-29.996 21.091-51.087 21.091-21.09 51.097-21.09h520.276q30.006 0 51.097 21.09 21.09 21.091 21.09 51.178v104.27h-59.96v-104.27q0-5.385-3.462-8.846-3.461-3.462-8.846-3.462H220.347q-5.385 0-8.847 3.462-3.462 3.461-3.462 8.846v520.922q0 5.385 3.462 8.846 3.462 3.462 8.847 3.462h520.114q5.385 0 8.846-3.462 3.462-3.461 3.462-8.846v-105.27h59.96v105.27q0 30.087-21.09 51.178-21.091 21.09-51.097 21.09H220.266Zm310.869-156.384q-30.019 0-50.557-20.332-20.538-20.332-20.538-50.552v-210.68q0-30.049 20.332-51.088 20.332-21.038 50.552-21.038h249.903q30.018 0 50.556 21.038 20.539 21.039 20.539 51.062v210.49q0 30.023-20.332 50.562-20.332 20.538-50.552 20.538H531.135Zm248.518-59.96q5.385 0 8.847-3.462 3.462-3.462 3.462-8.847V470.924q0-5.385-3.462-8.847-3.462-3.462-8.847-3.462H532.309q-5.385 0-8.847 3.462-3.462 3.462-3.462 8.847v209.152q0 5.385 3.462 8.847 3.462 3.462 8.847 3.462h247.344Z"/></svg>