<?xml version="1.0" encoding="utf-8"?>
<!-- Generator: Adobe Illustrator 26.5.0, SVG Export Plug-In . SVG Version: 6.00 Build 0)  -->
<svg version="1.1" id="katman_1" xmlns="http://www.w3.org/2000/svg" xmlns:xlink="http://www.w3.org/1999/xlink" x="0px" y="0px"
	 viewBox="0 0 725.7 725.7" style="enable-background:new 0 0 725.7 725.7;" xml:space="preserve">
<g>
	<g>
		<path d="M694.6,383.4c-2.3,0-4.6-0.9-6.4-2.6L362.8,55.4L37.4,380.8c-3.5,3.5-9.2,3.5-12.7,0s-3.5-9.2,0-12.7L356.4,36.3
			c3.4-3.4,9.4-3.4,12.7,0l331.8,331.8c3.5,3.5,3.5,9.2,0,12.7C699.2,382.5,696.9,383.4,694.6,383.4z"/>
		<path d="M31.1,399.9c-6.5,0-13-2.5-18-7.5c-9.9-9.9-9.9-26.1,0-36L344.8,24.6c4.7-4.7,11.4-7.4,18.3-7.4
			c6.7,0.1,13.2,2.8,17.9,7.4l331.7,331.7c9.9,9.9,9.9,26.1,0,36c-4.7,4.7-11.3,7.4-18,7.4c-6.6,0-12.9-2.5-17.7-7.1l-0.3-0.3
			L362.8,78.7L49.1,392.4C44.1,397.4,37.6,399.9,31.1,399.9z"/>
	</g>
	<g>
		<path d="M605.5,692H445.4c-5,0-9-4-9-9V453.3H289.2V683c0,5-4,9-9,9h-160c-5,0-9-4-9-9V293c0-5,4-9,9-9s9,4,9,9v381h142.1V444.3
			c0-5,4-9,9-9h165.1c5,0,9,4,9,9V674h142.1V293c0-5,4-9,9-9s9,4,9,9v390C614.5,688,610.5,692,605.5,692z"/>
		<path d="M605.5,708.5H445.4c-14.1,0-25.5-11.4-25.5-25.5V469.8H305.7V683c0,14.1-11.4,25.5-25.5,25.5h-160
			c-14.1,0-25.5-11.4-25.5-25.5V293c0-14.1,11.4-25.5,25.5-25.5c14.1,0,25.5,11.4,25.5,25.5v364.5h109.1V444.3
			c0-14.1,11.4-25.5,25.5-25.5h165.1c14.1,0,25.5,11.4,25.5,25.5v213.2H580V293c0-14.1,11.4-25.5,25.5-25.5S631,278.9,631,293v390
			C631,697,619.6,708.5,605.5,708.5z"/>
	</g>
</g>
</svg>
