<?xml version="1.0" encoding="utf-8"?>
<!-- Generator: Adobe Illustrator 26.5.0, SVG Export Plug-In . SVG Version: 6.00 Build 0)  -->
<svg version="1.1" id="katman_1" xmlns="http://www.w3.org/2000/svg" xmlns:xlink="http://www.w3.org/1999/xlink" x="0px" y="0px"
	 viewBox="0 0 725.7 725.7" style="enable-background:new 0 0 725.7 725.7;" xml:space="preserve">
<g>
	<g>
		<g>
			<path d="M608.1,343.5c-4.9,0-8.9-4-8.9-8.9V51.4H126.6v222.5c0,4.9-4,8.9-8.9,8.9s-8.9-4-8.9-8.9V42.5c0-4.9,4-8.9,8.9-8.9h490.4
				c4.9,0,8.9,4,8.9,8.9v292.2C617,339.5,613,343.5,608.1,343.5z"/>
			<path d="M608.1,349.6c-8.2,0-14.9-6.7-14.9-14.9V57.3H132.6v216.5c0,8.2-6.7,14.9-14.9,14.9c-8.2,0-14.9-6.7-14.9-14.9V42.5
				c0-8.2,6.7-14.9,14.9-14.9h490.4c8.2,0,14.9,6.7,14.9,14.9v292.2C623,342.9,616.3,349.6,608.1,349.6z M120.6,45.3h484.6v289.3
				c0,1.6,1.3,2.9,2.9,2.9c1.6,0,2.9-1.3,2.9-2.9V42.5c0-1.6-1.3-2.9-2.9-2.9H117.7c-1.6,0-2.9,1.3-2.9,2.9v231.4
				c0,1.6,1.3,2.9,2.9,2.9s2.9-1.3,2.9-2.9V45.3z"/>
		</g>
		<g>
			<path d="M608.1,346.1c-6.3,0-11.4-5.1-11.4-11.4V53.8H129.1v220c0,6.3-5.1,11.4-11.4,11.4s-11.4-5.1-11.4-11.4V42.5
				c0-6.3,5.1-11.4,11.4-11.4h490.4c6.3,0,11.4,5.1,11.4,11.4v292.2C619.5,340.9,614.4,346.1,608.1,346.1z M124.1,48.8h477.6v285.8
				c0,3.5,2.9,6.4,6.4,6.4c3.5,0,6.4-2.9,6.4-6.4V42.5c0-3.5-2.9-6.4-6.4-6.4H117.7c-3.5,0-6.4,2.9-6.4,6.4v231.4
				c0,3.5,2.9,6.4,6.4,6.4c3.5,0,6.4-2.9,6.4-6.4V48.8z"/>
			<path d="M608.1,352.1c-9.6,0-17.4-7.8-17.4-17.4V59.8H135.1v214c0,9.6-7.8,17.4-17.4,17.4c-9.6,0-17.4-7.8-17.4-17.4V42.5
				c0-9.6,7.8-17.4,17.4-17.4h490.4c9.6,0,17.4,7.8,17.4,17.4v292.2C625.5,344.2,617.7,352.1,608.1,352.1z M118.1,42.8h489.6v291.8
				c0,0.2,0.2,0.4,0.4,0.4s0.4-0.2,0.4-0.4V42.5c0-0.2-0.2-0.4-0.4-0.4H117.7c-0.2,0-0.4,0.2-0.4,0.4v231.4c0,0.2,0.2,0.4,0.4,0.4
				c0.2,0,0.4-0.2,0.4-0.4V42.8z"/>
		</g>
	</g>
	<g>
		<g>
			<path d="M608.1,692.2H117.7c-4.9,0-8.9-4-8.9-8.9V402.9c0-4.9,4-8.9,8.9-8.9s8.9,4,8.9,8.9v271.4h472.6V468.1
				c0-4.9,4-8.9,8.9-8.9s8.9,4,8.9,8.9v215.1C617,688.2,613,692.2,608.1,692.2z"/>
			<path d="M608.1,698.1H117.7c-8.2,0-14.9-6.7-14.9-14.9V402.9c0-8.2,6.7-14.9,14.9-14.9c8.2,0,14.9,6.7,14.9,14.9v265.4h460.6
				V468.1c0-8.2,6.7-14.9,14.9-14.9s14.9,6.7,14.9,14.9v215.1C623,691.5,616.3,698.1,608.1,698.1z M117.7,400.1
				c-1.6,0-2.9,1.3-2.9,2.9v280.3c0,1.6,1.3,2.9,2.9,2.9h490.4c1.6,0,2.9-1.3,2.9-2.9V468.1c0-1.6-1.3-2.9-2.9-2.9
				c-1.6,0-2.9,1.3-2.9,2.9v212.2H120.6V402.9C120.6,401.4,119.3,400.1,117.7,400.1z"/>
		</g>
		<g>
			<path d="M608.1,694.6H117.7c-6.3,0-11.4-5.1-11.4-11.4V402.9c0-6.3,5.1-11.4,11.4-11.4s11.4,5.1,11.4,11.4v268.9h467.6V468.1
				c0-6.3,5.1-11.4,11.4-11.4c6.3,0,11.4,5.1,11.4,11.4v215.1C619.5,689.5,614.4,694.6,608.1,694.6z M117.7,396.6
				c-3.5,0-6.4,2.9-6.4,6.4v280.3c0,3.5,2.9,6.4,6.4,6.4h490.4c3.5,0,6.4-2.9,6.4-6.4V468.1c0-3.5-2.9-6.4-6.4-6.4
				c-3.5,0-6.4,2.9-6.4,6.4v208.7H124.1V402.9C124.1,399.4,121.2,396.6,117.7,396.6z"/>
			<path d="M608.1,700.6H117.7c-9.6,0-17.4-7.8-17.4-17.4V402.9c0-9.6,7.8-17.4,17.4-17.4c9.6,0,17.4,7.8,17.4,17.4v262.9h455.6
				V468.1c0-9.6,7.8-17.4,17.4-17.4c9.6,0,17.4,7.8,17.4,17.4v215.1C625.5,692.8,617.7,700.6,608.1,700.6z M117.7,402.6
				c-0.2,0-0.4,0.2-0.4,0.4v280.3c0,0.2,0.2,0.4,0.4,0.4h490.4c0.2,0,0.4-0.2,0.4-0.4V468.1c0-0.2-0.2-0.4-0.4-0.4
				c-0.2,0-0.4,0.2-0.4,0.4v214.7H118.1V402.9C118.1,402.7,117.9,402.6,117.7,402.6z"/>
		</g>
	</g>
	<g>
		<g>
			<path d="M608.1,355.4L608.1,355.4c-2.9,0-5.6-1.4-7.3-3.7l-66-92.6c-2.9-4-1.9-9.6,2.1-12.4c4-2.9,9.6-1.9,12.4,2.1l58.7,82.4
				l58.7-82.4c2.9-4,8.4-4.9,12.4-2.1c4,2.9,4.9,8.4,2.1,12.4l-66,92.6C613.7,354.1,611,355.4,608.1,355.4z"/>
			<path d="M608.1,361.5c-4.8,0-9.3-2.3-12.1-6.1l-0.1-0.1l-66-92.6c-2.3-3.2-3.2-7.1-2.6-11.1c0.7-4,2.8-7.4,6.1-9.7
				c3.1-2.3,7.1-3.2,11-2.5c4,0.7,7.4,2.8,9.7,6.1l53.8,75.5l53.8-75.5c4.9-6.7,14-8.3,20.7-3.5c6.8,4.9,8.3,14,3.6,20.8l-65.9,92.5
				C617.6,359.1,613.1,361.5,608.1,361.5z M605.6,348.2c0.6,0.8,1.5,1.2,2.5,1.2c0.9,0,1.7-0.3,2-0.9l0.2-0.3l66-92.6
				c0.9-1.3,0.6-3.1-0.7-4.1c-1.3-0.9-3.1-0.6-4,0.8L608,341.6l-63.6-89.3c-0.6-0.9-1.5-1.1-1.9-1.2c-0.4-0.1-1.3-0.1-2.1,0.5
				c-0.9,0.6-1.2,1.5-1.2,1.9c-0.1,0.4-0.1,1.3,0.5,2.1L605.6,348.2z"/>
		</g>
		<g>
			<path d="M608.1,358c-3.6,0-7.1-1.8-9.3-4.7l-66-92.6c-1.8-2.4-2.5-5.5-2-8.5c0.5-3,2.2-5.7,4.7-7.4c2.4-1.8,5.4-2.5,8.5-2
				c3,0.5,5.7,2.2,7.4,4.7l56.7,79.5l56.7-79.5c3.7-5.1,10.7-6.3,15.9-2.7c5.2,3.7,6.3,10.7,2.7,15.9l-66,92.6
				C615.4,356.2,611.9,358,608.1,358z M542,247.6c-1.3,0-2.6,0.4-3.7,1.2c-1.4,1-2.4,2.5-2.6,4.2c-0.3,1.7,0.1,3.4,1.1,4.7l66,92.6
				c1.2,1.6,3.2,2.7,5.3,2.7c2.1,0,4-0.9,5-2.5l0.1-0.1l66-92.6c2-2.9,1.4-6.8-1.5-8.9c-2.9-2-6.8-1.3-8.9,1.5L608,335.6l-60.7-85.3
				c-1-1.4-2.5-2.3-4.2-2.6C542.7,247.6,542.4,247.6,542,247.6z"/>
			<path d="M608.1,364c-5.5,0-10.8-2.7-14.1-7.1l-0.1-0.1l-66-92.6c-2.7-3.7-3.8-8.3-3-13c0.8-4.6,3.3-8.6,7.1-11.3
				c3.7-2.7,8.3-3.8,12.9-3c4.6,0.8,8.7,3.3,11.3,7.2l51.7,72.6l51.8-72.7c5.7-7.9,16.3-9.7,24.2-4.1c7.9,5.7,9.7,16.4,4.2,24.2
				l-65.9,92.5C619.2,361.2,613.9,364,608.1,364z M607.7,346.7c0.1,0.1,0.4,0.2,0.5,0.2l0.1-0.1l66-92.6c0.1-0.2,0.1-0.4-0.1-0.6
				c-0.2-0.1-0.4,0-0.6,0.2L608,345.9l-65.6-92.1c-0.1-0.1-0.2-0.2-0.3-0.2l-0.1,0c-0.1,0-0.1,0-0.1,0l-0.1,0.1
				c-0.1,0.1-0.2,0.2-0.2,0.3c0,0.1,0,0.2,0,0.2L607.7,346.7z M608.3,346.9L608.3,346.9L608.3,346.9z"/>
		</g>
	</g>
	<g>
		<g>
			<path d="M183.7,493.9c-2.8,0-5.5-1.3-7.3-3.7l-58.7-82.4L59,490.1c-2.8,4-8.4,4.9-12.4,2.1c-4-2.9-4.9-8.4-2.1-12.4l66-92.6
				c1.7-2.3,4.4-3.7,7.2-3.7l0,0c2.9,0,5.6,1.4,7.2,3.7l66,92.6c2.8,4,1.9,9.6-2.1,12.4C187.3,493.4,185.5,493.9,183.7,493.9z"/>
			<path d="M183.7,499.9c-4.8,0-9.2-2.2-12.1-6.1l-0.1-0.1l-53.8-75.5l-53.8,75.4c-2.3,3.2-5.7,5.4-9.6,6c-3.9,0.7-7.8-0.2-11.1-2.5
				l-0.1-0.1c-6.7-4.8-8.2-13.9-3.5-20.7l66.1-92.7c2.8-3.8,7.3-6.1,12-6.1c4.9,0,9.4,2.3,12.1,6.3l66,92.5
				c4.7,6.8,3.2,16.1-3.5,20.8C189.8,498.9,186.7,499.9,183.7,499.9z M181.2,486.7c0.6,0.8,1.5,1.3,2.5,1.3c0.5,0,1.1-0.2,1.6-0.5
				l0.1-0.1c1.3-0.9,1.5-2.7,0.6-4l-66-92.6c-0.5-0.8-1.4-1.2-2.3-1.2c-0.9,0-1.8,0.5-2.4,1.2l-66,92.5c-0.9,1.3-0.6,3.1,0.7,4
				c1.3,0.9,3.1,0.6,4-0.7l63.6-89.2L181.2,486.7z"/>
		</g>
		<g>
			<path d="M183.7,496.4c-3.7,0-7.1-1.7-9.3-4.7l-56.7-79.6L61,491.6c-3.6,5.1-10.7,6.3-15.9,2.7c-5.2-3.7-6.3-10.7-2.7-15.9
				l66-92.6c2.2-3,5.6-4.7,9.2-4.7c3.7,0,7.2,1.8,9.3,4.8l66,92.6c3.6,5.2,2.4,12.3-2.7,15.9C188.4,495.7,186,496.4,183.7,496.4z
				 M117.7,403.5l60.7,85.3c1.3,1.7,3.2,2.6,5.3,2.6c1.3,0,2.6-0.4,3.6-1.2c2.9-2,3.6-6,1.5-9l-66-92.6c-1.2-1.7-3.1-2.7-5.2-2.7
				c-2,0-3.9,1-5.2,2.7l-66,92.6c-2,2.9-1.4,6.8,1.5,8.9c2.9,2,6.9,1.4,8.9-1.5L117.7,403.5z"/>
			<path d="M183.7,502.4c-5.6,0-10.7-2.6-14.1-7.1l-0.1-0.1l-51.8-72.7l-51.8,72.6c-2.6,3.7-6.6,6.3-11.2,7c-4.6,0.8-9.2-0.3-13-2.9
				c-7.9-5.7-9.7-16.4-4.2-24.2l66.1-92.7c3.3-4.5,8.6-7.2,14.1-7.2c5.7,0,11,2.7,14.2,7.3l65.9,92.5c5.5,7.9,3.7,18.8-4.1,24.3
				C190.8,501.3,187.3,502.4,183.7,502.4z M183.3,485.2c0.1,0.1,0.2,0.2,0.4,0.2c0,0,0,0,0.1-0.1l0.1-0.1c0.2-0.1,0.2-0.4,0.1-0.6
				l-66-92.5c-0.1-0.1-0.1-0.1-0.3-0.1c0,0-0.2,0.1-0.3,0.2l-65.9,92.5c-0.1,0.2-0.1,0.4,0.1,0.6c0.2,0.1,0.4,0.1,0.5-0.1l65.7-92.1
				L183.3,485.2z"/>
		</g>
	</g>
</g>
</svg>
