<?xml version="1.0" encoding="utf-8"?>
<!-- Generator: Adobe Illustrator 26.5.0, SVG Export Plug-In . SVG Version: 6.00 Build 0)  -->
<svg version="1.1" id="katman_1" xmlns="http://www.w3.org/2000/svg" xmlns:xlink="http://www.w3.org/1999/xlink" x="0px" y="0px"
	 viewBox="0 0 725.7 725.7" style="enable-background:new 0 0 725.7 725.7;" xml:space="preserve">
<style type="text/css">
	.st0{stroke:#000000;stroke-width:5;stroke-miterlimit:10;}
</style>
<g>
	<g>
		<path class="st0" d="M197.5,33.8H41.9c-4.9,0-8.9,4-8.9,8.9v152.7c0,4.9,4,8.9,8.9,8.9s8.9-4,8.9-8.9V51.6h146.8
			c4.9,0,8.9-4,8.9-8.9C206.4,37.8,202.5,33.8,197.5,33.8z"/>
	</g>
	<g>
		<path class="st0" d="M683.8,35.3H531.1c-4.9,0-8.9,4-8.9,8.9s4,8.9,8.9,8.9h143.8v146.8c0,4.9,4,8.9,8.9,8.9s8.9-4,8.9-8.9V44.2
			C692.7,39.3,688.7,35.3,683.8,35.3z"/>
	</g>
	<g>
		<path class="st0" d="M683.8,524.5c-4.9,0-8.9,4-8.9,8.9v143.8H528.1c-4.9,0-8.9,4-8.9,8.9s4,8.9,8.9,8.9h155.7
			c4.9,0,8.9-4,8.9-8.9V533.4C692.7,528.5,688.7,524.5,683.8,524.5z"/>
	</g>
	<g>
		<path class="st0" d="M194.6,675.7H50.8V528.9c0-4.9-4-8.9-8.9-8.9s-8.9,4-8.9,8.9v155.7c0,4.9,4,8.9,8.9,8.9h152.7
			c4.9,0,8.9-4,8.9-8.9S199.5,675.7,194.6,675.7z"/>
	</g>
</g>
<g>
	<path class="st0" d="M243.3,481.1V232.6h18.1v248.5H243.3z"/>
	<path class="st0" d="M348,481.1V232.6h89.1c20.8,0,38.7,3.3,53.6,9.9c14.9,6.6,26.4,16.2,34.4,28.6s12.1,27.5,12.1,45.3
		c0,17.3-4,32.2-12.1,44.7c-8,12.5-19.5,22.1-34.4,28.8c-14.9,6.6-32.8,9.9-53.6,9.9H358l8.2-8.5v89.8L348,481.1L348,481.1z
		 M366.1,392.3l-8.2-8.9h79.2c26.7,0,47-5.9,60.9-17.6c13.8-11.7,20.8-28.2,20.8-49.5c0-21.5-6.9-38.2-20.8-49.9
		c-13.8-11.7-34.1-17.6-60.9-17.6H358l8.2-8.9v152.4H366.1z"/>
</g>
</svg>
