<?xml version="1.0" encoding="utf-8"?>
<!-- Generator: Adobe Illustrator 26.5.0, SVG Export Plug-In . SVG Version: 6.00 Build 0)  -->
<svg version="1.1" id="katman_1" xmlns="http://www.w3.org/2000/svg" xmlns:xlink="http://www.w3.org/1999/xlink" x="0px" y="0px"
	 viewBox="0 0 725.7 725.7" style="enable-background:new 0 0 725.7 725.7;" xml:space="preserve">
<g>
	<g>
		<g>
			<path d="M681.5,691.9h-490c-4.9,0-8.9-4-8.9-8.9V447.3c0-4.9,4-8.9,8.9-8.9s8.9,4,8.9,8.9v226.8h472.3V51.6H200.4v240.1
				c0,4.9-4,8.9-8.9,8.9s-8.9-4-8.9-8.9v-249c0-4.9,4-8.9,8.9-8.9h490c4.9,0,8.9,4,8.9,8.9V683C690.4,687.9,686.4,691.9,681.5,691.9
				z"/>
			<path d="M681.5,697.9h-490c-8.2,0-14.9-6.7-14.9-14.9V447.3c0-8.2,6.7-14.9,14.9-14.9c8.2,0,14.9,6.7,14.9,14.9v220.8h460.3V57.6
				H206.4v234.1c0,8.2-6.7,14.9-14.9,14.9c-8.2,0-14.9-6.7-14.9-14.9v-249c0-8.2,6.7-14.9,14.9-14.9h490c8.2,0,14.9,6.7,14.9,14.9
				V683C696.4,691.2,689.7,697.9,681.5,697.9z M191.5,444.4c-1.6,0-2.9,1.3-2.9,2.9V683c0,1.6,1.3,2.9,2.9,2.9h490
				c1.6,0,2.9-1.3,2.9-2.9V42.7c0-1.6-1.3-2.9-2.9-2.9h-490c-1.6,0-2.9,1.3-2.9,2.9v249c0,1.6,1.3,2.9,2.9,2.9s2.9-1.3,2.9-2.9V45.6
				h484.3v634.5H194.4V447.3C194.4,445.7,193.1,444.4,191.5,444.4z"/>
		</g>
		<g>
			<path d="M681.5,694.4h-490c-6.3,0-11.4-5.1-11.4-11.4V447.3c0-6.3,5.1-11.4,11.4-11.4s11.4,5.1,11.4,11.4v224.3h467.3V54.1H202.9
				v237.6c0,6.3-5.1,11.4-11.4,11.4s-11.4-5.1-11.4-11.4v-249c0-6.3,5.1-11.4,11.4-11.4h490c6.3,0,11.4,5.1,11.4,11.4V683
				C692.9,689.3,687.8,694.4,681.5,694.4z M191.5,440.9c-3.5,0-6.4,2.9-6.4,6.4V683c0,3.5,2.9,6.4,6.4,6.4h490
				c3.5,0,6.4-2.9,6.4-6.4V42.7c0-3.5-2.9-6.4-6.4-6.4h-490c-3.5,0-6.4,2.9-6.4,6.4v249c0,3.5,2.9,6.4,6.4,6.4s6.4-2.9,6.4-6.4V49.1
				h477.3v627.5H197.9V447.3C197.9,443.8,195,440.9,191.5,440.9z"/>
			<path d="M681.5,700.4h-490c-9.6,0-17.4-7.8-17.4-17.4V447.3c0-9.6,7.8-17.4,17.4-17.4s17.4,7.8,17.4,17.4v218.3h455.3V60.1H208.9
				v231.6c0,9.6-7.8,17.4-17.4,17.4s-17.4-7.8-17.4-17.4v-249c0-9.6,7.8-17.4,17.4-17.4h490c9.6,0,17.4,7.8,17.4,17.4V683
				C698.9,692.6,691.1,700.4,681.5,700.4z M191.5,446.9c-0.2,0-0.4,0.2-0.4,0.4V683c0,0.2,0.2,0.4,0.4,0.4h490
				c0.2,0,0.4-0.2,0.4-0.4V42.7c0-0.2-0.2-0.4-0.4-0.4h-490c-0.2,0-0.4,0.2-0.4,0.4v249c0,0.2,0.2,0.4,0.4,0.4s0.4-0.2,0.4-0.4V43.1
				h489.3v639.5H191.9V447.3C191.9,447.1,191.7,446.9,191.5,446.9z"/>
		</g>
	</g>
	<g>
		<g>
			<path d="M425.1,378.4H44.2c-4.9,0-8.9-4-8.9-8.9s4-8.9,8.9-8.9h380.9c4.9,0,8.9,4,8.9,8.9S430,378.4,425.1,378.4z"/>
			<path d="M425.1,384.4H44.2c-8.2,0-14.9-6.7-14.9-14.9c0-8.2,6.7-14.9,14.9-14.9h380.9c8.2,0,14.9,6.7,14.9,14.9
				C440,377.7,433.3,384.4,425.1,384.4z M44.2,366.6c-1.6,0-2.9,1.3-2.9,2.9c0,1.6,1.3,2.9,2.9,2.9h380.9c1.6,0,2.9-1.3,2.9-2.9
				c0-1.6-1.3-2.9-2.9-2.9H44.2z"/>
		</g>
		<g>
			<path d="M425.1,380.9H44.2c-6.3,0-11.4-5.1-11.4-11.4c0-6.3,5.1-11.4,11.4-11.4h380.9c6.3,0,11.4,5.1,11.4,11.4
				C436.5,375.8,431.4,380.9,425.1,380.9z M44.2,363.1c-3.5,0-6.4,2.9-6.4,6.4c0,3.5,2.9,6.4,6.4,6.4h380.9c3.5,0,6.4-2.9,6.4-6.4
				c0-3.5-2.9-6.4-6.4-6.4H44.2z"/>
			<path d="M425.1,386.9H44.2c-9.6,0-17.4-7.8-17.4-17.4c0-9.6,7.8-17.4,17.4-17.4h380.9c9.6,0,17.4,7.8,17.4,17.4
				C442.5,379.1,434.7,386.9,425.1,386.9z M44.2,369.1c-0.2,0-0.4,0.2-0.4,0.4s0.2,0.4,0.4,0.4h380.9c0.2,0,0.4-0.2,0.4-0.4
				s-0.2-0.4-0.4-0.4H44.2z"/>
		</g>
	</g>
	<g>
		<g>
			<path d="M344,444.3c-2.8,0-5.5-1.3-7.3-3.7c-2.8-4-1.9-9.6,2.1-12.4l82.4-58.7l-82.4-58.7c-4-2.9-4.9-8.4-2.1-12.4
				c2.9-4,8.4-4.9,12.4-2.1l92.5,65.9c2.3,1.7,3.7,4.4,3.7,7.2c0,2.9-1.4,5.6-3.7,7.2l-92.5,65.9C347.6,443.8,345.8,444.3,344,444.3
				z"/>
			<path d="M344,450.3c-4.8,0-9.2-2.2-12.1-6.1l-0.1-0.2c-4.7-6.8-3.1-16.1,3.6-20.8l75.5-53.8l-75.5-53.8c-6.7-4.9-8.3-14-3.5-20.7
				c4.9-6.8,14-8.3,20.8-3.6l92.6,66c3.8,2.8,6.1,7.3,6.1,12c0,4.9-2.3,9.4-6.3,12.1l-92.2,65.7C350.4,449.2,347.3,450.3,344,450.3z
				 M341.6,437.1c0.6,0.8,1.5,1.2,2.4,1.2c0.8,0,1.1-0.2,1.2-0.3l0.4-0.4l92.5-65.9c0.8-0.5,1.2-1.4,1.2-2.3c0-0.9-0.5-1.8-1.2-2.4
				l-92.4-65.9c-1.3-0.9-3.1-0.6-4.1,0.7c-0.9,1.3-0.6,3.1,0.8,4l89.2,63.6l-89.3,63.6C341,434,340.7,435.8,341.6,437.1z"/>
		</g>
		<g>
			<path d="M344,446.8c-3.7,0-7.1-1.7-9.3-4.7c-3.7-5.2-2.5-12.4,2.7-15.9l79.5-56.7l-79.5-56.7c-5.1-3.7-6.3-10.7-2.7-15.9
				c3.7-5.2,10.7-6.3,15.9-2.7l92.5,65.9c3,2.2,4.8,5.6,4.8,9.2c0,3.7-1.8,7.2-4.8,9.3l-92.4,65.8C348.8,446,346.5,446.8,344,446.8z
				 M344,297.2c-2,0-4,0.9-5.2,2.7c-2,2.9-1.4,6.8,1.5,8.9l85.2,60.7l-85.3,60.7c-2.9,2-3.5,6-1.5,8.9c1.2,1.6,3.2,2.6,5.3,2.6
				c1.4,0,2.6-0.4,3.5-1.2l0.2-0.1l92.5-65.9c1.7-1.2,2.7-3.1,2.7-5.2c0-2-1-3.9-2.7-5.2l-92.5-65.9
				C346.5,297.5,345.2,297.2,344,297.2z"/>
			<path d="M344,452.8c-5.6,0-10.7-2.6-14.1-7.1l-0.1-0.2c-2.7-3.8-3.7-8.5-3-13c0.8-4.6,3.3-8.6,7.1-11.3l72.6-51.7l-72.7-51.8
				c-7.9-5.7-9.7-16.3-4.1-24.2c5.7-7.9,16.4-9.7,24.2-4.2l92.6,66c4.5,3.3,7.2,8.6,7.2,14.1c0,5.7-2.7,11-7.3,14.2l-92.2,65.7
				C351.4,451.6,347.9,452.8,344,452.8z M343.6,435.6c0.1,0.1,0.2,0.1,0.3,0.1l0.3-0.2l92.5-65.9c0.1-0.1,0.1-0.1,0.1-0.3
				c0,0-0.1-0.2-0.2-0.3l-92.4-65.8c-0.1-0.1-0.4-0.1-0.6,0.1c-0.1,0.2,0,0.4,0.2,0.6l92.1,65.6l-92.1,65.6
				C343.6,435.2,343.5,435.4,343.6,435.6z"/>
		</g>
	</g>
</g>
</svg>
