<?xml version="1.0" encoding="utf-8"?>
<!-- Generator: Adobe Illustrator 26.5.0, SVG Export Plug-In . SVG Version: 6.00 Build 0)  -->
<svg version="1.1" id="katman_1" xmlns="http://www.w3.org/2000/svg" xmlns:xlink="http://www.w3.org/1999/xlink" x="0px" y="0px"
	 viewBox="0 0 725.7 725.7" style="enable-background:new 0 0 725.7 725.7;" xml:space="preserve">
<style type="text/css">
	.st0{fill:#504F4F;}
</style>
<g>
	<path class="st0" d="M520.5,685.6H210.5c-4.8,0-8.7-3.7-9.1-8.4l-45.8-553.5c-0.2-2.6,0.7-5.1,2.4-7c1.7-1.9,4.2-3,6.7-3h401.7
		c2.6,0,5,1.1,6.7,3c1.7,1.9,2.6,4.4,2.4,7l-45.8,553.5C529.3,682,525.3,685.6,520.5,685.6z M218.9,667.3h293.2l44.3-535.2H174.6
		L218.9,667.3z"/>
	<path class="st0" d="M604.9,132.1H120.7c-5.1,0-9.2-4.1-9.2-9.2c0-5.1,4.1-9.2,9.2-9.2h484.2c5.1,0,9.2,4.1,9.2,9.2
		C614.1,128,610,132.1,604.9,132.1z"/>
	<g>
		<path class="st0" d="M365.5,635.8c-5.1,0-9.2-4.1-9.2-9.2V186.7c0-5.1,4.1-9.2,9.2-9.2c5.1,0,9.2,4.1,9.2,9.2v439.9
			C374.7,631.7,370.6,635.8,365.5,635.8z"/>
		<path class="st0" d="M443.4,634.9c-0.3,0-0.5,0-0.8,0c-5-0.4-8.8-4.9-8.3-9.9l38.4-438.2c0.4-5,5-8.8,9.9-8.3
			c5,0.4,8.8,4.9,8.3,9.9l-38.4,438.2C452.1,631.4,448.1,634.9,443.4,634.9z"/>
		<path class="st0" d="M287.6,634.9c-4.7,0-8.7-3.6-9.1-8.4L240,188.3c-0.4-5,3.3-9.5,8.3-9.9c5-0.3,9.5,3.3,9.9,8.3L296.7,625
			c0.4,5-3.3,9.5-8.3,9.9C288.1,634.9,287.8,634.9,287.6,634.9z"/>
	</g>
	<path class="st0" d="M447.2,132.1c-5.1,0-9.2-4.1-9.2-9.2V65c0-3.6-3-6.6-6.6-6.6H294.3c-3.6,0-6.6,3-6.6,6.6v57.9
		c0,5.1-4.1,9.2-9.2,9.2c-5.1,0-9.2-4.1-9.2-9.2V65c0-13.8,11.2-24.9,24.9-24.9h137.1c13.7,0,24.9,11.2,24.9,24.9v57.9
		C456.3,128,452.2,132.1,447.2,132.1z"/>
</g>
</svg>
