<?xml version="1.0" encoding="utf-8"?>
<!-- Generator: Adobe Illustrator 26.5.0, SVG Export Plug-In . SVG Version: 6.00 Build 0)  -->
<svg version="1.1" id="katman_1" xmlns="http://www.w3.org/2000/svg" xmlns:xlink="http://www.w3.org/1999/xlink" x="0px" y="0px"
	 viewBox="0 0 725.7 725.7" style="enable-background:new 0 0 725.7 725.7;" xml:space="preserve">
<g>
	<g>
		<g>
			<path d="M587.6,536.3c5.5,0,9.8-4.4,9.8-9.8V130.3v-0.1c-0.1-28.9-25.6-55.3-71.9-74.3C482,37.9,424.2,28.1,363,28.1
				s-119.1,9.8-162.7,27.7c-46.3,19-71.8,45.4-71.9,74.3c0,0.1,0,0.1,0,0.1v59.2c0,5.5,4.4,9.8,9.8,9.8s9.8-4.4,9.8-9.8v-17.2
				c12.1,12.2,29.7,23.2,52.2,32.5c43.6,18,101.4,27.8,162.6,27.8s119-9.8,162.6-27.8c22.5-9.3,40.1-20.3,52.2-32.5v84.9
				c-0.1,20.2-21.8,40.6-59.8,56.2c-41.3,17-96.4,26.4-155.1,26.4s-113.8-9.4-155.1-26.4c-37.9-15.6-59.7-36.1-59.8-56.2v-22
				c0-5.5-4.4-9.8-9.8-9.8s-9.8,4.4-9.8,9.8v360.1c0,29,25.5,55.4,71.9,74.5c43.6,18,101.4,27.8,162.6,27.8s119-9.8,162.6-27.8
				c46.4-19.1,71.9-45.5,71.9-74.5V572c0-5.5-4.4-9.8-9.8-9.8c-5.5,0-9.8,4.4-9.8,9.8v23.2c0,20.2-21.8,40.7-59.8,56.3
				c-41.3,17-96.4,26.4-155.1,26.4s-113.8-9.4-155.1-26.4c-38-15.6-59.8-36.1-59.8-56.3v-84.8c12.1,12.1,29.7,23.2,52.2,32.5
				c43.6,18,101.4,27.8,162.6,27.8s119-9.8,162.6-27.8c22.5-9.3,40.1-20.3,52.2-32.5v15.8C577.8,531.9,582.2,536.3,587.6,536.3
				L587.6,536.3z M518.1,186.7c-41.3,17-96.4,26.4-155.1,26.4s-113.9-9.4-155.1-26.4c-38-15.6-59.8-36.1-59.8-56.3
				s21.8-40.7,59.8-56.3c41.3-17,96.4-26.4,155.1-26.4S476.9,57,518.1,74c38,15.6,59.8,36.1,59.8,56.3
				C577.8,150.5,556.1,171.1,518.1,186.7L518.1,186.7z M148.1,299.2c12.1,12.1,29.7,23.2,52.2,32.5c43.6,18,101.4,27.8,162.6,27.8
				s119-9.8,162.6-27.8c22.5-9.3,40.1-20.3,52.2-32.5v0.3c0,20.2-21.8,40.7-59.8,56.3c-41.1,17-96.2,26.4-154.9,26.4
				s-113.8-9.4-155.1-26.4c-38-15.6-59.8-36.1-59.8-56.3V299.2L148.1,299.2z M577.8,426.5c-0.1,20.2-21.8,40.6-59.8,56.2
				c-41.3,17-96.4,26.4-155.1,26.4c-38.9,0-77.2-4.2-110.6-12.2c-5.3-1.2-10.5,2-11.9,7.3c-1.2,5.3,2,10.6,7.3,11.9
				c34.9,8.3,74.7,12.8,115.2,12.8c61.3,0,119-9.8,162.6-27.8c22.5-9.3,40.1-20.3,52.2-32.5v0.3c0,20.2-21.8,40.7-59.8,56.3
				c-41.3,17-96.4,26.4-155.1,26.4s-113.8-9.4-155.1-26.4c-38-15.6-59.8-36.1-59.8-56.3v-0.3c12.5,12.6,31,23.9,54.6,33.4
				c1.1,0.5,2.4,0.7,3.6,0.7c3.9,0,7.6-2.3,9.1-6.1c2-5.1-0.5-10.7-5.5-12.7c-39.3-15.7-61.9-36.5-61.9-57.1v-84.9
				c12.1,12.1,29.7,23.2,52.2,32.5c43.6,18,101.4,27.8,162.6,27.8s119-9.8,162.6-27.8c22.5-9.3,40.1-20.3,52.2-32.5v84.8H577.8z"/>
			<path d="M362.7,703.6c-62.1,0-120.6-10-164.9-28.3c-48.8-20.1-75.6-48.5-75.6-80V235.1c0-8.7,7.1-15.9,15.9-15.9
				c8.7,0,15.8,7.1,15.8,15.9v22c0.1,17.3,21,36.3,56.1,50.7c40.6,16.7,94.9,25.9,152.8,25.9c58,0,112.2-9.2,152.8-25.9
				c35-14.4,56-33.3,56.1-50.7v-71.6c-11.7,9.2-26.4,17.5-43.9,24.7c-44.2,18.2-102.8,28.3-164.9,28.3s-120.6-10-164.9-28.3
				c-17.5-7.2-32.3-15.5-43.9-24.7v3.9c0,8.7-7.1,15.9-15.9,15.9s-15.8-7.1-15.8-15.9v-59.3c0.1-31.5,27-59.8,75.6-79.8
				C242.4,32.1,300.9,22.1,363,22.1c62.1,0,120.6,10,164.9,28.3c48.7,20,75.5,48.4,75.6,79.8v396.2c0,8.7-7.1,15.9-15.9,15.9
				c-8.5,0-15.6-6.7-16.3-15.5l0-0.5v-2.4c-11.7,9.2-26.4,17.5-43.9,24.7c-44.2,18.2-102.8,28.3-164.9,28.3
				c-62.1,0-120.6-10-164.9-28.3c-17.5-7.2-32.2-15.5-43.9-24.8v71.5c0,17.4,21,36.4,56,50.8c40.6,16.7,94.9,25.9,152.8,25.9
				s112.2-9.2,152.8-25.9c35.1-14.4,56.1-33.4,56.1-50.8V572c0-8.7,7.1-15.8,15.9-15.8c8.7,0,15.8,7.1,15.8,15.8v23.2
				c0,31.5-26.9,59.9-75.6,80C483.3,693.6,424.8,703.6,362.7,703.6z M138.1,231.3c-2.1,0-3.9,1.7-3.9,3.9v360.1
				c0,26.3,24.2,50.8,68.2,68.9c42.8,17.7,99.7,27.4,160.3,27.4s117.5-9.7,160.3-27.4c44-18.1,68.2-42.6,68.2-68.9V572
				c0-2.1-1.7-3.8-3.8-3.8s-3.9,1.7-3.9,3.8v23.2c0,22.8-23.1,45.3-63.5,61.9c-42,17.3-97.9,26.8-157.4,26.8
				c-59.5,0-115.4-9.5-157.4-26.8c-40.3-16.6-63.5-39.1-63.5-61.9V496l10.2,10.2c11.8,11.8,28.7,22.3,50.3,31.2
				c42.8,17.7,99.7,27.4,160.3,27.4s117.5-9.7,160.3-27.4c21.7-8.9,38.6-19.4,50.2-31.2l10.3-10.3v30c0.3,2.5,2.1,4.3,4.3,4.3
				c2.1,0,3.9-1.7,3.9-3.9V130.3c-0.1-26.4-24.3-50.8-68.2-68.9C480.5,43.8,423.5,34.1,363,34.1c-60.5,0-117.5,9.7-160.4,27.3
				c-43.9,18-68.1,42.5-68.2,68.8v59.3c0,2.1,1.7,3.9,3.8,3.9c2.1,0,3.9-1.7,3.9-3.9v-31.8l10.3,10.3c11.7,11.7,28.6,22.2,50.2,31.2
				c42.8,17.7,99.7,27.4,160.3,27.4c60.5,0,117.5-9.7,160.3-27.4c21.7-8.9,38.6-19.4,50.2-31.2l10.3-10.3v99.5
				c-0.1,23.1-22.7,45-63.5,61.8c-42,17.3-97.9,26.8-157.4,26.8s-115.4-9.5-157.4-26.8c-40.8-16.8-63.4-38.7-63.5-61.7v-22
				C141.9,233,140.2,231.3,138.1,231.3z M362.8,557.5c-59.5,0-115.4-9.5-157.4-26.8c-40.3-16.6-63.5-39.1-63.5-61.9v-14.8l10.3,10.3
				c12,12.1,29.7,22.9,52.6,32c0.4,0.2,0.9,0.2,1.4,0.2c1.6,0,2.9-0.9,3.5-2.3c0.8-2-0.2-4.1-2.1-4.9
				c-41.7-16.6-65.6-39.5-65.6-62.7v-99.4l10.2,10.2c11.8,11.8,28.7,22.3,50.3,31.2c42.8,17.7,99.7,27.4,160.3,27.4
				s117.5-9.7,160.3-27.4c21.7-8.9,38.6-19.4,50.2-31.2l10.3-10.3v93.4h0.3l0,6c-0.1,23.1-22.7,45-63.5,61.8
				c-42,17.3-97.9,26.8-157.4,26.8c-39.5,0-78.2-4.3-112-12.4c-2-0.5-4.1,0.8-4.6,2.9c-0.2,1,0,2,0.5,2.9c0.5,0.9,1.4,1.5,2.3,1.7
				c34.7,8.3,74.1,12.7,113.9,12.7c60.5,0,117.5-9.7,160.3-27.4c21.7-9,38.6-19.4,50.2-31.2l10.3-10.3v14.9
				c0,22.8-23.1,45.3-63.5,61.9C478.2,547.9,422.3,557.5,362.8,557.5z M161.1,487.1c8.9,11.6,25.9,23,48.9,32.5
				c40.6,16.7,94.9,25.9,152.8,25.9c58,0,112.2-9.2,152.8-25.9c22.9-9.4,39.8-20.8,48.8-32.4c-10.3,7.1-22.6,13.6-36.7,19.4
				c-44.2,18.2-102.8,28.3-164.9,28.3c-40.7,0-81-4.5-116.6-13c-8.5-2-13.7-10.6-11.7-19.1l0-0.1c2.1-8.4,10.7-13.6,19.1-11.6
				c32.9,7.9,70.7,12.1,109.3,12.1c58,0,112.2-9.2,152.8-25.9c32.7-13.4,53.1-30.9,55.8-47.3V355c-11.7,9.2-26.4,17.5-43.9,24.7
				C483.3,398,424.8,408,362.7,408c-62.1,0-120.6-10-164.9-28.3c-17.5-7.2-32.2-15.5-43.9-24.8v71.6c0,17.7,21.7,37,58.1,51.5
				c8.1,3.3,12,12.4,8.8,20.5c-2.4,6-8.2,9.9-14.7,9.9c-2.1,0-4.1-0.4-5.9-1.1C185.1,501.3,172,494.5,161.1,487.1z M363,388.2
				c-59.5,0-115.4-9.5-157.4-26.8c-40.3-16.6-63.5-39.1-63.5-61.9v-14.8l10.2,10.2c11.8,11.8,28.7,22.3,50.3,31.2
				c42.8,17.7,99.7,27.4,160.3,27.4c60.5,0,117.5-9.7,160.3-27.4c21.7-8.9,38.6-19.4,50.2-31.2l10.3-10.3v14.9
				c0,22.8-23.1,45.3-63.5,61.9C478.4,378.7,422.5,388.2,363,388.2z M161.3,317.8c8.9,11.6,25.9,23,48.8,32.5
				C250.8,367,305,376.2,363,376.2c58,0,112.2-9.2,152.6-25.9c22.9-9.4,39.8-20.8,48.8-32.4c-10.3,7.1-22.6,13.6-36.7,19.4
				c-44.2,18.2-102.8,28.3-164.9,28.3s-120.6-10-164.9-28.3C184,331.5,171.7,325,161.3,317.8z M363,219
				c-59.6,0-115.5-9.5-157.4-26.8c-40.3-16.6-63.5-39.1-63.5-61.9c0-22.8,23.1-45.3,63.5-61.9c42-17.3,97.9-26.8,157.4-26.8
				c59.6,0,115.5,9.5,157.4,26.8c40.3,16.6,63.5,39.1,63.5,61.9c-0.1,22.8-23.2,45.4-63.5,61.9C478.4,209.5,422.5,219,363,219z
				 M363,53.6c-58,0-112.2,9.2-152.8,25.9c-35.1,14.4-56.1,33.4-56.1,50.8c0,17.4,21,36.4,56,50.8C250.7,197.8,304.9,207,363,207
				c58,0,112.2-9.2,152.8-25.9l0,0c35-14.4,56-33.4,56-50.8c0-17.4-21-36.3-56-50.7C475.3,62.8,421,53.6,363,53.6z"/>
		</g>
		<g>
			<path d="M362.7,698c-61.4,0-119.1-9.9-162.7-27.9c-46.5-19.2-72.1-45.8-72.1-74.8V235.1c0-5.6,4.6-10.2,10.2-10.2
				c5.6,0,10.2,4.6,10.2,10.2v22c0.1,20,21.8,40.4,59.5,55.9c41.3,17,96.3,26.4,155,26.4s113.7-9.4,155-26.4
				c37.7-15.5,59.5-35.9,59.5-55.9v-84.1c-12.2,12.1-29.6,22.9-51.7,32c-43.6,18-101.4,27.9-162.7,27.9
				c-61.4,0-119.1-9.9-162.7-27.9c-22.1-9.1-39.5-19.9-51.7-32v16.3c0,5.6-4.6,10.2-10.2,10.2c-5.6,0-10.2-4.6-10.2-10.2v-59.3
				c0.1-29,25.7-55.5,72.1-74.6C243.8,37.6,301.7,27.7,363,27.7c61.4,0,119.1,9.9,162.7,27.9c46.4,19.1,72,45.6,72.1,74.6v396.2
				c0,5.6-4.6,10.2-10.2,10.2c-5.6,0-10.2-4.5-10.7-10.4l0-14.9c-12.2,12.1-29.6,22.9-51.7,32c-43.6,18-101.4,27.9-162.7,27.9
				c-61.4,0-119.1-9.9-162.7-27.9c-21.9-9.1-39.3-19.8-51.7-32v84c0,20,21.7,40.5,59.5,56c41.3,17,96.3,26.4,155,26.4
				c58.7,0,113.7-9.4,155-26.4c37.8-15.5,59.5-35.9,59.5-56V572c0-5.6,4.6-10.2,10.2-10.2c5.6,0,10.2,4.6,10.2,10.2v23.2
				c0,29.1-25.6,55.6-72.1,74.8C481.8,688.1,424.1,698,362.7,698z M138.1,225.6c-5.2,0-9.5,4.3-9.5,9.5v360.1
				c0,28.8,25.5,55.1,71.7,74.2c43.5,17.9,101.2,27.8,162.4,27.8s119-9.9,162.4-27.8c46.2-19.1,71.7-45.4,71.7-74.2V572
				c0-5.2-4.3-9.5-9.5-9.5s-9.5,4.3-9.5,9.5v23.2c0,20.4-21.9,41-60,56.7c-41.3,17-96.5,26.4-155.2,26.4
				c-58.8,0-113.9-9.4-155.2-26.4c-38.1-15.7-60-36.3-60-56.7v-85.7l0.6,0.6c12.4,12.4,29.9,23.3,52.1,32.4
				c43.5,17.9,101.2,27.8,162.4,27.8s119-9.9,162.4-27.8c22.4-9.2,39.9-20.2,52.1-32.4l0.6-0.6v16.6c0.5,5.5,4.8,9.7,10,9.7
				c5.2,0,9.5-4.3,9.5-9.5V130.2c-0.1-28.7-25.6-55-71.7-74C481.9,38.3,424.3,28.5,363,28.5c-61.2,0-119,9.8-162.5,27.7
				c-46.1,19-71.6,45.2-71.7,74v59.3c0,5.2,4.3,9.5,9.5,9.5s9.5-4.3,9.5-9.5v-18.1l0.6,0.6c12.2,12.3,29.7,23.2,52.1,32.4
				c43.5,17.9,101.2,27.8,162.4,27.8c61.3,0,119-9.9,162.4-27.8c22.4-9.2,39.9-20.2,52.1-32.4l0.6-0.6v85.8
				c-0.1,20.3-22,40.9-60,56.6c-41.3,17-96.5,26.4-155.2,26.4s-113.9-9.4-155.2-26.4c-38-15.7-59.9-36.3-60-56.6v-22
				C147.6,229.9,143.3,225.6,138.1,225.6z M362.8,551.8c-58.8,0-113.9-9.4-155.2-26.4c-38.1-15.7-60-36.3-60-56.7v-1.2l0.6,0.6
				c12.5,12.6,30.9,23.8,54.5,33.3c1,0.4,2.2,0.6,3.5,0.6c3.9,0,7.3-2.3,8.8-5.9c1.9-4.8-0.4-10.3-5.3-12.3
				c-39.5-15.7-62.1-36.7-62.1-57.4v-85.8l0.6,0.6c12.4,12.4,29.9,23.3,52.1,32.4c43.5,17.9,101.2,27.8,162.4,27.8
				s119-9.9,162.4-27.8c22.4-9.2,39.9-20.2,52.1-32.4l0.6-0.6v85.3h0.3l0,0.4c-0.1,20.3-22,40.9-60,56.6
				c-41.3,17-96.5,26.4-155.2,26.4c-39,0-77.3-4.2-110.7-12.3c-5-1.2-10.1,2-11.4,7c-0.6,2.4-0.2,5,1.2,7.2c1.3,2.2,3.4,3.7,5.8,4.3
				c35.1,8.4,75,12.8,115.2,12.8c61.3,0,119-9.9,162.4-27.8c22.4-9.2,39.9-20.1,52.1-32.4l0.6-0.6v1.2c0,20.4-21.9,41-60,56.7
				C476.7,542.5,421.6,551.8,362.8,551.8z M148.3,469.3c0.4,19.9,22.1,40,59.5,55.4c41.3,17,96.3,26.4,155,26.4s113.7-9.4,155-26.4
				c37.5-15.4,59.1-35.6,59.5-55.4c-12.2,12.1-29.6,22.9-51.7,32c-43.6,18-101.4,27.9-162.7,27.9c-40.2,0-80.1-4.4-115.3-12.8
				c-2.6-0.6-4.9-2.3-6.3-4.6c-1.4-2.3-1.9-5.1-1.2-7.7c1.4-5.4,6.9-8.8,12.3-7.5c33.3,8,71.6,12.2,110.6,12.2
				c58.7,0,113.7-9.4,155-26.4c37.5-15.4,59.2-35.6,59.5-55.5h-0.3v-84.3c-12.2,12.1-29.6,22.9-51.7,32
				c-43.6,18-101.4,27.9-162.7,27.9c-61.4,0-119.1-9.9-162.7-27.9c-21.9-9.1-39.3-19.8-51.7-32v84.1c0,20.4,22.5,41.1,61.6,56.8
				c5.2,2.1,7.7,8,5.7,13.2c-1.5,3.9-5.2,6.3-9.4,6.3c-1.4,0-2.7-0.2-3.8-0.7C179.1,492.8,160.9,481.8,148.3,469.3z M363,382.6
				c-58.8,0-113.9-9.4-155.2-26.4c-38.1-15.7-60-36.3-60-56.7v-1.2l0.6,0.6c12.4,12.4,29.9,23.3,52.1,32.4
				c43.5,17.9,101.2,27.8,162.4,27.8s118.9-9.9,162.4-27.8c22.4-9.2,39.9-20.2,52.1-32.4l0.6-0.6v1.2c0,20.4-21.9,41-60,56.7
				C476.9,373.2,421.8,382.6,363,382.6z M148.5,300.1c0.4,19.9,22.1,40,59.5,55.4c41.3,17,96.3,26.4,155,26.4
				c58.7,0,113.7-9.4,154.8-26.4c37.5-15.4,59.1-35.6,59.5-55.4c-12.2,12.1-29.6,22.9-51.7,32c-43.6,18-101.4,27.9-162.7,27.9
				c-61.4,0-119.1-9.9-162.7-27.9C178.3,323,160.9,312.2,148.5,300.1z M363,213.4c-58.9,0-114-9.4-155.2-26.4
				c-38.1-15.7-60-36.3-60-56.7s21.9-41,60-56.7c41.3-17,96.5-26.4,155.2-26.4c58.9,0,114,9.4,155.2,26.4c38.1,15.7,60,36.3,60,56.7
				c-0.1,20.4-22,41-60,56.7l0,0C476.9,204,421.8,213.4,363,213.4z M363,48c-58.7,0-113.7,9.4-155,26.4
				c-37.8,15.5-59.5,35.9-59.5,56s21.7,40.5,59.5,56c41.2,17,96.2,26.4,155,26.4c58.7,0,113.7-9.4,155-26.4l0,0
				c37.7-15.5,59.5-35.9,59.5-56c0-20-21.7-40.5-59.5-56C476.8,57.3,421.8,48,363,48z"/>
			<path d="M362.7,704c-62.1,0-120.7-10.1-165-28.3c-48.9-20.2-75.8-48.7-75.8-80.4V235.1c0-8.9,7.3-16.2,16.2-16.2
				s16.2,7.3,16.2,16.2v22c0.1,17.2,21,36,55.8,50.4c40.6,16.7,94.8,25.9,152.7,25.9s112.1-9.2,152.7-25.9
				c34.9-14.3,55.8-33.2,55.8-50.4v-70.8c-11.6,9-26.1,17.2-43.4,24.3c-44.3,18.3-102.9,28.3-165,28.3c-62.1,0-120.7-10.1-165-28.3
				c-17.3-7.1-31.8-15.3-43.4-24.3v3.1c0,8.9-7.3,16.2-16.2,16.2s-16.2-7.3-16.2-16.2v-59.3c0.1-31.6,27-60.1,75.9-80.2
				c44.4-18.2,103-28.2,165.1-28.2c62.1,0,120.7,10.1,165,28.3c48.8,20.1,75.7,48.5,75.8,80.2v396.2c0,8.9-7.3,16.2-16.2,16.2
				c-8.7,0-15.9-6.8-16.7-15.9l0-0.5v-1.7c-11.6,9-26.1,17.2-43.4,24.3c-44.3,18.3-102.9,28.3-165,28.3c-62.1,0-120.7-10.1-165-28.3
				c-17.2-7.1-31.8-15.3-43.4-24.4v70.8c0,17.2,20.9,36.1,55.8,50.4c40.6,16.7,94.8,25.9,152.7,25.9s112.1-9.2,152.7-25.9
				c35-14.4,55.8-33.2,55.8-50.4V572c0-8.9,7.3-16.2,16.2-16.2s16.2,7.3,16.2,16.2v23.2c0,31.7-26.9,60.2-75.8,80.4
				C483.4,693.9,424.8,704,362.7,704z M138.1,231.6c-1.9,0-3.5,1.6-3.5,3.5v360.1c0,26.2,24.1,50.5,68,68.6
				c42.8,17.6,99.7,27.3,160.1,27.3c60.5,0,117.4-9.7,160.1-27.3c43.8-18.1,68-42.4,68-68.6V572c0-1.9-1.6-3.5-3.5-3.5
				s-3.5,1.6-3.5,3.5v23.2c0,22.9-23.2,45.6-63.7,62.2c-42.1,17.3-98,26.9-157.5,26.9c-59.5,0-115.5-9.5-157.5-26.9
				c-40.5-16.6-63.7-39.3-63.7-62.2V495.1l10.9,10.9c11.8,11.8,28.7,22.3,50.1,31.1c42.8,17.6,99.6,27.3,160.1,27.3
				s117.4-9.7,160.1-27.3c21.6-8.9,38.5-19.4,50.1-31.1l10.9-10.9v30.9c0.3,2.3,2,4,4,4c1.9,0,3.5-1.6,3.5-3.5V130.2
				c-0.1-26.1-24.2-50.4-68-68.4C480.4,44.2,423.5,34.5,363,34.5c-60.5,0-117.4,9.7-160.3,27.3c-43.7,18-67.9,42.3-68,68.4v59.3
				c0,1.9,1.6,3.5,3.5,3.5s3.5-1.6,3.5-3.5v-32.7l10.9,11c11.6,11.7,28.5,22.2,50.1,31.1c42.8,17.6,99.6,27.3,160.1,27.3
				s117.4-9.7,160.1-27.3c21.6-8.9,38.5-19.4,50.1-31.1l10.9-11v100.4c-0.1,22.9-23.3,45.5-63.7,62.1c-42.1,17.3-98,26.9-157.5,26.9
				c-59.5,0-115.5-9.5-157.5-26.9c-40.4-16.6-63.6-39.2-63.7-62.1v-22C141.6,233.2,140,231.6,138.1,231.6z M362.8,557.8
				c-59.5,0-115.5-9.5-157.5-26.9c-40.5-16.6-63.7-39.3-63.7-62.2V453l10.9,11c11.9,12,29.6,22.8,52.5,31.9c0.2,0.1,0.6,0.2,1.3,0.2
				c1.4,0,2.7-0.8,3.2-2.1c0.7-1.7-0.2-3.8-1.9-4.5c-41.8-16.7-65.9-39.7-65.9-63V326.3l10.9,10.9c11.8,11.8,28.7,22.3,50.1,31.1
				c42.8,17.6,99.6,27.3,160.1,27.3s117.4-9.7,160.1-27.3c21.6-8.9,38.5-19.4,50.1-31.1l10.9-11v93.9h0.3l0,6.4
				c-0.1,22.9-23.3,45.5-63.7,62.1c-42.1,17.3-98,26.9-157.5,26.9c-39.5,0-78.3-4.3-112.1-12.4c-1.8-0.4-3.7,0.8-4.2,2.6
				c-0.2,0.9,0,1.8,0.4,2.6c0.5,0.8,1.2,1.3,2.1,1.5c34.7,8.3,74,12.6,113.8,12.6c60.5,0,117.4-9.7,160.1-27.3
				c21.6-8.9,38.5-19.4,50.1-31.1l10.9-11v15.7c0,22.9-23.2,45.6-63.7,62.2C478.3,548.3,422.3,557.8,362.8,557.8z M162.9,488.7
				c9.2,10.9,25.5,21.6,47.2,30.5c40.6,16.7,94.8,25.9,152.7,25.9c57.9,0,112.1-9.2,152.7-25.9c21.6-8.9,37.9-19.5,47.1-30.4
				c-9.9,6.6-21.5,12.6-34.7,18.1c-44.3,18.3-102.9,28.3-165,28.3c-40.7,0-81.1-4.5-116.7-13c-4.2-1-7.8-3.6-10-7.3
				c-2.3-3.7-2.9-8-2-12.2l0-0.1c2.2-8.6,10.9-13.9,19.5-11.9c32.9,7.9,70.7,12.1,109.2,12.1c57.9,0,112.1-9.2,152.7-25.9
				c32.5-13.4,52.9-30.7,55.5-46.9v-74.2c-11.6,9-26.1,17.2-43.4,24.3c-44.3,18.3-102.9,28.3-165,28.3c-62.1,0-120.7-10.1-165-28.3
				c-17.2-7.1-31.8-15.3-43.4-24.4v70.9c0,17.6,21.6,36.7,57.9,51.2c8.2,3.3,12.3,12.7,9,21c-2.5,6.2-8.3,10.1-15,10.1
				c-2.2,0-4.2-0.4-6.1-1.2C185.8,502,173.4,495.6,162.9,488.7z M363,388.6c-59.5,0-115.5-9.5-157.5-26.9
				c-40.5-16.6-63.7-39.3-63.7-62.2v-15.6l10.9,10.9c11.8,11.8,28.7,22.3,50.1,31.1c42.8,17.6,99.6,27.3,160.1,27.3
				s117.4-9.7,160.1-27.3c21.6-8.9,38.5-19.4,50.1-31.1l10.9-11v15.7c0,22.9-23.2,45.6-63.7,62.2C478.5,379,422.6,388.6,363,388.6z
				 M163.1,319.4c9.2,10.9,25.5,21.6,47.2,30.5c40.6,16.7,94.8,25.9,152.7,25.9c58,0,112.1-9.2,152.5-25.9
				c21.6-8.9,37.9-19.5,47.2-30.4c-9.9,6.6-21.5,12.6-34.7,18.1c-44.3,18.3-102.9,28.3-165,28.3s-120.7-10.1-165-28.3
				C184.7,332.2,173.1,326.1,163.1,319.4z M363,219.4c-59.6,0-115.6-9.5-157.5-26.9c-40.5-16.6-63.7-39.3-63.7-62.2
				s23.2-45.6,63.7-62.2c42.1-17.3,98-26.9,157.5-26.9c59.6,0,115.6,9.5,157.5,26.9c40.5,16.6,63.7,39.3,63.7,62.2
				c-0.1,23-23.3,45.6-63.7,62.2C478.5,209.9,422.5,219.4,363,219.4z M363,54c-57.9,0-112.1,9.2-152.7,25.9
				c-35,14.4-55.8,33.2-55.8,50.4c0,17.2,20.9,36.1,55.8,50.4c40.5,16.7,94.7,25.9,152.7,25.9c57.9,0,112.1-9.2,152.7-25.9
				c34.9-14.3,55.8-33.2,55.8-50.5c0-17.2-20.9-36.1-55.8-50.4C475.2,63.2,421,54,363,54z"/>
		</g>
	</g>
</g>
</svg>
