<?xml version="1.0" encoding="utf-8"?>
<!-- Generator: Adobe Illustrator 26.5.0, SVG Export Plug-In . SVG Version: 6.00 Build 0)  -->
<svg version="1.1" id="katman_1" xmlns="http://www.w3.org/2000/svg" xmlns:xlink="http://www.w3.org/1999/xlink" x="0px" y="0px"
	 viewBox="0 0 725.7 725.7" style="enable-background:new 0 0 725.7 725.7;" xml:space="preserve">
<style type="text/css">
	.st0{fill:#354251;}
</style>
<g>
	<g>
		<g>
			<g>
				<path class="st0" d="M362.8,692.9c-1.9,0-3.8-0.4-5.6-1.2c-11.1-5-271.7-123.4-271.7-276.1v-369c0-7.6,6.2-13.8,13.8-13.8h1.1
					c3.6,0,7,1.4,9.6,3.9c32.6,31.6,75.6,49,120.9,49c45.4,0,88.3-17.4,120.9-49c2.6-2.5,6-3.9,9.6-3.9h2.7c3.6,0,7,1.4,9.6,3.9
					c32.6,31.6,75.6,49,120.9,49c45.4,0,88.3-17.4,120.9-49c2.6-2.5,6-3.9,9.6-3.9h1.1c7.6,0,13.8,6.2,13.8,13.8v369
					c0,152.7-260.6,271.2-271.7,276.1C366.7,692.5,364.8,692.9,362.8,692.9z M113.1,75.2v340.4c0,38.2,21.8,99.6,125.7,174.9
					c53.1,38.5,106.8,65.2,124,73.4c17.2-8.2,71-34.9,124-73.4c57.3-41.6,125.7-105.7,125.7-174.9V75.2
					c-34.1,24.7-75.1,38.1-117.9,38.1c-48.8,0-95.2-17.4-131.9-49.2c-36.7,31.8-83.1,49.2-131.9,49.2
					C188.2,113.3,147.2,99.9,113.1,75.2z"/>
			</g>
		</g>
	</g>
	<g>
		<g>
			<g>
				<path class="st0" d="M362.7,409.5c-3.5,0-7.1-1.3-9.8-4l-34-34c-5.4-5.4-5.4-14.1,0-19.5c5.4-5.4,14.1-5.4,19.5,0l24.3,24.3
					l55.9-55.9c5.4-5.4,14.1-5.4,19.5,0c5.4,5.4,5.4,14.1,0,19.5l-65.7,65.7C369.7,408.1,366.2,409.5,362.7,409.5z"/>
			</g>
		</g>
	</g>
	<g>
		<g>
			<g>
				<path class="st0" d="M362.8,512.2c-82.4,0-149.4-67-149.4-149.4c0-82.4,67-149.4,149.4-149.4c82.4,0,149.4,67,149.4,149.4
					C512.2,445.2,445.2,512.2,362.8,512.2z M362.8,241C295.7,241,241,295.7,241,362.8s54.6,121.8,121.8,121.8
					c67.2,0,121.8-54.6,121.8-121.8S430,241,362.8,241z"/>
			</g>
		</g>
	</g>
</g>
</svg>
