<?xml version="1.0" encoding="utf-8"?>
<!-- Generator: Adobe Illustrator 26.5.0, SVG Export Plug-In . SVG Version: 6.00 Build 0)  -->
<svg version="1.1" id="katman_1" xmlns="http://www.w3.org/2000/svg" xmlns:xlink="http://www.w3.org/1999/xlink" x="0px" y="0px"
	 viewBox="0 0 725.7 725.7" style="enable-background:new 0 0 725.7 725.7;" xml:space="preserve">
<style type="text/css">
	.st0{fill:#504F4F;}
</style>
<g>
	<path class="st0" d="M362.8,684.8c-177.5,0-322-144.4-322-322c0-177.5,144.4-322,322-322c177.5,0,322,144.4,322,322
		C684.8,540.4,540.4,684.8,362.8,684.8z M362.8,58.4c-167.9,0-304.5,136.6-304.5,304.5c0,167.9,136.6,304.5,304.5,304.5
		c167.9,0,304.5-136.6,304.5-304.5C667.3,194.9,530.7,58.4,362.8,58.4z"/>
	<g>
		<path class="st0" d="M362.8,258.6c-18.8,0-34.1-15.3-34.1-34.1s15.3-34.1,34.1-34.1c18.8,0,34.1,15.3,34.1,34.1
			S381.7,258.6,362.8,258.6z M362.8,207.8c-9.2,0-16.6,7.5-16.6,16.6s7.5,16.6,16.6,16.6c9.2,0,16.7-7.5,16.7-16.6
			S372,207.8,362.8,207.8z"/>
		<path class="st0" d="M362.8,516.9c-4.8,0-8.7-3.9-8.7-8.7V317.2h-37c-4.8,0-8.7-3.9-8.7-8.7s3.9-8.7,8.7-8.7h45.7
			c4.8,0,8.7,3.9,8.7,8.7v199.7C371.6,513,367.7,516.9,362.8,516.9z"/>
		<path class="st0" d="M424,516.9H301.6c-4.8,0-8.7-3.9-8.7-8.7c0-4.8,3.9-8.7,8.7-8.7H424c4.8,0,8.7,3.9,8.7,8.7
			C432.8,513,428.8,516.9,424,516.9z"/>
	</g>
</g>
</svg>
