<?xml version="1.0" encoding="utf-8"?>
<!-- Generator: Adobe Illustrator 26.5.0, SVG Export Plug-In . SVG Version: 6.00 Build 0)  -->
<svg version="1.1" id="katman_1" xmlns="http://www.w3.org/2000/svg" xmlns:xlink="http://www.w3.org/1999/xlink" x="0px" y="0px"
	 viewBox="0 0 725.7 725.7" style="enable-background:new 0 0 725.7 725.7;" xml:space="preserve">
<style type="text/css">
	.st0{fill:#504F4F;}
</style>
<g>
	<path class="st0" d="M609.8,695.2h-495c-5.1,0-9.2-4.1-9.2-9.2V288.3c0-5.1,4.1-9.2,9.2-9.2h495c5.1,0,9.2,4.1,9.2,9.2V686
		C619,691.1,614.9,695.2,609.8,695.2z M124,676.9h476.6V297.5H124V676.9z"/>
	<path class="st0" d="M194.4,297.5c-5.1,0-9.2-4.1-9.2-9.2v-83c0-93.7,78.6-170,175.1-170s175.1,76.3,175.1,170
		c0,5.1-4.1,9.2-9.2,9.2c-5.1,0-9.2-4.1-9.2-9.2c0-83.6-70.3-151.6-156.7-151.6s-156.7,68-156.7,151.6v83
		C203.6,293.4,199.5,297.5,194.4,297.5z"/>
	<path class="st0" d="M362.3,556.9c-5.1,0-9.2-4.1-9.2-9.2V426.6c0-5.1,4.1-9.2,9.2-9.2c5.1,0,9.2,4.1,9.2,9.2v121.1
		C371.5,552.8,367.4,556.9,362.3,556.9z"/>
</g>
</svg>
