<?xml version="1.0" encoding="utf-8"?>
<!-- Generator: Adobe Illustrator 26.5.0, SVG Export Plug-In . SVG Version: 6.00 Build 0)  -->
<svg version="1.1" id="katman_1" xmlns="http://www.w3.org/2000/svg" xmlns:xlink="http://www.w3.org/1999/xlink" x="0px" y="0px"
	 viewBox="0 0 725.7 725.7" style="enable-background:new 0 0 725.7 725.7;" xml:space="preserve">
<g>
	<g>
		<g>
			<path d="M362.8,692.9c-3.5,0-6.8-2.1-8.3-5.3l-172-367.8C154.3,258,158.6,186.4,194,128.1c34.7-57.1,92.2-91.7,157.9-95
				c7.3-0.4,14.7-0.4,21.9,0c65.7,3.3,123.3,38,157.9,95c35.4,58.2,39.7,129.9,11.5,191.6L371.1,687.6
				C369.6,690.8,366.4,692.9,362.8,692.9z M362.8,51.1c-3.4,0-6.7,0.1-10,0.2c-59.6,3-111.8,34.5-143.2,86.3
				c-32.2,53.1-36.2,118.3-10.5,174.5l163.8,350.1L526.6,312c25.6-56.1,21.7-121.4-10.5-174.5c-31.5-51.8-83.7-83.2-143.2-86.2
				C369.6,51.2,366.2,51.1,362.8,51.1z"/>
			<path d="M362.8,699.4c-6,0-11.6-3.5-14.2-9l-172-367.8c-29.1-63.8-24.7-137.7,11.8-197.8c35.8-58.9,95.3-94.7,163.1-98.1
				c7.5-0.4,15.1-0.4,22.6,0C442,30,501.5,65.8,537.3,124.7c36.5,60.1,41,134,11.9,197.7L377,690.4
				C374.4,695.9,368.8,699.4,362.8,699.4z M362.9,39.3c-3.5,0-7.1,0.1-10.6,0.3c-63.5,3.2-119.2,36.7-152.7,91.9
				c-34.3,56.4-38.4,125.8-11.1,185.6l172,367.7c0.4,0.9,1.4,1.6,2.4,1.6c1,0,2-0.6,2.4-1.6l172.1-367.9
				c27.3-59.7,23.1-129.1-11.2-185.5C492.6,76.3,437,42.8,373.5,39.6C370,39.4,366.4,39.3,362.9,39.3z M362.9,677.5L193.2,314.9
				c-26.6-58.1-22.5-125.6,10.8-180.6c32.6-53.7,86.7-86.3,148.4-89.4l0.1,0c3.3-0.1,6.7-0.2,10.2-0.2c3.6,0,7.2,0.1,10.3,0.2l0.1,0
				c61.7,3.1,115.8,35.7,148.4,89.3c33.3,55,37.4,122.5,10.9,180.6L362.9,677.5z M353.1,57.8C295.7,60.7,245.4,91,215.2,141
				C184,192.3,180.2,255.2,205,309.4l157.9,337.5l157.8-337.6c24.7-54.1,20.9-117.1-10.2-168.4C480.2,91,429.9,60.7,372.6,57.8
				c-3-0.1-6.5-0.2-9.8-0.2C359.5,57.6,356.2,57.7,353.1,57.8z"/>
		</g>
		<g>
			<path d="M362.8,695.4c-4.5,0-8.6-2.6-10.6-6.7l-172-367.8c-28.5-62.5-24.2-135.1,11.6-194.1C227,69,285.3,33.9,351.8,30.6
				c7.4-0.4,14.9-0.4,22.2,0c66.5,3.3,124.8,38.4,159.9,96.2c35.9,58.9,40.2,131.4,11.6,193.9L373.4,688.7
				C371.4,692.8,367.3,695.4,362.8,695.4z M362.9,35.3c-3.6,0-7.2,0.1-10.8,0.3c-64.8,3.3-121.7,37.4-155.9,93.8
				c-35,57.6-39.2,128.4-11.4,189.4l172,367.8c1.1,2.3,3.5,3.9,6,3.9c2.6,0,4.9-1.5,6-3.9l172.1-367.9
				c27.9-61,23.6-131.7-11.4-189.2c-34.2-56.4-91-90.5-155.9-93.8C370.1,35.4,366.5,35.3,362.9,35.3z M362.9,668.1L196.8,313.2
				c-26-56.9-22-123,10.6-176.9c31.9-52.6,84.8-84.5,145.2-87.5c3.3-0.1,6.7-0.2,10.1-0.2c3.5,0,7.1,0.1,10.2,0.2
				c60.4,3,113.3,34.9,145.3,87.4c32.6,53.8,36.6,119.9,10.6,176.8L362.9,668.1z M362.8,53.6c-3.4,0-6.7,0.1-9.9,0.2
				c-58.7,3-110.1,34-141.1,85.1c-31.8,52.4-35.7,116.8-10.4,172.2l161.5,345.2l161.4-345.4c25.3-55.4,21.4-119.7-10.4-172.1
				c-31-51.1-82.5-82-141.2-85C369.7,53.7,366.3,53.6,362.8,53.6z"/>
			<path d="M362.8,701.9c-7,0-13.5-4.1-16.4-10.5l-172-367.8c-29.5-64.5-25-139.4,12-200.2c36.3-59.7,96.5-95.9,165.1-99.3
				c7.6-0.4,15.3-0.4,22.9,0c68.7,3.4,128.9,39.6,165.1,99.3c37,60.8,41.5,135.6,12,200l-172.1,368
				C376.3,697.8,369.8,701.9,362.8,701.9z M362.9,41.8c-3.5,0-7,0.1-10.5,0.3c-62.7,3.1-117.6,36.2-150.7,90.7
				c-33.8,55.7-37.9,124.2-11,183.3l172,367.7c0,0,0.1,0.1,0.2,0.1c0,0,0.1,0,0.1-0.1L535,315.9c26.9-59,22.8-127.4-11-183.1
				c-33.1-54.5-88-87.5-150.7-90.7C369.9,41.9,366.4,41.8,362.9,41.8z M362.9,683.4l-172-367.5c-26.9-58.9-22.8-127.3,11-183
				c33-54.4,87.8-87.5,150.4-90.6l0.1,0c3.3-0.1,6.8-0.2,10.3-0.2c3.6,0,7.2,0.1,10.4,0.2l0.1,0c62.6,3.2,117.4,36.1,150.5,90.5
				c33.8,55.7,37.9,124,11,182.9L362.9,683.4z M353.1,60.3c-56.5,2.9-106,32.7-135.8,82c-30.7,50.6-34.4,112.7-10,166.1L362.9,641
				l155.6-332.8c24.4-53.4,20.6-115.5-10-166C478.5,93,429,63.2,372.5,60.3l0,0c-3-0.1-6.3-0.2-9.7-0.2
				C359.5,60.1,356.3,60.2,353.1,60.3z"/>
		</g>
	</g>
	<g>
		<g>
			<path d="M362.8,341.7c-60.2,0-109.1-49-109.1-109.1s49-109.1,109.1-109.1s109.1,48.9,109.1,109.1S423,341.7,362.8,341.7z
				 M362.8,141.8c-50.1,0-90.8,40.8-90.8,90.8c0,50.1,40.8,90.8,90.8,90.8c50.1,0,90.8-40.8,90.8-90.8
				C453.7,182.5,412.9,141.8,362.8,141.8z"/>
			<path d="M362.8,348.2c-63.7,0-115.6-51.9-115.6-115.6S299.1,117,362.8,117s115.6,51.9,115.6,115.6S426.5,348.2,362.8,348.2z
				 M362.8,130c-56.6,0-102.6,46-102.6,102.6s46,102.6,102.6,102.6c56.6,0,102.6-46,102.6-102.6S419.4,130,362.8,130z M362.8,329.9
				c-53.7,0-97.3-43.6-97.3-97.3s43.6-97.3,97.3-97.3c26,0,50.5,10.2,68.9,28.6c18.4,18.4,28.4,42.8,28.4,68.7
				C460.1,286.3,416.5,329.9,362.8,329.9z M362.8,148.3c-46.5,0-84.3,37.8-84.3,84.3c0,46.5,37.8,84.3,84.3,84.3
				c46.5,0,84.3-37.8,84.3-84.3c0-22.4-8.7-43.6-24.6-59.5C406.6,157.1,385.3,148.3,362.8,148.3z"/>
		</g>
		<g>
			<path d="M362.8,344.2c-61.5,0-111.6-50.1-111.6-111.6S301.3,121,362.8,121c61.5,0,111.6,50.1,111.6,111.6
				S424.3,344.2,362.8,344.2z M362.8,126c-58.8,0-106.6,47.8-106.6,106.6S304,339.2,362.8,339.2s106.6-47.8,106.6-106.6
				S421.6,126,362.8,126z M362.8,325.9c-51.4,0-93.3-41.9-93.3-93.3s41.9-93.3,93.3-93.3c25,0,48.4,9.7,66.1,27.4
				c17.6,17.6,27.3,41,27.2,65.9C456.1,284,414.2,325.9,362.8,325.9z M362.8,144.3c-48.7,0-88.3,39.6-88.3,88.3
				c0,48.7,39.6,88.3,88.3,88.3s88.3-39.6,88.3-88.3c0-23.5-9.1-45.6-25.8-62.3C408.6,153.5,386.4,144.3,362.8,144.3z"/>
			<path d="M362.8,350.7c-65.1,0-118.1-53-118.1-118.1s53-118.1,118.1-118.1c65.1,0,118.1,53,118.1,118.1S427.9,350.7,362.8,350.7z
				 M362.8,132.5c-55.2,0-100.1,44.9-100.1,100.1s44.9,100.1,100.1,100.1c55.2,0,100.1-44.9,100.1-100.1S418,132.5,362.8,132.5z
				 M362.8,332.4c-55,0-99.8-44.8-99.8-99.8c0-55,44.8-99.8,99.8-99.8c26.7,0,51.8,10.4,70.7,29.3c18.8,18.9,29.2,43.9,29.1,70.5
				C462.6,287.6,417.8,332.4,362.8,332.4z M362.8,150.8c-45.1,0-81.8,36.7-81.8,81.8c0,45.1,36.7,81.8,81.8,81.8
				c45.1,0,81.8-36.7,81.8-81.8c0-21.8-8.4-42.3-23.9-57.7C405.3,159.3,384.7,150.8,362.8,150.8z"/>
		</g>
	</g>
</g>
</svg>
