<?xml version="1.0" encoding="utf-8"?>
<!-- Generator: Adobe Illustrator 26.5.0, SVG Export Plug-In . SVG Version: 6.00 Build 0)  -->
<svg version="1.1" id="katman_1" xmlns="http://www.w3.org/2000/svg" xmlns:xlink="http://www.w3.org/1999/xlink" x="0px" y="0px"
	 viewBox="0 0 725.7 725.7" style="enable-background:new 0 0 725.7 725.7;" xml:space="preserve">
<style type="text/css">
	.st0{fill:#504F4F;}
</style>
<g>
	<g>
		<path class="st0" d="M362.8,684.7C185.4,684.7,41,540.3,41,362.8C41,185.4,185.4,41,362.8,41c177.5,0,321.8,144.4,321.8,321.9
			C684.7,540.3,540.3,684.7,362.8,684.7z M362.8,58.5C195,58.5,58.5,195,58.5,362.8S195,667.2,362.8,667.2
			c167.8,0,304.4-136.5,304.4-304.4S530.7,58.5,362.8,58.5z"/>
	</g>
	<path class="st0" d="M262.4,467c-2.3,0-4.6-0.9-6.3-2.7c-3.3-3.5-3.2-9,0.3-12.4l77.8-73.9c3.5-3.3,9-3.2,12.3,0.3
		c3.3,3.5,3.2,9-0.3,12.4l-77.8,73.9C266.7,466.2,264.5,467,262.4,467z"/>
	<path class="st0" d="M362.8,340.7c-4.8,0-8.7-3.9-8.7-8.7V131c0-4.8,3.9-8.7,8.7-8.7c4.8,0,8.7,3.9,8.7,8.7v201
		C371.6,336.8,367.7,340.7,362.8,340.7z"/>
	<path class="st0" d="M362.8,397.8c-19.3,0-35-15.7-35-35c0-19.3,15.7-35,35-35c19.3,0,35,15.7,35,35
		C397.8,382.1,382.1,397.8,362.8,397.8z M362.8,345.4c-9.6,0-17.5,7.8-17.5,17.5c0,9.6,7.8,17.5,17.5,17.5c9.6,0,17.5-7.8,17.5-17.5
		C380.3,353.2,372.5,345.4,362.8,345.4z"/>
</g>
</svg>
