<?xml version="1.0" encoding="utf-8"?>
<!-- Generator: Adobe Illustrator 26.5.0, SVG Export Plug-In . SVG Version: 6.00 Build 0)  -->
<svg version="1.1" id="katman_1" xmlns="http://www.w3.org/2000/svg" xmlns:xlink="http://www.w3.org/1999/xlink" x="0px" y="0px"
	 viewBox="0 0 725.7 725.7" style="enable-background:new 0 0 725.7 725.7;" xml:space="preserve">
<style type="text/css">
	.st0{fill:#354251;}
</style>
<g>
	<g>
		<g>
			<g>
				<path class="st0" d="M633.9,655.3H91.8c-20.8,0-39.5-10.8-49.9-28.8c-10.4-18.1-10.4-39.6,0-57.7L312.9,99.3
					c10.4-18.1,29.1-28.8,49.9-28.8c20.8,0,39.5,10.8,49.9,28.8l271.1,469.5c10.4,18,10.4,39.6,0,57.7
					C673.4,644.5,654.8,655.3,633.9,655.3z M362.8,95.7c-11.7,0-22.2,6.1-28,16.2l0,0L63.7,581.4c-5.9,10.1-5.9,22.2,0,32.4
					c5.9,10.1,16.3,16.2,28,16.2h542.1c11.7,0,22.2-6.1,28-16.2c5.9-10.1,5.9-22.2,0-32.4L390.9,111.9
					C385,101.8,374.6,95.7,362.8,95.7z M323.9,105.6L323.9,105.6L323.9,105.6z"/>
			</g>
		</g>
	</g>
	<g>
		<g>
			<g>
				<path class="st0" d="M362.8,466.1c-19.7,0-36-15.4-37.1-35.1l-10-188.2c-0.5-10.1,3.2-20.2,10.1-27.5c7-7.4,16.8-11.6,26.9-11.6
					h20.1c10.1,0,20,4.2,26.9,11.6c7,7.4,10.7,17.4,10.1,27.5l-10,188.2C398.9,450.6,382.6,466.1,362.8,466.1z M352.8,228.9
					c-3.3,0-6.3,1.3-8.6,3.7c-2.3,2.4-3.4,5.5-3.2,8.8l10,188.2c0.3,6.3,5.5,11.2,11.8,11.2c6.3,0,11.5-4.9,11.8-11.2l10-188.2
					c0.2-3.3-1-6.4-3.2-8.8c-2.3-2.4-5.3-3.7-8.6-3.7H352.8z"/>
			</g>
		</g>
	</g>
	<g>
		<g>
			<g>
				<path class="st0" d="M362.8,587.6c-25.2,0-45.7-20.5-45.7-45.7c0-25.2,20.5-45.7,45.7-45.7c25.2,0,45.7,20.5,45.7,45.7
					C408.6,567.1,388.1,587.6,362.8,587.6z M362.8,521.4c-11.3,0-20.4,9.2-20.4,20.4c0,11.3,9.2,20.4,20.4,20.4
					c11.3,0,20.4-9.2,20.4-20.4C383.3,530.6,374.1,521.4,362.8,521.4z"/>
			</g>
		</g>
	</g>
</g>
</svg>
