<?xml version="1.0" encoding="utf-8"?>
<!-- Generator: Adobe Illustrator 26.5.0, SVG Export Plug-In . SVG Version: 6.00 Build 0)  -->
<svg version="1.1" id="katman_1" xmlns="http://www.w3.org/2000/svg" xmlns:xlink="http://www.w3.org/1999/xlink" x="0px" y="0px"
	 viewBox="0 0 725.7 725.7" style="enable-background:new 0 0 725.7 725.7;" xml:space="preserve">
<g>
	<path d="M656,679.7c-7.5-124.3-92.3-227.8-207-262.9c69.5-32.5,117.7-103,117.7-184.8c0-112.6-91.3-203.9-203.9-203.9
		S158.9,119.4,158.9,232c0,81.8,48.2,152.4,117.8,184.8C162,452,77.2,555.4,69.7,679.7c-0.6,9.6,7,17.9,16.8,17.9l0,0
		c8.8,0,16.2-6.9,16.8-15.7c8-136.3,121.2-244.4,259.5-244.4s251.5,108.1,259.6,244.4c0.5,8.8,7.9,15.7,16.8,15.7
		C648.9,697.6,656.5,689.4,656,679.7z M192.5,232c0-94.1,76.3-170.3,170.3-170.3S533.1,137.9,533.1,232s-76.3,170.3-170.3,170.3
		S192.5,326,192.5,232z"/>
	<path d="M639.2,699.1c-9.7,0-17.7-7.5-18.3-17.1c-8-136.3-121.4-243-258.1-243c-136.7,0-250,106.7-258,243
		c-0.6,9.6-8.7,17.1-18.3,17.1c-5.1,0-9.8-2-13.3-5.8c-3.5-3.7-5.3-8.7-5-13.7c3.6-60.8,25.6-118.1,63.6-165.8
		c36.6-46,85.2-79.6,140.8-97.4c-33.4-16.4-61.8-41.5-82.2-72.8c-21.6-33.3-33.1-71.9-33.1-111.7c0-113.2,92.1-205.4,205.4-205.4
		c113.2,0,205.4,92.1,205.4,205.4c0,39.8-11.4,78.5-33,111.7c-20.4,31.3-48.7,56.4-82.1,72.8c55.6,17.8,104.2,51.4,140.8,97.4
		c38,47.7,60,105,63.6,165.8c0.3,5-1.5,10-5,13.7C649,697.1,644.3,699.1,639.2,699.1z M362.8,436c138.3,0,252.9,108,261.1,245.8
		c0.5,8,7.2,14.3,15.3,14.3c4.3,0,8.2-1.7,11.1-4.8c2.9-3.1,4.4-7.2,4.1-11.5v0c-7.3-120.9-90-226.1-205.9-261.6l-3.7-1.1l3.5-1.7
		c71-33.2,116.8-105.2,116.8-183.5c0-111.6-90.8-202.4-202.4-202.4c-111.6,0-202.4,90.8-202.4,202.4c0,78.3,45.9,150.3,116.9,183.5
		l3.5,1.7l-3.7,1.1C161.3,453.8,78.5,558.9,71.2,679.8c-0.3,4.3,1.2,8.4,4.1,11.5c2.9,3.1,6.9,4.8,11.1,4.8c8,0,14.7-6.3,15.3-14.3
		C109.9,544,224.5,436,362.8,436z M362.8,403.8C268.1,403.8,191,326.7,191,232S268.1,60.2,362.8,60.2c94.7,0,171.8,77.1,171.8,171.8
		S457.5,403.8,362.8,403.8z M362.8,63.2C269.7,63.2,194,138.9,194,232s75.7,168.8,168.8,168.8c93.1,0,168.8-75.7,168.8-168.8
		S455.9,63.2,362.8,63.2z"/>
</g>
</svg>
