<?xml version="1.0" encoding="utf-8"?>
<!-- Generator: Adobe Illustrator 26.5.0, SVG Export Plug-In . SVG Version: 6.00 Build 0)  -->
<svg version="1.1" id="katman_1" xmlns="http://www.w3.org/2000/svg" xmlns:xlink="http://www.w3.org/1999/xlink" x="0px" y="0px"
	 viewBox="0 0 725.7 725.7" style="enable-background:new 0 0 725.7 725.7;" xml:space="preserve">
<g>
	<path d="M153.9,694.4c-1.9,0-3.9-0.6-5.5-1.8c-3.3-2.4-4.7-6.7-3.4-10.5l77.3-238L19.8,296.9c-3.3-2.4-4.7-6.7-3.4-10.5
		c1.3-3.9,4.9-6.5,9-6.5h250.3l77.3-238c1.3-3.9,4.9-6.5,9-6.5s7.7,2.6,9,6.5l77.3,238h250.3c4.1,0,7.7,2.6,9,6.5s-0.1,8.1-3.4,10.5
		L501.6,444L579,682c1.3,3.9-0.1,8.1-3.4,10.5c-3.3,2.4-7.8,2.4-11.1,0L362,545.5L159.5,692.6C157.8,693.8,155.9,694.4,153.9,694.4z
		 M54.4,298.7L239,432.8c3.3,2.4,4.7,6.7,3.4,10.5l-70.5,217l184.6-134.1c3.3-2.4,7.8-2.4,11.1,0l184.6,134.1l-70.5-217
		c-1.3-3.9,0.1-8.1,3.4-10.5l184.6-134.1H441.4c-4.1,0-7.7-2.6-9-6.5L362,75.2l-70.5,217c-1.3,3.9-4.9,6.5-9,6.5H54.4z"/>
	<path d="M153.9,700.4c-3.3,0-6.5-1.1-9.1-3c-5.3-3.9-7.6-11-5.5-17.2l75.9-233.8l-199-144.6c-5.4-3.9-7.7-11-5.5-17.3
		c2.1-6.3,8-10.6,14.7-10.6h245.9l76-233.9c2.1-6.4,8-10.6,14.7-10.6c6.7,0,12.6,4.3,14.7,10.6l76,233.9h245.9
		c6.7,0,12.6,4.3,14.7,10.6c2.1,6.4-0.1,13.3-5.6,17.3L508.7,446.3l76.1,233.9c2.1,6.3-0.1,13.2-5.6,17.2c-5.4,4-12.7,3.9-18.2,0
		L362,552.9L163,697.5C160.3,699.4,157.1,700.4,153.9,700.4z M25.4,285.9c-1.5,0-2.8,0.9-3.3,2.4c-0.5,1.3,0.1,2.9,1.2,3.8
		l206,149.8L150.7,684c-0.5,1.4,0.1,2.9,1.2,3.8c0.6,0.4,1.3,0.7,2,0.7c0.8,0,1.5-0.2,2.1-0.7l206-149.6l206,149.6
		c1.2,0.9,2.9,0.9,4,0c1.2-0.9,1.7-2.4,1.2-3.7l-78.8-242.2L700.7,292c1.2-0.9,1.7-2.4,1.2-3.7c-0.5-1.5-1.8-2.4-3.3-2.4H443.9
		l-1.3-4.1l-77.3-238c-0.5-1.4-1.8-2.4-3.3-2.4s-2.8,0.9-3.3,2.4l-78.6,242.1H25.4z M160.5,676l76.2-234.6c0.5-1.4-0.1-2.9-1.2-3.8
		l-199.5-145h246.6c1.5,0,2.8-0.9,3.3-2.4L362,55.8l76.1,234.6c0.5,1.4,1.8,2.4,3.3,2.4h246.8l-199.5,145c-1.2,0.9-1.7,2.4-1.2,3.7
		L563.6,676l-199.5-145c-1.2-0.9-2.9-0.9-4,0L160.5,676z M72.9,304.7l169.7,123.2c5.4,3.9,7.7,11,5.6,17.3l-64.8,199.4L353,521.3
		c5.4-3.9,12.7-3.9,18.2,0l169.7,123.2L476,445.2c-2.1-6.3,0.1-13.2,5.6-17.2l169.7-123.2H441.4c-6.7,0-12.6-4.3-14.7-10.6L362,94.6
		l-64.8,199.4c-2.1,6.4-8,10.6-14.7,10.6H72.9z"/>
</g>
</svg>
