<svg xmlns="http://www.w3.org/2000/svg" height="20" viewBox="0 96 960 960" width="20"><path d="M467.616 729.961h23.96v-47.192H521q17.79 0 29.779-12.454 11.99-12.454 11.99-30.06v-34.143q0-17.756-11.99-29.722Q538.79 564.424 521 564.424h-99.808v-71.232h141.577v-23.961h-71.193v-47.192h-23.96v47.192H439q-17.79 0-29.779 12.454-11.99 12.454-11.99 30.058v34.129q0 17.604 11.99 30.058Q421.21 588.384 439 588.384h99.808v70.424H397.231v23.961h70.385v47.192ZM184.263 836.729q-25.053 0-42.619-17.577-17.566-17.578-17.566-42.656V375.18q0-25.078 17.566-42.494 17.566-17.415 42.619-17.415h591.474q25.053 0 42.619 17.577 17.566 17.578 17.566 42.656V776.82q0 25.078-17.566 42.494-17.566 17.415-42.619 17.415H184.263Zm.084-47.96h591.306q4.616 0 8.462-3.846 3.847-3.847 3.847-8.462V375.539q0-4.615-3.847-8.462-3.846-3.846-8.462-3.846H184.347q-4.616 0-8.462 3.846-3.847 3.847-3.847 8.462v400.922q0 4.615 3.847 8.462 3.846 3.846 8.462 3.846Zm-12.309 0V363.231v425.538Z"/></svg>