<svg xmlns="http://www.w3.org/2000/svg" height="20" viewBox="0 96 960 960" width="20"><path d="m691.5 882.153 114.576-118.999-23.807-21.807-92.056 95.154-38.328-39-22.615 22.422 62.23 62.23ZM306.616 474.615h346.768v-47.96H306.616v47.96Zm410.789 503.576q-69.327 0-117.75-48.594-48.423-48.595-48.423-117.923 0-69.327 48.595-117.75 48.594-48.422 117.922-48.422 69.327 0 117.75 48.594 48.423 48.595 48.423 117.922 0 69.328-48.595 117.751-48.594 48.422-117.922 48.422Zm-546.134-50.885V327.539q0-24.957 17.655-42.613 17.656-17.655 42.613-17.655h496.922q24.957 0 42.613 17.655 17.655 17.656 17.655 42.613v243.076q-11.576-3.615-23.301-5.576-11.725-1.962-24.714-3.193V327.539q0-4.615-3.847-8.462-3.846-3.846-8.462-3.846H231.539q-4.615 0-8.462 3.846-3.846 3.847-3.846 8.462v508.423h249.832q1.937 20.268 7.171 39.999 5.233 19.73 13.765 37.422l-14.23 11.231-47.884-30.73-51.308 33.422-52.115-33.422-51.307 33.422-52.116-33.422-49.768 33.422Zm135.345-202.769h173.369q4.669-13.999 11.419-25.191 6.75-11.192 14.942-22.769h-199.73v47.96Zm0-124.961h272.77q14.961-7.499 27.909-14.21 12.948-6.711 28.01-15.135v-18.615H306.616v47.96Zm-87.385 236.386V315.231v520.731Z"/></svg>