<svg xmlns="http://www.w3.org/2000/svg" height="20" viewBox="0 96 960 960" width="20"><path d="M135.81 909.42v-99.959h688.572v99.959h-67.345v-51.999H513.768v51.999h-67.344v-51.999H203.155v51.999H135.81Zm132.73-199.998q-12.55 0-21.294-8.744-8.745-8.744-8.745-21.294v-423.69q0-12.55 8.745-21.39 8.744-8.84 21.294-8.84h422.92q12.55 0 21.391 8.84 8.84 8.84 8.84 21.39v432.613q0 8.758-6.054 14.937-6.054 6.178-14.485 6.178H268.54Zm17.922-47.96h387.269V273.424H286.462v388.038Zm75.653-252.5h235.962v-47.96H362.115v47.96Zm-75.653 252.5V273.424v388.038Z"/></svg>