<svg xmlns="http://www.w3.org/2000/svg" height="20" viewBox="0 96 960 960" width="20"><path d="M480 977.844 370.885 869.537H219.539q-30.087 0-51.178-21.091-21.09-21.09-21.09-51.087V276.256q0-29.996 21.09-51.087 21.091-21.091 51.087-21.091h521.104q29.996 0 51.087 21.091 21.09 21.091 21.09 51.087v521.103q0 29.997-21.09 51.087-21.091 21.091-51.178 21.091H589.115L480 977.844ZM207.231 770.885q53.457-51.249 122.974-80.817 69.517-29.567 149.767-29.567 80.251 0 149.788 29.567 69.536 29.568 123.009 80.817V276.347q0-4.616-3.846-8.462-3.847-3.847-8.462-3.847H219.539q-4.615 0-8.462 3.847-3.846 3.846-3.846 8.462v494.538Zm272.88-178.5q53.735 0 90.196-36.573 36.462-36.572 36.462-90.307t-36.573-90.196q-36.572-36.461-90.307-36.461t-90.196 36.572q-36.462 36.572-36.462 90.307t36.573 90.196q36.572 36.462 90.307 36.462Zm.065-59.961q-27.442 0-47.213-19.594-19.771-19.595-19.771-47.037 0-27.443 19.594-47.214 19.595-19.771 47.038-19.771 27.442 0 47.213 19.594 19.771 19.595 19.771 47.038 0 27.442-19.594 47.213-19.595 19.771-47.038 19.771ZM480 894.192l85.423-84.615h129.694v-8.573q-46.385-39.697-101.141-60.12Q539.22 720.461 480 720.461q-58.874 0-113.707 20.231-54.833 20.231-101.41 60.043V809.577h129.694L480 894.192Zm0-376.73Z"/></svg>